<mxfile host="app.diagrams.net" modified="2024-01-25T03:27:24.922Z" agent="Mozilla/5.0 (Macintosh; Intel Mac OS X 10_15_7) AppleWebKit/537.36 (KHTML, like Gecko) Chrome/120.0.0.0 Safari/537.36" etag="qKosdk5yQ4Re04JqMIGC" version="23.0.0" type="github">
  <diagram name="第 1 页" id="thd2Y0iGCiAkrLfsqnZa">
    <mxGraphModel dx="2020" dy="621" grid="1" gridSize="10" guides="1" tooltips="1" connect="1" arrows="1" fold="1" page="1" pageScale="1" pageWidth="827" pageHeight="1169" math="0" shadow="0">
      <root>
        <mxCell id="0" />
        <mxCell id="1" parent="0" />
        <mxCell id="n-arGQhtczRCjPCN1Lz3-32" value="" style="shape=image;verticalLabelPosition=bottom;labelBackgroundColor=default;verticalAlign=top;aspect=fixed;imageAspect=0;image=data:image/png,iVBORw0KGgoAAAANSUhEUgAAA94AAAImCAYAAACl21LrAAAAAXNSR0IArs4c6QAAAIRlWElmTU0AKgAAAAgABQESAAMAAAABAAEAAAEaAAUAAAABAAAASgEbAAUAAAABAAAAUgEoAAMAAAABAAIAAIdpAAQAAAABAAAAWgAAAAAAAACQAAAAAQAAAJAAAAABAAOgAQADAAAAAQABAACgAgAEAAAAAQAAA96gAwAEAAAAAQAAAiYAAAAACaz3ogAAAAlwSFlzAAAWJQAAFiUBSVIk8AAAQABJREFUeAHsnQWAXcXVx89765psNsnGFXctUFw+3B3aogVaWqwGpYUGaHFpixQKxUpx9yIFihYtUJxAQkLcs1nffd/vzHt3d99mYy/JZuU/yey7984d+925c+fMGTGTEQEREAEREAEREAEREAEREAEREAEREAEREAEREAEREAEREAEREAEREAEREAEREAEREAEREAEREAEREAEREAEREAEREAEREAEREAEREAEREAEREAEREAEREAEREAEREAEREAEREAEREAEREAEREAEREAEREAEREAEREAEREAEREAEREAEREAEREAEREAEREAEREAEREAEREAEREAEREAEREAEREAEREAEREAEREAEREAEREAEREAEREAEREAEREAEREAEREAEREAEREAEREAEREAEREAEREAEREAEREAEREAEREAEREAEREAEREAEREAEREAEREAEREAEREAEREAEREAEREAEREAEREAEREAEREAEREAEREAEREAEREAEREAEREAEREAEREAEREIEuRiC2hPQuyX0J3ruE85LyuCT3LpHJ5UzkkhgsyX05o+8S3sWgSzwmJVIEREAERKCTE1jS93RJ7p08eyskeUtisCT3FZKIVRzIkvK4JPdVnPwOiX6VMMg40kfNzoubbdFg1phtlgOiC/Y2ezlC9bDZT3LN9qnDnUji3HPLXmb3Ru6Pme2fZXYi7gm/RgDP435l5P6I2WZcOxd3bgvunxWa/WpHM6I0w30Q7tfgnufn/Jk7xey4Y81q/PxtvEwz+wfuRX7OvTE8Hraf2Xw/d/O42d+bzPpg3T2f38P2MZsRHPlDGm8kcYO5niARheT3GNI4PnKHwVVcW4twm/jN594zCP+DyP0hs3Ng8N36pHs291wGo+cid/JwHFwOSbl7Ru8j/Ftbuf8f/k+rJe1+Df//edfs92MIz89J31r4uYQ8EkwA9W2x2ckRo2fNehH2LREj7q3DHr6nGUEmDQzuJf2BEW651WYHHGpWGbkTxx3kq8wjxL2wwOzgXcxmtnL/K8dDGmFE+gq5J40Rebyca+s6IzKRy/FZMHinlf9fcn2nlDtB2F9gCNqkIf7DuHg0+QjlBP9P8YyuaeW+Fe5n4+5+PY0fEf5ZhBkYPUDaKBvXEn5gxE1zSggvYkSBzCVP95B+UIdAYqMpm+vCys/dkIb7ibzAAyTcgnzK9W5mC4Jj0t0ZeTlK4F5EHAeTxhmRO5m5getDnRG/+aTxBNL4VeRO+BdyfWNnwLVs7jv/ILNXI3ee0cm47+0MPJO433GA2V2t3Ck29mP8c1v488q+ZhdzEpjxLq5PnBfiLzDi+vj3zH46JsXoadJO2Lfizm3Bfw3+D+E+T08wPMdHCCwqZ1mTYHCSGd6SpjUjIsmfY7bvUa0Y4f8OwguM3J2X9HDK2fRW/q/jeARp8DzmkJfTDjT7JHKH4bn43zLlHictV1JOno3cedeO4R0+BH8hk7g/jPuNkTv+tyfcXzojft28xzM6hzADI9xHcnw14Ufu02BwHPcF99t5rmXJchLcubcB//tH7h4gDB7l5sCQ02zK2V47puordyeOB/jxesbTmEcY+xJGlbu5wf/t+O+Lu5eTXNJ6FOVgctI11Hl/xN8azgD3LI7Pxj9VQtLA+Odc2znFyAvDjbjz+JOGg4N5gMe0YvAcebwqcqecbcrxeZE7afkChqdH7rwrAwrN/oZ7xHge7kdE7mNIMwE8RPzBnfgTxE9RbzHk8XHCxSmYbBK/15hWjHC/H5eCVBg53HsQccxP3h4Y3sJxhTMCdBZp+dEBZuMid/xfyPFGKQYxIrqQNLwSuT9hdhJ+943SSPh3Ef4dkTuMdoPRKc7AHyT3voH7BZH7g2ZrU86uSIXvlyfCkFchaV4w603FcBf+/Zvgphr3g5OH4QOYlWf2BOnyJAQQpM/f32bDc3wc9xhxe2HKegeGY9IZ3Uu6iyJ37j0CyLOjAChn13PN6xv37wx+jnvzu8Rz/g3+v+vu5DXB7zXkkWogaWD4PY6O4HpggP/H8f+XyJ30be1lLwqf3w/2p86N3PE/jLT9lTgauS/G7zTCPyZyf5+0j6OccL2e9DmDGsI/KHLnepw4nsKvFzUvSwnc+d9iiCO8a84A9/g43sVTW33X8H8n4fZKMfJ39jgg00RIGhhdydGaKXev7MeQgLcid8I/jXTs6u4pRreRh/sidxjui5uXpYjxv0jg5ZE75czL4EW4N/kzIKwvKAentXIfgPvtuNeTNnefRfjfj9yJv5Brj+Jei7tXQrW4Hxi58y5m8R16kvPAiN8mwqcotRjySHG2HE+j54Fye9hurepk3G/Gyd+l4M7PqeThK37dxEjDecS7aeROeq8gDS8kncO7eDzHB7q7P0d+H8D95sgd/zvj/+dc93fVy/ObuI+J3HlGa/KMrua6lwN3H4/7jyN3/PfF/z1cr3FGXJ9NHr1sBvMa9cT05LtEsyXcUAuAZkZjyNZGuOO3gTA8jY3kbz8CItiQkPgmvJK40QQI5aiJRsDRu/Ms/JybnME1uI/wc/z7O3025ehDP0+5/wr37fzcGXPtBtKAt6Th4DCuHcU9oZzw+yR5vKaV+1Zc+x33+LsS5/j91u8Sz2gkbjdhIwbfwuCEyL9/u/mWPsB5lTPCziGPR0buN1COBpIewnX/DrGa9DXXR29TPr5NftuJIuShng/SoYem2j9ezmByO0693Z0y5O35k/ek3vPzMaR5Y9oaeF7Xz3FvIi6vc1/3czcw+AllBy/JRhaNz7T2C3ncG/8/wTbBMM69L8DoUr/fzTO8Szzgy3Cvc3d+Pyb8nyddQ/jDuHYb8VZ5OeJ4Eox+GLmThz484AcI1xl5fTG3NaN/Uh/x/j+MOz/hOaUxwn9aG5E46nj3jvk/wvH7XwAbdb63MYf4ObwaeCZnURBDnTuGKDejzsV9S3en/k9w/GfyQNaShvrkaNJ/KNYZeh7vJ41/i9xhtBPHZ+Le4O6k9XXyeH4rd+f/Z9xrUow+I/zTI3cqCm+j/x0bygnPcDLux0fuD5qVk+77SFe1M8LMJfwjk4fhu1VcxE99KPahnFQNwJ18cQkhg3ZNf959Tnr5OWHVcfwTnuMkP3dGlKtLuLZWyr2RuC4gjrf83A115hm47+LH+I/B8CYYkrSkgdEhpP842Hg5ySKvT+D/6sidcrYNx7/jHi8nWfy+RfznRO4EtDbh+nPyPHo2P8f/aZG7MyLMv+O+SEY897soJPX8NpG+i3hXX4v8L8sv6cvYlJWYFQPKK4xcoFKeWgzXevGgisko+bc456Q1zRSl3OEYKoTC5E+yUuQ4r9ishEw6IC+MhZ+G2/wsPH3/8PQi/JAH3BsJj/KUNF9x3IfKAveQLm6Kfx3eqeiO4LEcf0WeAH4LpqbCarnD+noeyYB/OIrmtHHnIZWX4s6DCoI3byHBtBgSExiRBxc6s2GVxohrpR6+u+PLK4zwAYhCIN5CoJREgXK/M2o2eMrFfyl5DIz4U8Q5tyUNFVycAJ0ByQ9/6qan7k3d4vD6wDFEgf+8Se0wwr8zcoGoaH4bBoTTj+cUGOFeOCu8M1Ho4TmVu7szImF5pCnKTriJcHs7A3fngn940hjBoMQZw84fkxemNEbcn497Ce5Rvovuazl2MNlA8wZY5F7/ectxSAP5L8Mxco+/2YYRCe6DzQoJII9UsgTbYjjpRxgFzoirxbgH3tEdBNwvlUd3LyCtaQzIU1++ahGDnLbusOld1sLAGyhpjDgvcgbcFwznaYyINBcGpR65G2f6O37H+AmG+EI54TDcgnvueck8ElQwMSLsQ1kJ5/zJIz0Rr3BDikEIgECK25YzdycNgRH+iwCUxohA+kblCP951CdpjLjWx8sBefTGTRbvTBoD/JekyllIGO5tGRQQf4lnwBOOO4+kxXAtGw/+0fBy6ky4pcVUcMj1MvLRkPIfH8MlLMlJGvj05V2p9wv4L/y8HUakIeFpgHExFXcaA673Jw/e4PZ7CmFAkGkmvEv4dQY5JDCNEXf2jhhyHONdS2NAuotaM6Ax4ww8OyEP3J8PgGYGuFMsWwyBudBYRlmvd0+kPy3+dbjmDLivJuXe9hn5i+PvSk2KUfH2LcFHRxXU4954c4bFhIeXFoM/f5eC0Mk9edg0Rpz3JQNF/i5wb5bnqcU3D4/8+bvo4XsaK9uUAy5556K/K9654b1rFPUWwwPLwd0ZhXKA/34trkHy807mciKtTvmn2LaYj4l2C9IIuAXuDmMeSbrhujOoIg3eQ1qyfbqz58vdw0MjHwXck1aOcO+He7H7x2QTB8WyxVB++ng5cXfiis2DV4treMn9XSpxd4cPA89vs+FaPg+2F7/e6W74L2925ADGOWSqjESFxj6M+rd25xsSJ0H+7a308HFPC9/vxa0fccx3RpQzkKcb/PWHca2nkXJSwDP1W5sNcXs5zHN3bA55SCur+C/DPWIUJ460ckJgpeQhuHsaySNI0kz4NnMl4QxoG6SVE56LN9Z7EU4QKvGfVk5wD+8S6azinhjvetoz5JnFKThlhF3pGeO8vXLkDMlaqKzSnjGXYrj14aLXFV7f5Mxtw4iwy2DczKAtIxJUGrmnnlMaI9yLuBD8OwPC9/qk2ZDufNxL+fVy4uUsjRFhZ3scuNfyG8P/QoycIXFnc48zSnuGX8KoAnf8ZuHu5SQt/oH4cf/EHZUTbm0xH+G+VdJ/YAen+OxWz+E83LckTPyHZ+8MKLsku8WQP1fIBPcUg7R3iWv5JNrT5eXEGaSVdRKUm2JU7+6Uo7R3iXz5d6nEf50R8S/EiAidYRwbo5ykMQJ4nHLsZccZ+kctLX3Tku4evleJXk5iZMZvDYbIYlxzPyGP7kAePKvB/I6/zyfrsOBO5AnSSJZaDOn388g95vV6i2uonPII0K8Fwbu9d4k8eBq9nMSpL9IYkadsoDrjuDNqWydTLrL74k4G/RF6/M3p93TgHsezu1OVBgZp6V+AOxy8jRu9Yy50eVjB+Hd+NdwpPyFfpMHdo3vDPTDw73rEwHt2yFKLIUKPM5QTPHo5TCsnFLrAiDAaUu5p7xJx5hCA19leTuI8gzRGMMmJGDgj3qU0d+LOInHehgzvEky5rcVwHqcSd/dQTogn9yvCie6ggMSw3j6LGDQSZzNnZ7QG5QiGwZ08NM1If5f8XS3w+sbDpBx5+yWtrOIn38sJCWjCPYtyksaIBPu75O6uYMyCQZ8off7LtRwCLCENWRwvVI6cEfWJyxLhXSLPaYw9CPfvfon4O5Pp3OXaax72sppmcMvq8V4S4S9l5G8HyisnPI+k4SD+IjY6fwlYY1IPza9xHN++lft0/B4ayry7hoBiLwZW4dRVY2nuXI290Mrd79oxfPOT9/tf3JsfvJ8vq/sY/JPGZoN/nllLHpfEoK17WwaJNox2gE9sORgRvnOl7LeY5WWwJP/El8ZohzbloC2DJbm3ZUT4aeUE/2mMYLjKy8nKZkQeV/a7tNzvypIYLMl9VZcTGKeVI8Ps2MHvUjuMVmh90/ZdaluntmXQ1t2ZtJPGVVrf8IyWiRF51LvU5tvdHevcdsrpMpWTtvXRkhi1fVeW4l1a6e2XdhikvavUB8v17W77Lu3Q5ttM+Gnf7gwYrfL6pm05II9p7dy27ksqJ20ZLWs5acvQMEt6zivBfZnepbblZEmM2uZxWRkRfqdvBy+JwbKWk2Vl5OVmx5XfvlmmcrKy36VlZbSocjSOenMoozToPHkdmfVbZykjAiIgAiIgAiIgAiIgAiIgAiIgAiIgAiIgAiIgAiIgAiIgAiIgAiIgAiIgAiKwSAIPme3xL7MJD7aZu7VID3IQAREQAREQAREQAREQAREQAREQgR5KoHkO9jLmvzCbFeAYM888cxkREAEREAEREAEREAEREAEREAER6J4EmIve6zlWXH+EnYgyzWFGgjcCt29B0rIPTqaxy58IiIAIiIAIiIAIiIAIiIAIiIAIdGICyL5FLL1+PKunr55pMjMSvFFz5/o67nmsWplpxPInAiIgAiIgAiIgAiIgAiIgAiIgAp2dAFtDJNi2z7e3StslYlnSnZHgzP5qj7Pk/9ofm01dlsh0rwiIgAiIgAiIgAiIgAiIgAiIgAh0JQKFJNbnWMfC/8xSzlTtZTfsXcZe4/bpsvuUDxEQAREQAREQAREQAREQAREQARHoOgQYaj4fbfdv+f2o66RaKRUBERABERABERABERABERABERABERABERABERABERABERABERABERABERCBVUaAfbx3ft7sw8fM+q6yRChiERABERABERABERABERABERABEegCBDJaXI1J5WWsaL4eE71zu0AelUQREAEREAEREAEREAEREAEREAERyIjA7Wwnxj7eP2cf79UyCgBPGQne7F/WVI9nX1Y904jlTwREQAREQAREQAREQAREQAREQAQ6O4Ecs16sbH45i6ttnGlaMxK88ZRTQowI4Bn5zzSx8icCIiACIiACIiACIiACIiACIiACHUnAFc5sqe3Cb8fu411n9uxcs63XNZvWkRlWXCIgAiIgAiIgAiIgAiIgAiIgAiKwKgigeGbWdWYm0328ZxHda5lFKV8iIAIiIAIiIAIiIAIiIAIiIAIi0DUIoOmuyTK7G6l7YtdIsVIpAiIgAiIgAiIgAiIgAiIgAiIgAl2MAIubZazt7mJZVXJFQAREQAREQAREQAREQAREQAREoIcQYBn1rVlO/dl7zfr0kCwrmyIgAiIgAiIgAiIgAiIgAiIgAiKQEYFMVyUfxHLqu7Ccen5GscqTCIiACIiACIiACIiACIiACIiACHQBAn82y3vGbNcHzfpnmtyMBG8E7kZfTl37eGeKXf5EQAREQAREQAREQAREQAREQAS6AoEis/I8s38yyXvbTNObkeBNZFlEbCyJrgnmmZKXPxEQAREQAREQAREQAREQAREQgU5PIJd9vNlKzIVf/8nIZCR4M778dTTeR7Ck+uyMYpUnERABERABERABERABERABERABEehCBDp8H+89k/uX3d2FGCmpIiACIiACIiACIiACIiACIiACIrDMBBjt3YC2+0O01vOW2bM8iIAIiIAIiIAIiIAIiIAIiIAIiIAILJFAjB29cseYZTRifImh6wYREAEREAEREAEREAEREAEREAEREIFVQOAxsw2fNfvLHWalqyB6RSkCIiACIiACIiACIiACIiACIiACXYZARqpyJpWvUWz2IxZX40dGBERABERABERABERABERABERABLonAYaZZ71kNpTfgkxzmJHg7ft41xCj9vHOFLv8iYAIiIAIiIAIiIAIiIAIiIAIdAUC7OjVn3SOZVux3TNNb0aCNyu6xdxjYaaxyp8IiIAIiIAIiIAIiIAIiIAIiIAIdBECjPrOWZ7txDIVvD9B630Bdn4X4aRkioAIiIAIiIAIiIAIiIAIiIAIiMAqIZCdSaz7m32Mv3Mz8Ss/IiACIiACIiACIiACIiACIiACItBVCLCPdwKNdTUjv1F6y4iACIiACIiACIiACIiACIiACIiACKxQAgmmWv/TrOgFs4wU1ys0MQpMBERABERABERABERABERABERABERgYQJoy5fdPGA2qhcrulWb3bqPWdWyh7CCfAx6dhvLydnAmurphOgAE8+ts76f3m7vnFTfAbEpChEQAREQAREQAREQAREQgW5O4A6z0lKzdcjmSIQaxCzLSEbrSpjIYB15ncL21J/sbfZVV0p7pmnNSFUOoE3YwOza6WYPE/GqE7yzYkewldrJmWZ+mfzFvPxnz7PxA9i+zSR4LxM83SwCIiACIiACIiACIiACItCaAILUOshV5yFl7IlQVthTJw8/ZvYFDC5HqPzboWxb3ZpRZzqmo8AlwowVvhkJ3hSKpjoorPJ9vBMkIZvUrL1uEsPKejKOeMpks0nTiKc0Y9grK3kKVwREQAREQAREQAREQAREoGsQeNBsDfaDvhgJ44BeLnFzUphjlocUnsXFnmBcoKpHjKtGoKyqs9Wr6u2GWJP9GiH8EkZUX9/ZGKB5HfCi2ZePmB25n9mjmaQvI8E7k4hWnh9KZxalNGikV1IsHnbYuXwlha9gRUAEREAEREAEREAEREAEuj0BBLe9kFzuy45ZwUjGl5cgdLsOtSdq9rIBUYAtz0fNjRA+cYGNmF1jf0H43neS2X4ndaJRxrVIgzypItTxGcvPGe3jTWyTiPlhPNd0+7dDGRQBERABERABERABERABERCB5STwuNnxbEv1eJ98K1ivnIndCN2JHip0t0bpDOIIlyNLsMxwL4zbHoPM/v0kiFrf19WPM5LY9zX7D3wOgg99EzIiIAIiIAIiIAIiIAIiIAIiIAKLIoAWd0MEpxvLWChrWFFSiGrqiWruRQHieiM8etEZUdDb7PPZtmVtwu7m8p6L8dJhTgjNMR6dzelojTdxJiR0d9hzVkQiIAIiIAIiIAIiIAIiIAJdlMDTZn2QnV4oz7PY8GJpLhf3GF377XPdh7vmO2Z70GFx1uLu7yi3z1jxq9KsLyts++LiGZmMhppnFJM8iYAIiIAIiIAIiIAIiIAIiEAPIoAcGWNR6l8jeJcNRtPtWl2ZxRPwkQClLDZXxNxvhNVTEb77Lt7HyncdQ3/JLmYzWXXd1xjPyGQkeLMSX/k/zbZjdTdfDkBGBERABERABERABERABERABESgDYG/B8WtHVlRaJaPJldm6Qi48D2EjorcuA3Ex5FL56tz35WR4E2PzQ6McX+R1d1YFkBGBERABERABERABERABERABESgLQGmK+9SELNBAxC8pe1uS2fx5761GgvR+aJiZyz+zq7hmqng3cRS6qCQEQEREAEREAEREAEREAEREAERaI8AwtaxRQyb7in7c7fHINNrPt+7xIecm41guPlamYazIvzdaVbxgtk03w4u0/AyErzpdZDQnSlx+RMBERABERABERABERABEegRBJCbNstjSWwXImWWjYAjy2V4vndawPG7y+Z7xd7NNnBxBOd+hMphZiYjwZu8V2K/INaGzKKVLxEQAREQAREQAREQAREQARHovgRYD6sY4XFwDhKX5O7MnrML3b6dFma1zEJYMb6qCAbh3xj1nbHJSPB+3+w5xP31WNVtRsYxy6MIiIAIiIAIiIAIiIAIiIAIdFMCjJLO9pWoY0nBsZvmcuVmK2IHQkacrzrjGu/SZPQZLy6ekeA9BoF/3eRS6uq8WXXPXzGLgAiIgAiIgAiIgAiIgAiIgAisfAJTqtlefIAZ07wzM8w4kBEBERABERABERABERABERABERABEWiPACO9fZT5N+25Le21jDTeTzKp/FWz/mPCnuZLG5XuEwEREAEREAEREAEREAEREAEREIGeRyAjwRs1+56sqjZxNMuq9zxkyrEIiIAIiIAIiIAIiIAIiIAIiIAILD2BjARvJrfHWNWN9QJkREAEREAEREAEREAEREAEREAERKD7EmCF+n7Pm335kNmumeYyI8E708jkTwREQAREQAREQAREQAREQAREQAS6EgG2E/cV6kejfE4tbr7sqc9I8MaTb6emPbyXnbd8iIAIiIAIiIAIiIAIiIAIiIAIdCECvo+3C7/IwL6dd0YmI8G7zuzRWrPe3zebklGs8iQCIiACIiACIiACIiACIiACIiACXYAAau5YMelEeM54unVG24mlllNf0AUYKYkiIAIiIAIiIAIiIAIiIAIiIAIikDEBBO9plWYbF5l9nWkgGQnemUYmfyIgAiIgAiIgAiIgAiIgAiIgAiLQlQjsmBxp/t/lSXNGQ82XJ0L5FQEREAEREAEREAEREAEREAEREIGeRCAjwfsRs31fNKtkWfUBPQmW8ioCIiACIiACIiACIiACIiACnZVAgoSx+rYVsApYZHyIcyHnrS5FTmm/+dzgtq1xgdHDY2VvmeUgkJHg3chy6sRZxAJr7Tya5UiNvIqACIiACIiACIiACIiACIiACCwTgQLujgTsv9WYnT6fhcCQ1HKxj7Iy9g/mmdW4VL4I40LdtSzdfSG2rYA9FuFv59lmL9cvwnMPuPygWTn7eL+KAnq7TLOb8RzvxTy3TNMifyLQvQmc/lBva4gNZReCfhZvyk9Wj907y8qdCIiACIiACIiACCxEoCmRsFiiyhI5Uy1/9gS7/Cgt2rwQpKW/4BruoxG09+PgKCTwjxGU30BIbkJgc+H7AbSln7IXVhEq19ZLctfj7ltkuVznwvYzCOhT2CzrVy7FY/y6C+TDcJzM9VurzbYljgYc/Lpbv6cnGBDm0Xj/7lyzikzzm5HgDeTsQmL0ZdUzjVj+RKDHEDj1oU2plX5LLbWDZWXnWSLGe5eV0WiTHsNMGRUBERABERABEei+BFwatEQTUmG91ZbMtzMeftTqGv9g1x40vvtmeuXkzAVfx/kBgvY2SNXewHThOjslpc1BYH4HN9d2HzCnRVB2fz9GwN4zLymgux8fju62lEDuQWv+a5bxduNhTiecJxDMN54ZLoXh7Jvi6dqS5djYOhlUl/hLB0WC7LuhWyMzk5HgzbN7mNEG5e+Z8fhkREAE2iVw6oPrIWD/3nLz9svJy7P84gLLKy6yLPrL4tlZdPS260sXRUAEREAEREAERKBbE/AmUFNDQ1ZDdXVOTWVlYW1V3QkNTfNPsNMevs7iWRfaVft8260BrITMpeTstJBdi/0eEuMMhObNEZLzuMm13Jw2Gxeqn0aiHIc4OQ6H+dgb0Wz7PZXcezLCuYft9/k1f3Yu1D+GCvirlAjq19qLn8vdxiA0x+ijcNN2JH7y6lL8zUjwZh9vF/hnLUX4ukUEeiaBUx76MdL15Tn5eYW9hw+z3EIfI4KJUS0xukpGBERABERABERABHoqgSDIZWdbdkGB5ZeVgSFhNXPn2ezx35zc1JQ40E55+FC7ev+XeyqfFZXvUkBfzZztkUjNz/Y2+xcS3CYI4AyZbhaiXRB/Ca3qMwjSU5GsE/i5GcH7cKTMcvydx8bVp6H53gypcS38nsmQ9tsY9uz3voa/nmIYADCL+RD7g+vNTPPsnRcyIiACK5LAaQ+fYTn51xWVlxX2X2dtyy2ixoqMhO6IhH5FQAREQAREQAR6OoHmdlHMChDAB6y3ruWXFA2w7Jx/26kP7tfT8SxP/l27fR3SogvVlyIoT0I7fQgTlH+O4OwqIFdWR78XF5v9r4/Z9szfXgt97hv0hWyGkH0GeiPXht+AIO7D2QdgJyBwH0Y42+F+FBK8h8Hlbm+OZbT+/5k9chDT3TPNrATvTMnJnwi0R+DUh05E031l74H9rGz4cGojqqPmj0p7HnRNBERABERABERABEQg0dRksXjcyldbzQp7M3E4nvMPO+ORzUQmMwIuELug/AOE463RVrv22gXs+9Fsv4gwnho2HQKv5WYU481acB9SviF+NsJ+n9XQ90Ag3wcPJYT3DJrzz5HaXSA/HcHc45FZOgIZCd6PmO31PNMF7lyOVd2WLnm6SwS6EIEzHhvMV+Liot6lVjxgAPK2qqIu9PSUVBEQAREQAREQgc5AgPZT+ahRjBgsKGJZ7tttzJiM5JXOkJWOSoO3OPtAyffg9mMXnKv4sxvC8lWpxc98VLjP194JTfXFSNm+zVhkHDAydpjHPY8AfIX0D5gbfgCa7Qo04B6Gr2Tu4fbD36UI8HeiTX8EIV4PJ6K45F9nvMwG6Pk8s3KepVgvMz156LYEGuuvzinuVVY2ciTrdHrVJCMCIiACIiACIiACIrCsBHy3MRe+p37+1dpNsze4EP9nLWsYPeV+l5/rEIrv7ZXUarvgfQhCmmurC9yRCy6QR+Z27nNT7TemjO/T/ShCtC/E5quX9+f+oQjcv2e25A4IfcWc+wJfbvx3NzTgdzJ83Yej95QW771mvRiN/ydG3f95H7N3A4xl/JOR4M1zSvi8AB+SICMCIgCBkx/aiBXUDigd0F9DblQgREAEREAEREAERGB5CCB4x3NyrLC00CprKn9ipz1ylf1pv6nLE2R39usy9Dgk4P3QULsgjDwcFlDzudl+jgwd5mG7/OamEQ/3IYD3R4Xq137IcPKJ3OhC9bpIhy8jYb7Kyc9ZVM3dI7ndfyN53cM8GAH/ErTfHkd3N3AoYmT90aB6grx2nODNM8qhk8MhS+Pd3UuZ8rd0BLKafhRnf7C8EsbiaIj50jHTXSIgAiIgAiIgAiKwKAK0p4r797fKqdORdxp35La7F3WrrqMQRSL+CI21z7t2bfU5CM37o5neAns7w8InIDmehptrtP+I9hSZPAjULkxfi2BXwcHp+PHVyucT1jDC8NXL3d01538njFcQxv+cGrruzF1w7wlCt+cVtAkGBbjxvoiMTEYab5g/ynMZxjSBKRnFKk8i0J0InPhYocWatsyjHyzO1hgaZt6dHq7yIgIiIAIiIAIisKoI+HZjOUWF8frKBTuRBgnei3kQLiC7OZzF1DZBwruYva92RSN9NOdvMcHbh5afhPD2JRKkC97R/e5nbYTs6Nw12k38KeTCtq46x/hQ89cRAN/1awjyrjF34z+pw3Denf/QZxE0zq7pz9RkJHgfmuwkmZBppPInAt2KQF4WM2ASFQW9fByIjAiIgAiIgAiIgAiIwIog4MJgPu0rBO8NV0R43TUMl48joc4F4UgL3VYw9uu+T7cb95PDsQvRft39p5zCLzJ787nf5wKnD3X2Rdl8obXoXtcCezzd3aDmno89m/x+lGleo2eUqX/5EwERaKzLpzYq9V5ZDTNXcRABERABERABERCBFUPAd4jJLXBdY2L4igmx+4XiQu9/0WJ/khoA7auR13PR7RdcexNttw8v96Ho73Lsc7ndfIDbXK65ttvvbUCSZjR5MC6cv4CGm6CC8cXZPKzZ3Pc0kic/wbjwvTnSZOvF21JO3e4HxTMDvu2i5cmYBO/loSe/IuAEYo1xS8RzsxhmLiMCIiACIiACIiACIrCCCCB4x7LD4F6XvmXaIeDzsQ9jUbUYUvAAVNK/ZiswV0fnYW9gSPn1TOaOtNVHsjKYC8t+3xncN5jfN8vMLuCem7AuoB+Aqts126fj7oK53+8mmwNv6Z5AGJFx7bfv6z2I35Q8Hznptx0CGUkKDzFlgEG118002wrpf3o74eqSCIiACIiACIiACIiACIiACKwAAtEA6RUQVDcLohSh97PyzDLlmus5/DkIYXsU0nYpdhvGoLsG/B1WNl8a4wK3hO6lIdUyHWDp7k7dxfMtZV79aHpPMhLclyky3SwCIiACIiACIiACIiACIiACItAugWhIeLuOS7jowvcQBO6RLMLmx74nuP8urTDt9/YEczvbiQ1gfToGBjy6H2vUZZLnjARnHkSTP2BGL8iIgAiIgAiIgAiIgAiIgAiIgAisIgLLK/z69PBopfIoC8sbZhROd/llJWV2lbcrkH+/IU8ZCd70byy7QeOdTeSu7uZQRgREQAREQAREQAREQAREQAREQAS6JwFXOLM2nY8EWNrBAAuByEjwJpRnZpltytx6ze9eCKkuiIAIiIAIiIAIiIAIiIAIiIAIiEALgYyGmh/APHyCeLclGB2JgAiIgAiIgAiIgAiIgAiIgAiIQPcjUGxWzfD7exnuPTHT3GUkeGcamfyJgAh0HIFEPG71OTkWa8p4REzHJVYxdRiBBPuN+ByhnDo26Oyixsu1l2+V7S76AJcj2dFzz6n3AX9d09Tn5oaFi2JskyTTswh4+c1qbLSshuVZCqtnMVNuRaCzEHDF8xizI7AZV94SvDvL01Q6RGAFEWjiwx5vbLIN//OGbfz6yzbk668tr0pLIa4gvF02GBe2mxC65/Ytty/WWd/e3m5HmzBypGV3IQGmAYG7fOpU2/zll2zt99+xPpOnWnZTY+ZfwC77NHtewr38NsSzbNbACvtkw03trW23t5kVFV2u/A6lPt7s3y/Y6h9/aL1mzLQ4wnfGLbieVwy6bI69/Nbn5NrUIYPtf5tuYe9ss61VlpRYtgTwLvtMlfCeSWDMcszvdmIZCd4Pm22Luv0PzPPe/1AzfmREQAQ6C4H8qmr76R/Ot0ETxlppotzKrNxyrKKzJE/pWIUEXNddOaHShk/4l23z3NP25MHfs6cPPtgKukDHTF1eXuhMOuqaP1oeys6+1s9KbKjRzYTgItFlFRarDonay24T/+aPnWcjxz5sOz/2sN3+09Pt/S22tNza2g5Jw/JEUl1YaLvff7/tef8/LL8xl/JbYcU2UmV3eaB2Kb+U35pGm/PJTFvjk9tst4cfsGt/fY5NGj48aMC7VFaUWBEQgYwJZCR4E1tFAcI3+3iz3bqMCIhAZyAQhhCjPTnhsots5DcTEUnWR+juHRqrEkw6wxPqHGnoRZkYZINtYuNEO/iem8LeFC/stbfFO/GUBB/Fse6779gJV11spTbARiCw5PDPBTGV7c5RrjoiFS5896EjcZANsXH1X4fy8JdfnWOfrb9Bpy+/uz9wf3jfetvqpH4IOUl2JHQEN8XROQj4My+ny6Xay2/ll/bTC861q35/ic3s39807aBzPCOlQgQWR+Bes9xys21mmn2I4jmjBcYzWtXcl1H32YEavLq4xyM3EehYAj5vcP/bb7e1v/zU1rANEFBKrIF/kXDiAor+iUCjNYYy4Y3/MkrKLg/dY2UzZ5p33HRW443Sg2/+K2W6wkbbakFoUdnueWXZ6zJ/7i7AeDnw8uDlojMLLf5e+fsV3jPeN3/vPB/+Hva8J9izcxyVX+80XMPWsfKauB124/VWl5/fWatepUsERKAVARTO5Wisn88x267V5WU6zEjwxlM8l2jYRFxGBESgkxDwxt2WLz1rvdAH+ofdmzgyIrAoAt4IdCGgX23MtnvqCastYBxTJzR1dCht+uqrNnTGFEr2qCC0dMJkKkkdTMDLr5cHLxdePrycdEbj75W/X/6eRUJ3Z0yn0tTxBIbRebTuZ+/Z6I8/tsYsmvQyIiACnZqAK5x9uWJa1xk3sDMSvNF2v86MqoPZx3t2pyakxIlADyIwmEV7spoaGIpZJqG7Bz335cmqd86UWn9b/623Ou8iVWgMN33l35ZPyfb53DIiEBHw8uDlwsuHddIRG754ob9f/p6pMzR6cvr1spDPvyxUWBu9/nrYpUFUREAEuj+BjOZ4M679W9A80P3xKIci0HUIlMyjKywRZ+EFLb3QdZ7aqk2paw1zrcDKZk0K29tE6wSs2lSlx+7DiCsmTWIlUI2xSiejMyfg5cLLR2ccbu7vk28bVTZrJu/ZaI3WUJFNI+BTJmII3/2nTF4O/VlakDoRARFYiQQYl1KPxvsTVAA0uDMzUh9kxk2+RKDTEUg2PH30S+edq9vpoClBoennrb7OKLg0P56mjEd1NQehg25MoBOXj6hedhFLRgTSCSTLRMwXtlTxSEejMxHohASONJuB4LzBfszzzjR5GWm8M41M/kRABERABDobgUioVcuvsz0Zpac7EIjeq+g96w55Uh5EQAREoGcS2NFY4XM5TEYa7yfMNnrO7IYnjWlLMiIgAiIgAiIgAiIgAiIgAiIgAiIgAoskkJHgXW+2GuvfnjjXrHiRIctBBERABERABERABERABERABERABLo4AcYtxV8wG3CLsThDhiYjwZvZKGEfb3TtGjuVIXh5E4GeSCAR9pBmT4RVWHUkrI5FjjwNkfFqzDeIWJyN7uWXkaNNVoNlfweZbkwgRimtC7ZlxewEz72aPLf+9PkSdTVcaVxqFl7+ojLovwv7jeFOFzd/l8YkGPnmaUhP19L41D09iUCynFB+l3oFeC/bbct7OrHmsheNqE93Dv79rVkek/xupKcjGa+/O57G1vX58sQkvyIgAiKwaAJ3mFVQ1U3qZbbnou9avEtGgrfvNuh1rNaYXTxcuYqACLQQ8MZT/nqDbY0Zl1jOiPJmYSNWkGPx3gXt2liBL0OREnLiMYv3yltma/iLjDfW+l1ygI144XSLFSWrv+xBvS139f6LtDmj+7Va+IZmXqLOBt12jA344yGWiEXCVjKNiXgTC8un2yhu/XYtAo0IHBVXHmz9LznQGhO+e6dZVt9iG3zXDy1e4p3d/swTlrfBIBv5xq8sd80BfssSjb8Hg+841obceXx4B/qcsL0VbD4iHEeeEwjdvQ/ezHJWK+dSJOQn4wvnMQSZbMpZHovileRY0Y5r2qAbf2CxQt/RgGs5bLS1mHclVpjVjnu+xQtzoiSE33hxrmW1ejf9OJa6J4Tfys3f4ViO9iJOA7iqTmKUFcpHa9uU1WC9f7i1jf7fOZZI0KnTxt3iUTmLEs2OB2sPsNXG/8GyB5RSqtoTnpuszyk72Mg3z0yGGXkNv5TD3Gwb/dG5lr/JUK605z/NQzsnnqZGKz1iM1t94oUWL/dWp6ek3vqcTrz/4b0b3cf6/mYvixUs3JyNl+alld9QRnMpo3Q8xHtT3tuU39bfinYSo0si0LkJtPpEhM/Gqjjv3IRWSOrA2tKozCDEjBZXo6n5CVXo+fzOzyBOeREBEeiBBFzorfl8oiUW1Fm/i/e0bw6/jl14c63ign2s7JRtaKQt3Gif89c3bNJJt4e9TvPW7m/DXj0FgaHVCB9WM07UNtDoShcYmvE2NNnXa19qtV9Oo6ZMNsxyR/SxbKxlcU5QQ5850XLXrWj20t7BFyVnW6Kx0Yr2XNsS1Q1WvNuaVv/tPCs5cAPacHFrqqq36pfGWr9L90YQyrdYK2G/8v73bf7DHxLswg3D9uLStc5CIEEHUR9L1HnnSlJoiOXHrWTf9XiUMZt82G2hAV92xvaWv8Uwi+ct/fPN33RIMlyEHS9T/f64r3016g/WOLUyZD67rMgq/nYoZa7Jvj3wZlvw4ifW5yc7W1YZBZZym92/xHJG9rGsfkWWt+GgIPDWfT7D8tbqZzXvTrAi0jj4/qNCWF42XaCOfv1i1b++tMKdVgvuzX8aE1b5+Mc2Yf8bwnvpwv/QF06z/M1caEoZ7plz839syol326ivLyA9TDqLDJusfHvQrVb52EdcWa52SRSifjMkkLfJIOt/xQHIqN7yThkOc0aUhXIz7IVToqvhN0aZmvePd23WDS/y7JPbUbrPeFGu5Qzrvcj61e/JGlhquWv0o52PoN0q1OCfDqDcdSosq7RVOUnd4yOGWt+fvJwd6mn/VhTvuo4VbDvKEvUNlv+d4ZY9uJeVn7WzNc2vtYbJcyl7hZY9qNTy1hlo/X6/u2XxXZj6q/tIfzIuF89HfXl2eEeiZPm7PPWk+yijH9tqU8bQ+dDyziZqGmzs6IuscRKTKGVEoKsQ4CXKYsBHfRH7W402q0ZPkFi4KbXSc5O9wKxkPPOPJ/K1RLJkZ1uZRRDISPA+EMGb8H63iDB1WQREQATSCWTFrNd+mwUtQ92XM6zksI2s/MXdrPadb1BoINRgv1rjsvDrjbGm+kYb/sopFstvVUUFjXe+jfvOH61pBrU8pmCH0db75K1t6o/uRWjxoYhJE8th8x60fyP/9wu+SsnmXQItUCLRSEMOS3xBW8011w5WITRPPuLvyAvtfC1oQTbRWZC38QAbfO/RycYsDdWsfsU26J6jzRutTdX1Nnbg+Vb6vU2tqabemmaTFtLrDdLG6Qts3sPvhwZllL4e/9vIRKUcGvhNLtR2QoNGOZHANpA+GuuupfbyUz9xhk0//2ka+nvZzI0GcD7HivdZ1+bd/Z5VfTDO4vE8izXFaXRQrrIoOIlk2UvLIZ1BTVUIHTkIGUU5NvnH/7BR/z3bBtxwqE3c/0bKSbY1UH6+HHqejfjP6Tb0uR/buI0ut4Ith1G+NgkCe4LyFi/MtQbegykn3mMLHvvM6mfOxG9uKGdVz35u4za8Igg9g+76vk069HbK6lH27X63WN1XM8yFjGzKb1IwY0g978XAW45If98IKZaXbZWPfGRTfnxv6GAa/s7PeEWS70i8OM8mH0vcT/wvtLJWm35eKPNpee2uJ3TCWU5upy2/idpGqx/Lcw6dRtFDSFicEUQuSNd9OpWLrcomAmjjzCp/4uHmRCj/XlcmO5z8PfB3IHReulsqSL9mlOdQp3rnlI/EaN3iTgn+iTbbvXmd698DXjFMKjS00LXvTrT6r2cFjXbxPutY759sQx6oK6hj3ZSduk24vfbDyXQSfRI6a+e/+LFN/eF9VnHTIVb9+jib/5DXtS55kFo6ZKef/ZTNu/l1OkQLbNQXv+YyufQyTJ7Hf+dPxDeDkSwlNvKTX6Vy7zHJiEDXIBDj9Ziytdn4PRC+GRDiA1lWhfG3uJHqo/cXLAJ2H9Wj73LdqopZFWlaGXHSavFqq56WacaNl1at2pWRRIUpAiIgAhDISVjvn25juaMYYo7gW/vxVBvwl4Ns1qUvIoTQXUutXfvFxDCEu3HSPJvy6/uDJtsbSW1N/diZ1jBrrsWzc2zwqcda3kaDrN+FewdhwrXfjAu2ycfdlVYtugal7y92tbz1B1rBd0cELcigG460mrcmBNmjqbI+aFXyNhhIY5oYfV9Vb5wRfdULY61+8hyr+3CajR1xAZ0HCPTv/tLm3PCGTf/DE9b/wv2taLe1kn4Yajv9jIdszi1vhKG8oz89h3Ssoi9hW3Cd5Twrm8buB1b57M1WvMePGOJPA7yOjoomnl0n+FK7Jq78tF3QJA+gTAwjXQkbfN3RlJVvkw1/ykSMRvugW48KblkMf83feIiNevdsm3fTmzb9uqet4pyDrPTIjdsIPqkHgDCSu3pfAonZiNfpGKJ8xPsUWN4mg23IoyfaxH1vgEKOJebV2DfbXmNDnj6R8Ifatz+4zSYd+w/eFXR5jbU24vkzeJcSNvvWl7gfgR+BPbxI/G1aUGON8+ZbU2Vy45GmOd4phZg0t8oaKxdYw7i5VvelC1+RabTGOT5HfGETY7h5zhp9CZ9/riEMryR/SEd2BZr3NclLQ7gYRb9wIN3pCuW36uX7rG7Cx1ayx0loXVej7qEjMCVkdoas1vxvvC146jNG5KzXXAZdI22pqQDeaRPJu57ehqnzbd4j7/Fo87yUWMWfDgyjGVyr7KbiTweEDsU517xqJYdv1DKlgCDzvzPUfErCoGuPtAY6oqZf9E/rdfjmljMUTXl2UvVWip+CzYeEjpm6r2Za3f8m26D7ku9PAsHdE+PD0qf+lLrz2lcsK6vQpv3yCZt2Jnvn0DnX+4Qtrf+fD7Cv1rzYGqdUUu4brM+ZOwXBO6dPL5t73zuWNaCEcKeQh6SQ7un2PPv7mU0ZjRckNfl+PVmGEVLohPBRT1nFqAtlRKCLEfB+ri8PM5u2qdkQquHyMrNcXu1WA+46JEdB6EYMXUA1OIH36f3+ZmujxygezzvYzaTMQ82mUiuVvIvwnSncboYkUwzyJwIisFIJ0KYfv9OfiMIXwmmw0u02sKEvnWyzLn8hNKCScTPIcd0B1sgw2qRmJdWYb5Mwb/zH0RYOe/HUIHT70Na6L9D2oZEs/f6maO0QWhCc4/4FajZNaKwHW9HOq4c5fwnCKNxljaSwERrMiXDe66jN+GrxH21e01wSjdDVxNDyqle/pLFHyicwvPw7DDXG/4LnPrXGyXTr8vFrml3FFybZgHQNu2tcYvFko7M5CTpIEkDbnTNyfauf8IlN++2uVrDFPtb7B3Ro9GGOdP2qX7DOh6h6B0zR7msxt7UkjGYo3nMdq35zotV8MImxfPVW859vrHCPtRlCm2dzrkeb5kUV7Vrd1651pmPhs2lW/do4epO8MyHduPYvRvnK7l+MMD+OexJW8zq/tJbqx8/m5qjco4VEoz1usyu4RvDrMZydob+huDKqwuebeydW0XfWCuXNGz+uHaxDGxgfXETn0JkWTw0FH/LMSSGMYS/+JPx+Fvt5+G2OK5s42+nkQm4J70zRTqsn7+c215ZHmk6fMtJsUu9R83l3PaD85m+6q82541zqgNusZPcTEXAZCZCHkOojOTqB8bLgSt8wsifq+POLKc1zE8JuVMpCct3Nq6uUhtunIWT7fOr8ZB1asN3IMLLHpyiUHrlJsgMmRIIWnXnSXihLj9rUat+aiOD9hJX/ho4r6vKoM6L3SVuGaLyMV7041qYcd084n7jPzVb1PCoy6tw1qi4O5dmF5bITt7R+l+/LPUTC/2jtgFEfn0WQ1LNcizMawzXhIz9Bi+23oZUvO31bm7D9NXTsTk/Gx98+P9/e+vxs++Q5+U/4KJsUk8H3Hd38CngHAMHIiECXIODDy8fvZTYdoXv9UQi5Jbze3gRZBcbrkmxex16sOFaG8P85dcnHx5ttfCl9ffT5tjfwaxUkc0VFmeCrB/3MTUaC96NmI+kf3J2m5m37oBDKPHr5FAER6CkEfD63m5x+hTbooWNs/gMfWt30GclG3DJAyOpVYMNfOzUIFQsYUluw+TCbd8/bNIZHhobYhJ2vR1uOAIdGPDI+BHfykXcw3DDbRn58tsVoKH61zkVBqz7qo7OCZmbaKffZ1FMetIKth9vwl0+x8Tv8yerepwFHa8wFaRfIYgjV5efsag3TKpm3/QG6odqgPa8bN9t88SK/N8w9HNaL9DHsNzVEMkqHflMEsnKs9KBf2cyrjrXq/zxm1e88bYVbH8Tc+eMZFYGmuIHvWhBi0sSDDsGXhQps8nF3Wu7wchs17rdW89o4G7fLFWHu6KxbnyMNvtp5k4148HQWn+pvE398UygfnrgslhzNihXa3Lvfstl3v95uen3udMX5B6PF28omnXwngrwP4002+b3DyefYZg8pRbAuSMotlNW6D6basNcp82gW25rh/zmj+VL9uFn29QaXJAUshvPOuvSFsH7C9N8+bX1/uwsaxMdtwF8PCfcnV4JO8fUh9UEYaeHtwvU3218dhsOH5CHwZPftZUOe+KGVPraBfTH0nCCr97/yEISsCpuw2/UMV64kbDoW0Nh3Z5NVNtCK9/yRzX/wCpv/xHW24KW7rGiHI61ol6MseyAa8Fpvba6aVnAiq8kGXnSIxZjz3DiL4eN0qHhHpK9N4fP8XVj1dTaaDUXPO3QG33q0zTj/nwitU2zcepfx9KtYAPBEFjbb2Cb/4C6b/9T7lM1cm3vLf0I919RUa/3P3dvKz9uNDqIq+7z/2cjV2eE9Gb/JFaGxnd2v1EZPPMe+2fJqq/54IiM8GKXhZS0qZnQUJWpJU5tOn+o3vrEZv0GvhDCciwBfvNfaNuvPr9AxgF9MgncinxEivY7e3Ob+5XWmXFSGfPqUoIZpqN3CG1VrY0ddELTiXn59jY78jYbZwBsPtQmvT7AvKvgOEO+Qh05kvY45TJu4mxEi7pdOU6yMCHRaApTnqoFmE3cyG0n/VgkDm3z2S2cwLvyPGoHWmypm/N5mq91LqqL3vTMksBOkISPBm3Rvwuf/ujlmD3MswbsTPEglQQS6AoFEvMEG3HhY0ChPP/PR0JBLS/dSVNCNaKJnXfaCzbmJBiDDmka8dJoNuuNob43Z9F8ixL31VVqQLScMpFx3EHNbi8Lc1YorDmThtr/j3BJp2D6KYYxuEo31BFmfaoQhEKHRHPrMj8JiVuM2vdJ6fX/zMMTc5yLOuuA5GniEg/DS/9J9WQmbLkk3NOx8nqxMGwII1QXf3d9yH6VzY+x/aWDXM8/+7jCEt3Cz3a3XUX+wrD6D0IDVtPHYUadN1vvUbUNkhYyS6H/egTbjd09Y6U6bsoiTC8RNljO8LCz0V7bP1klhBu32gqc+DeXQtd5ZYej3wullLIY1fD07DIHNLe/L8Ny5bW5qsoqrD7Ti/RlZQZl2gWnc1lfZV8MuQEJCNYjxOeLDnjvJnW3iAQj+Td4xhEGoScyn5cMIWp/HWvvJtKD1rH75q8tmg6oAAEAASURBVDDkuAaBxk0Wq1QPveOI5vC8K8FHhFS/PDa4+ysx6KajwpoMyQv8pWznrTfAshlC3PuMba20couQPl/x2heLG3zfsWHhqwXPfW6zr34p9d40++5WBz41ohda7gXP3WpN82YisM22+Y9fa5X/vMmKdznGSg8508w14A2tBNwOIuAjf3zF7uwhFAI3CK8+laHguyOZalDNegAfsxJ4X2tC4I3nMTqIsuxlxdfTaN2xk9u/fxC6PYjBDxxt47dDk/z2RMqBX6EMlRRbn7N3tkY6Ib2eozDwP1mX+hQI77jJpgPSTVMNHFyb3kbATp7jp9V1Hy9U+97EMHLJ6wV//+Kl+Vb7/rd0UiGoezSkveqfnwfBe/aNryPwx2zoyz+xb7a+GiF8HnV8bxt09VH08ibfl5AIhPaCbUZaFguy9b0QnVVIclJjX7LV8LBmgo9GmcsUosrHP8JLMi/Br/6IQGciwDswY6Pw2bHyPp1H6I4Q+QyTCjoDpowkbQV8ZuhHl2khkFGL0PU63jSVxN0CsgOOXNXhEsUp2IdS8dHnZVuljlv/+BdjHPad1EV/zttgl+V5exhvY33soxv3uzOWwQ5L/CJ5G9C/eM9h52BlRICGGJq+K9Bq7rduaKDn09CvHTsptNccD2s1h22aFhZEInjJhlDO6HK0gUU25LHjGR6+Og3fGoSip8J2YP0QestO2dYqn/g4LAoV+fRfn7tbvMc6QRB2jU+vE7ew6reZ4+3CCo3TvA2GWcX1B1ncF3SjITfob0fToK61GSzOU/3GONK9nuUieEz54T1W/e6XVnLABgjhg23Oda9Z9X8nWMGGo8Ic3DQtN0PS6/7nK6rzJerUBi0lgkJo/3rLtgNMLJZlvY+91Kb9jkZwNESXYaBVbz7Bc0EDvv0RrGx8rMXWYPh/q4Z5ByQNoaLQev1g0yCsumDRl9WUfdX6/lfsm9ziiwZ6zOfJMnR24B1HkiT23aZDaCzCsXfeFO+zEfO1jwtJDUNY0eyFebVcqWaYeuioYb5tVu/CMC82vUqN2fTfPGGzb3w1rEnQ7/eoDYivcfYCy2WNAl/Z3IVxn3ttCDi56/QL5cvXN0gK1i3CRiRIhYWzcuk8KskL71sWQ90Ld17Dat6fxFxyWkXwrX3vW84nExbvGYKYz431TqMEw9rjzPUt3H5UyM+CJz8J9/tQeRdk/B2Zfx/a0ILc0DkVhiiHOzvuj6c5lu/ld1k+ccuXvlhOfhi1MefWs2CafGcS9bB46gY04Hdb8f8dy8rx32Me/Egi6ph3KuSoIcsmnfgPDpsoX8VWsvcGTOfZOaxYP+2MR1gQcLrljOpr/c7by7JHldr4Lf9sDTXJlZCyGG3hoy5caO6LJtvrVp+6U/3ORBv27I/sG4TvGqYyeNh9z9w9jBiae/vb1uuYzUPU6X/YFWAY404xiToXujnwyadLg4L7hj71Q0ZbMGqIOtRXMh905/fp3GRBQoTphinzWf/g2hC2l+X8TYdSXouYqjEnpD90IrCdnkfqnVTeSRZ2EvDOMRZli7OoYTarsfuOAA0T5jJi6j3eeba0zGObPaaPyIhAZybgn8MFFTTG+QSw5ERU/XSaJPsr3pt+v4m8SnVIDPndSPBGgT+gn9k3CDaHHpBUPi8z9477Si1z0uShDQHvOmeUv/0eGwneLnRTDtpt1d/P9UOwbuhzMj8v95NWxt8P/xwuyuyFA+O9gkG3aH/ErpU8XeJfD/s7WBfeZXo4gQQrPA/82/eDhsJReANq0H3HWP5FQ0Pjza/Fi9HSMKe26oUv/Q6/1MZELbaYlR77HatmruD0Xz5u/S7bm8ZtL5v2i0dsyk/utd5Hb4XwvXUbwZthssVoaM7c0erZdsmF7erXxlvfC3ZDiEGrTUOvcdr8sNhaVn+2aPJOgY8mM4Symnng1aQjFlaunn/vBwzb9G1wcm36OY/ZtHMepR1Zb6t9NAbN7UybsO/1uLUIPlEGOrfg7WJLls28/PtRcjvol+fJ/xirmyciwTsVs8/DXPDCHWjA77GszfdAwGzApWOGL/vz7HXsNiFtlU98wmJOvkhZLXOd17SvNmYv4XyvTptsyIMnWs7q5fb1mheyog3PPFU8fZh1zctfB4HGx/+Vfm8z6015HL/JVdTUCAKVDIdNabl9YapqFsKKpmEksx+zOuao+gKEvjp12JrO5RWWq63484FWuB0CsAswKTP8xdPCkQsYnxf9srn8+fxen6tby4JTjXPRSmZlhXUVQkdASlCc/IN/4D6BKRHJjqEEK1KHYeL4nXjgjZR1NI5br2WD/kHZQPifuNdNNv/pD7kfAYgw+l28r/X55Y6WYAjzxGPvZFE3H/LrwltHdjT5dn5zbOZFh1kO8l1HmkQt6gffCYFV4VubpiqEuUf+CKu/WvEO34MJLeSo+mp940o69ukKPrpoxBu/YH95tvriefp2WyPeOYPOFIZSI0zPu/d9m33NK6F8ZYUmQlSmGM0xpMx6n7hVsn69Yh+bcszdNgRBuM+vdrKJP7jZcgdVhHnckw64NayczwNfyLjOO5dFzVx4b5zPkHfXqnu5XZqJqDzHzxkK3u/sPaz83P9jqPqfqfM3t0q2ZfTOUjeu9fY1EHzIeenRm4bt0Bpr5vMuFSBMz7EJe14XtPm9Dt/CBlx/SEjH+C3/ZDWfTiIdMCAtg+8/zor3Xdfq2Wlj8rlPkjQ6mSi/7X9/QrT6IwKrnIBXJY0udPPrQngH9ZUvU759zncYALNwc2iZwulsNye7qX254HYaekuZ2IwEbzxNol58DJ6rahzgUmav29x2BjlhCQUbjl0H60L0Y9gpWBfI6fsKmmheRfsGezu2GNva9OJkS+x/sf4qoEayK7DHYr/GRp9Ob0H4c13Q6hqHwfgXidaj/QzrYSzKuMD9OraDm0GLSo6ur1oCzNMb3i8I3TMveMaK9143bPviW3AV7b520E67Vi3LF1VDw9Y0v8aye5WGhpJv5dTW1H8xzb5a7QJ0MpWWU8wq6Qj1vY/Zgn1Zzw9zWqeceY/NvPp5y8opbPbqc3IH3Hy41X81y2o/+NbyNhtmM859Iuw53O8S+pdohDVMmW2TTvuHFW40ykrZ7mz6xU9ZHYtkeSPWhemCrZj7/RpCjn/1UiYIMWhRYuyTnLtWf1tz/mXkIad53nq4FYFo3KZXEdb0yFsn/KXjYd5U0tWRAlMKw2Ia4gmGmjbNhVtDETe3rdJWBkZW6i4vpTNnH7aouz/sI+wCy+ST77Ks3HxW0kfobohmZCfj96m8vqVLMAjWFEw6a6qs4T9fcSnBmgGjQ5mpeu/rUI6SVS06RbaZK9pjLZt184vc51V3ugla3KhWTjl5h1Xlox/Z1NMfCtplD8uHCvc+fivr/SPvh20xXjYLthgeFrKqnznLvtn5WivcdjW09qlpENwaBG7f9BUtaTJddaSYgfJlJWHrshLm9/ouAN4JMHHvv6H5/Ip3s5hnUsf+zYU2fcyTbE013fpftZ+twaJb833PegS6sJc3uwt0mKEMNcybbvGmNsBWdgLCUPLF5JNn0zBtXOikSPJd2QlqCd87ryYfc1cYVp7PiuK+haN3InqH5awrX7DKDz631d8dY74P/cRd/sLe2K715rOOYD7ksR9SR4+3+Sxc2Y/y4mXp24NutfovZlhO3zLqwVPCbg9zH37b+m+G3qcd43Vm0U5rBu20r6YfhG6fX05YSzKucc8b1t/6sEhbJWuBZK9dZn1+sUNypfQbXgsjPirf+ITO02/YLWNbRoYMsFkX/YuSS4cDdX3u8D5ha0fffs/3EfftIqed/gi7YcyzLO8447sS61dgk4643cp/ubOV/25XtqXcJpTdef94x6pf+Tqtnl9SeuUuAiLQcwgspsZfKggZCd6sNfmfMWb7Y5dcgy5VMnTTUhDwZ83XwD7FHov9DDsR62Y+9krsFtgNsC6ttNcCobOmeTW+yzneHPtvrIftaj1XKfm1Cdj2jD/v1bB7Y10Ib894WH6PjAikCDA0kMVrJu5+k1U+/z4ahvVp38Vt6i/upxFUHBpks/70EgL5emEhnLLTtkODxrzW717FyuR5iIKuYWxl8OtayQEXHhGG6s6/+10bd/UVLLI2gtWy+9DcY8ip/8t1YSJp4vl5hL+2TfvV41bAFlG+qE5jZQ1zMj+y/pd7cfbmGsOBiS0aKh5Dk+XnydeJIeMfTUsOb/QSjklUowWl46DvH/YIGr8mBA0fyjv9rMdDo9SFpPBmIRTU+8CkTmtckGywfmjwQ4JT+VvZyXUNWP1kGsRn79JuVLlrbM7ohQvNVt/Y7ITjqbk66HND7dnAYnmz7nzFhrKauQ/hTlBtDrjj+LCQX1g0C0Y+t9m3Zxo99jfJ2pYat2l2rY3bkr5JukOj7b3CFlzk0M+ToyFcrKimw+kThIONKWNRVdqYKoPReTtYiKNxVrXVjJ/Y7M9Da/x27kJdoa4JqZ80NwjkvU/+Lo+W8sn89FAmo6DTnnUjC68dyU4D/2KRtOogcHnngJu8NfuHeb4+B9YF/0ksVLjapPPDaBF3j7H+gYdfvNc6CHrlYeHBZF7ddWUb5igXl1n/MfdbTp33Q3eQQetf/dqDNuu6n7YbYcFW+7Gt1m8ZAj3Ymr5/GPekwW7Xz4q7mLC+v97div5vDTTCbPdFvVTDVILa/6LtZYpCxXUH28DSAoZbl4RpO0NZ7X7c5iyINq8+jB7yLRrHbXY522wly6KXpdoPvyV5MRv+wk+CADxh5+s4W7jDKMpDnA6rnDX6WY1rqBfQM1WaHDbeXmdq5Kfll7LK9AZfzLL4oPWDdTfvPHBb9+VM+3rDP4SOnoG306HK+1r10hehHvMXwdcwcGHaO8Dc+Px27yxwoX/6r+hwZbrE6PG/CSv0hxvInzPy99HXMvA1ETyvMiIgAiLQmgCtupgP/6Vl6I3DjAxhZGQSYzr2K5JRIruRJ9cyRwapxY7G/hW7UXSRX/+qu1poSWYwN9yFda30ndgbsW7+hHX/U/1kEcYF+h2wLtwv7qvk93kHgQvzMiIQhsxW/vN/aIKTw4W98Li4l9yaiBV3a6rDti+1zCX0hYFoO7H4T5XlDCpjMadSq2ORqNZFzofD5gzuHfY+9vmFsQI0gWhn5t/1nuWt3Y/7Z6RRb6qpZV/Yx2zuX99Acz0i6UYiXLj2sVouBA57+hTLpaEYhAiuDX/u1LCFWM2bE2ziYbwmKISqXvHGHcUbf72/v0UQumee94wVMW/dF8yq/2a29R2zu00e+w+be/87xBP0h7wsxLPYVyaZpFX3FxhoyLwSWdyLvSLTF8srYm7lRTD2/sCUgWvemt9BgPsxHSTszc72YvVovTvO0CEzp9K+3uhyJA2vxlqEJd8/PmxhFC7xXIvywmJUtR9MDmXI05hgLmqyO9pLt3cUULZ9JWb8+NoBvj5B3poDwrZk8+97j7mxmzG6YhM4vMmaAZuiud7CJux9Yygv7r95Yb5W2uMChqdXnHMAQ/RTn2+0qgUMP4+2XPJ0uPHhh74oVVYF6Ui+cMk53gjP7Rov0ydsYb7n9/RfPWKf5P3M+p+1O8Pkt7GpZz7MOKiEVVy2b5gmEvmfQdmvHz+TngoWY2Nf5kmH3m6Vz3wa0h/d02G/Ptzbhx90kPE6Y97DfJpbxRnLLbD89be3kv1Oox7a0hprEPzaTKPomOQ1WT67PfiDr3qFUQqsdNTIyt8F244MddzsP70cBMx6hmTXfTPDBl59qFVcsp9N+vGd4dy3+6p551sr2HR4MrkUGV+sbejjJzEveiBzva9lao03FRbVhGSkB/OuXbCvfOTD8BbF2bLOO0N9qkVkfKVx7/SzNiMVvJOq6s2x9ln2L8O7k7tmHxvx7i9ZtO8Vm/OX18LOEU1V/n4mzdzb3mLETo0Ne+Jkm3rqQ2z3N47ye4oN+fsP2SWhj83407+ogXNs4O1HkmTvlk2+A1NOujcsMufzuwew2vnY1dgnfKpr/juqFoxyoF8REIGuQOBws8kfMPzuvRYl5jIne1G15jIHJA8dQqAPsTyHddXUN9hNsUtr/EvirZIHsCVY74K/Getd2mVYD3tLbMtXkZM2xqWmW7E/xy6i9YZLi2n5MrZc01EPJZDUAC5cJFyQHfrkyWHF5HEbX2GDHzqWkupiRyPDC3dEq7ymfb3ZZc3UmhbU4FZnE4++OWhEfKGcvOFDwjzaCubyJZiP+9ngX6NlaSmiHveca19NNvKaQ0odcJvPgZz9x38zfBYtZmvBBAG8cTrzVmm2eTq9kVi41RphS6a89QYG7cn0y5600QdtQKdClk05436rHzsDIeRo6/PeLmEhtqp3x9I16n2knd1QRXgt0RETxphjWfu/V5mv+WQzlLw1vsOCZuexENL6IR2JmqS2lTHezfd0zAErhLN4WXrjO27Tz36iJXpWjh76GHO81+gbVhWnIDa7xZjY5tq+3LUqLHtQSVhM0BeEGj3hd+G6C8hTjr/H5j7wNprlqjDUd849rzDsfG3mjPeljHlHQzbDZcttwA1U00yD6DdmLxt/MAtbsTBbwdYjWPEcRmkmYQueH5t2xTsJJp3xkM1/8j0eq6ePLZjWGsG+xwgzkWGtg8h4B5cbn9PuPV/sKh4E/8aplexZ/VooGuXM8XUtZGQqH/zQar4YT8gI3nZUGL3ic7/T2UV3r+zflnSt9JjyCmzBM7cwkueL5qgKtkTDfehZaJCHhmtNVXB0VXEg13xbhxx4d9+EA6+37NJeNvCvh1ne7oPs67UuscIdV6fuOpj58M8jyP4svOtz/vqajd+aBdbocIpGX8y95c30dPJIi3ZZIwjdE3b+S1j93rXdoXOpnakiDfS5l/10u7A2wpy//YfUUH/S2vS55UGw9X5ITD5TIcyXQPa532kmYYOuP9Kyh/dCWGchtMGllMUs1u7Yxsp+srXVfTUz1K2u7XZTsOVwRk/lW9Gea1nOZb2pg2dyleYO74BP8Zl976u8AXk24G+H8Uha4pr79zep7mstO78kCN4hsFXwvJLx6q8IiEBnJ0Dt4R+4VOMks9RmJHjfi5CGlLZmbxbOYqJwR6ojMstl9/DlX4s/YsuxPrbNH35r4y17F6yXZI7gBh8zNgr7PPYgrBvXfnvLy79YNdiWrxMnqXO/5lpsjwsVyGKfvaflAGwrdRZnMiKQIuB6h9z1KsLCNy5MzBjzT1YH/ypo8vLYu7VgnRGhQeV7zyYqXRBKmv6X78ciThQrGlD+z9+EREMDmje29Ln3vbBi74BLDkquOh15Cr9efNsU69RpGDbMcaPPc2x9C2F7gy9nSD+2t8q3imsODPN+vWH37f5/s7mP/JcmpfdH+Y3+P5v55S9Y7efTEZoOYTEjthx65jObevy9rCY8Ny01PfoELeHce38PMMYujN7YSvc9jWfNXNI6qh7XcLdqHHcWTi5QRyZUvqnTMJqhlZvvjz3wqsPCYlA+osNXRfe9wGvQjNd8MMGqnvqcobFzKDENNvvPL4fVo/v9Yu+wivrMS14gioRllRbasFd9aGzCppx0j/W/bH8b/fa5bKP3L5t70xsoWUlB2w4ShJnC767OGgZo4HH2NRSGPHhcCCOZbsQx31fet3UKGaAH9ohNLPawrxSdFYbw+n01H05K3p76mz2qzAZeiYDDY8lmdegGRnVEpg8LXzVOdkE9aZLBtnCKrne3X98+bO69F8Etny0Kt7bSA3+BhnsrmFfCdmk+wyuRCEKsLwRYypx7Hw3U8O08m/azR61h+rzmFbt9YTLfd73Pz3a0PmfsYOVn72rTf/Gozb3zbWua5Z/sNs+QYjPv7++w6N80NNFfhTovdy1GB+Uxq3r9QWHEUJQj76Dsc9hWVnzAejb1xw/Q+VTMwm6sir/DGmGl/CreBQIIxldONx/N0SY6Hy+Su05/RpQwZ5v52A2T5rFrRT+m8Hxhc+94By123/B+1H0y1eZc/3pYY2DALYeFfcrrvp6eSgqB8o7k820ZfOn3iIPOJOry8O6k7qi48qAwIsX3MQ+mTTpSt+lHBERABFYYgYwEb5qZO2LvH++d3KjdV1hqFNDiCNyG4w+w3ra5tNUxh8GU8HdO6ri9H28NDMD6sHVXl7iQzWgJ2xjrksMV2P9hv8W6erGlNcUJxlUmrh33Mb8umD+IbVGXcNLK+OfLO2TcyohACwFKhjd+wmJka/S3ke/9PGibJx32d1bZfYf7stgL+RPr9cMtrPhAL6bsVznmmdA4ijRtvgVMWIm8PeGMhpbLIwWbDbdEag9XHxLaLGnw+vi2TmH+N/5d0+0CSt5GA1m194QQX3t/Jh91F3v2fhyGW0454V6bd9+7lvAFpnglfPuoeAl9UeTLja9QveCfn9rXG1zCftRbWumhG1ojWnqZFAGeR/1Yqh60xP3OfZRG9IZAY9sqF1rctPdcky4d/BdBFQ1devlpSUKcoeZZbD3kQoJXeJHxaRAzzn3aZrPNXN2k6cz/Z6TEfBYtC8PF/V4vj95llG0zzmcbvHUGhMXcvEzPvfWNUH58Ianswb1s/Hf/GBa5WvD059b3/D0QMPZn2HBxOxrCKHYWAlnzEmusrgrDymdf+4pV/5vOLEYY+IuRs2Y/63fRnmFVdRdayn/DwlLYyFTRSVT14pchfX7Np3D4vuW+bV6M9PsWYmEbNfLsJp+Fqxp9lEjKRPPZo/Nu+csK8FUvPIDAub2VHvAz5vqPCmW2qYpOu85gWNp94C2Hh9EUk753hy14+iOe3xAb9enZDNFmD3rKmc999ikFk4+7k90gCq38FztZ/6sPYO70DKt8+mPKZrIu81X4g0GY97qy5s1vQvlMxNgakr3mfTtHN/Pv+S9/k2Uiq3eBVTBs27enm3nDv2zI7T+00u97M4OpOizsNv+hDxjd5E1HGo9Hk74XP6ezLW6rT7ugebqEvyPf7PoXrvN20cmUM7KXjf7iHKt5d6LNv/NdWzNxJVvnjbeJ+99s9VNnhfngfcfsapUP/a95SzFPT5y1B7xTNW8jyi+dTt7BFKZvhG8CVTbfEp/T7eXcTWtteLigPyIgAiKwgglkJHhTvYY+XWYvyXQMgeuJ5nDsTOws7D7Yf2GvxvoX0p/jSOwnWDfesnPb2vi5C81vY+/Bvox9HMvXzS7GeuvLx8i59PEM9gJsa5PDiQves7H9sK7xXpIZzA0Tsckv8pLulnu3J5BojNvMi59PNvzRCk9FyzIfDUbDzHk09hCIKSpTTrjHpp35OEO3GZ6Idq5x9vwgpNRPnGPT2fJlxgVPM7SjlmutxZ10dC4M+b7g5Wftwaq63iBOvg5h26w/PBP24/YF3LxraNzmV4Vh4ukhtJy5HNjkQ48ZUjl21Hk4uPDkGpIoTASo3z4ZGrqMQA4mDK2c12CzrvlXsOnbRSXv6bl/odNnEIu5PUxjngfgtqllRENn4eLPbO7NaJfZgzgaghulzbXfs699OQgybcuhP3svq3UTZ1NOomrY71q4vLqQPunwWxAYNgmrg9ePm8VdWQjuT1ntp1Ot5vVvwnkDi/N9e8zNhMZe2Sw4aGHhQEKkwHmRC30VfoD1ObSxwiybduqDYRGpugkzCMPTgSa9pIR3b7Y1sQjZ1+tfHuaohwA8Y/htmI9WNJRtT21OWLyqFgF91m0v+h3W+8AtU5Gx1/iZjzHn9mWrr/Z3l63FfrEX0wcmh/u69R/Xom68q5WwDkGzhtvZdxZTG6Pz5WJrWOD1JoImz9HXyJjNApZeUFw4TRoEUQ6aZtXZ1LMftlnM+26cOjf4cfdQjlnEbMqP7mOUg++P7U2NpIklcmzysXeHqRRNdCrVfjKZcuPNA15nBPqJe/6VOn2BZSXybNppD7LV11to3ucymuJbwmH4Nyvhjx3OzhRTF4T1P7iYPJ/hrcrUe8KaAm68JDZOqbappzxk1a+Oo6Q12ji25qt57xtcfQHMfJtx3pM2j/3E676Oyrq75IXpRT6qZN5z3uyJW98f7cL0lm/DfPfprPkx/fKnQ3g+askXo2ua5wP6ZERABESgfQIMDa4YYPYlrcoj909O+23/xsVczUjwXkx4clo5BPYj2N2wR2MLsRdiT8ZOwX6ERQUSthSbwe86WLqQg3abn2YTNQ3ObL5ith3H+2IpS0HbvS2/v8a6cUG7tfE4+mBdq+7h+3BzD9M14y6F+Lkb16z7l9Otp280VsPNgSBDoWARnbm3vQkKb9blhcagH3njMFmcnBL78s5q6dbzhpob37PVtyMLwkcocuHyYv/Muvg5wvbGZ6oxh2/fB7b67aRAEzwzlNGHMy7KRM0/T3MynW3vjDP80Rt27h4JWsl7kkJM2/t7+DmLuGX17g/zqJEbPZvOxcXLnWvnFvXc5zGtwU1rgSRcSF1tKXMtVxc+8k6cbBZX83nY/i8Sbli46853Wp27i1f9CNp1dFK4DWfhJ1TEySP/ixiMln022y55eWxdBpvmV4eyGuLx0R5za1q8cRQJT8lQsprfleywLAiV/YPOI5nnmZc+H9KXHT4/9AqzGnoy/Z3zeYaEr4g/dMBllVUwrJmmVyc1TQsYhdP8SabunFJJh+dzqdR6fRuVM7/knZR5CMH+KW99HYF31gKbc8Or3L9wU7GBzqV6OnHctA7Pj6vYjitZCuKEUYUW/ZNwV3M4rC6enLKQqi+pZJPn7mvh8pNYUB86upLvSA5C94RWcSbfodZCdzJNOexa4fG6ZqJX+J19/Wv8eih0AF/OlpOtdsyYedGzXF84n8Gj/oiACIgABOhe9PFjxdRSbWWkpeaTUS1DbJU0U78mAZ1PTbHUWe9SN/o4LRdiT8D6M/NxXSdi3WyC3R7bFzsSezo2cuOwXXMWV/fE+nDxZ7FDsGth67CLMn6PG/96r4f1r2N/7MvY67BXYj1tLsz7124aFlXWYsPEWaanEWjbSGs//ws3vpINpmWrstprSLUVjttr6LWfpkVfbZ2nRd8ll2YCPh+gC5jFPdfFuS1r1toLq71ry1JWF+W/5Xp771h6ytu+Ky1+PSXp72Lb8/SQutnZqp7HvUScbZ+tC5vpz2vhINr68TsW5y8pBi8cjvtq3QHp97UW6CMfre/xa23Po/uSv63DSA8/cl/Yf9v70sNI57FkPunp0ZkIiEDPI+AqIdcuLlpVs2Qm6TXPku8Pd+ydFNZWp5penriXMjbdBgEXut0sqrX6Z9z+ifX9PSLheW2OGRdod2AjE31ZXXh2LbQL3xekjt/i927snVgXmNsa17i7ise7+aOu/j9y7Gn7LdYnaPqXz9PxDXZnrIwIiIAIiIAIiIAIiIAIiIAIdGkCCM2xInLA+KCM5GfP/MJdhEuBBOnN13CV0L0UrFbyLf78H8a6BvoXWD+PhPPNOL4RW4F140K3d9R4YfkA6/PDd8WWYo/DMoAhaK0j4TwKh8vBHMVfF8oj45p1F9x3xDZgfSxXGfYw7E5Yn0cuIwIiIAIiIAIiIAIiIAIiIAJdmsDhKBvRTFYgSD2SaUYyltgzjVD+lptAJBAfTEjnYdfBurD7Kdbd9sCegv0e1idgTcfmYl0j7cKwj5SIhGsOgx/XkntZmIN9HevGhXgX1N0cix2EfdJPMJdjf471sF0Y74t1oduFb4/nS+yh2I+x52OjNHMoIwIiIAIiIAIiIAIiIAIiIAJdhwDCk8tFPpU2Y5OR4H0vgtwQJpc/g6A2pkU4yzgR8rjUBHwIuGumfVL/Ndi52I2w72Pd3Ix1bfMfsK6FPhfrQ8pd8Hbh93nsJGxrwZvThYzHs2GrqzUc/xvrwr2bz7E+LN1XWZ+A/SplJ/I7C+v+L8IyK6E5LRzKiIAIiIAIiIAIiIAIiIAIiEDPI5CR4I2nvVGR3j/abDDIJvc8bKssx78l5iysC7bbYr/FugY7Ms9y4JrpONYFbRe+3SzA7oCNBHQOl2ge545vUnfdxa8PafeeHjd/Tdlwsog/v+H677FRGhZxmy6LgAiIwOIJLKmncPG+5drdCah8dPcnrPyJgAiIQPcg4AJaRgapTt+6jMgtlyfXKI//f/bOA8CK6urjZxtL7yqIInZE7L2goNgrFsSuid0vxpamJjFqjDHGRI0lJsbesfeCoGLF3hBB6Qgive8uu9/vP/MGHusru7Ps7tu358DdmTd3bvvPLefcc+69iRjGck0WuqOItfZegnmywCuBuTZCt+LSMWU6XySiJdFNDa9KUwK/UwMhwEldAYUn+zZQop5MXiCgA4VyeUVIZaFOivYVK3lR2VZzIVQvVD9yl5TD2KxW7hbLc7YaEAj7tEodUOTkCDgCOY/APZzmhOnwlCfCZb2x8uujQSzYPJAjkHsILOjYiemwStYWaHWBkyOQHQGd8ryM+bs5XTpbeUmJFeTgMV9VBQU2o8c6zCSmmmfMXkZ/I78RUL1Q/VA9yTVSe1K7UvtSO1N7c3IEIgQ0JVNlS+2HtWWo6OQIOAK5jgCbXxWxdrcH+WwdN6+xRgGGt0rUma5+iIu6h3ME6gGBqb16WUVxKTvkaZm9kyNQMwTmsUfiFzvsZBUICLlKH+7eD/Z0DkdpyKDHyREIEVB9UL1Q/chVUrtS+1I7c3IEkhFYYkuYUFxqn+y8E3Pm0Uq+5Df83hFwBHIJAU3/y5wYATi2DBxL8MZm+Wm2ry490dd351J98Lw0cwTmdepkIwcewCHr4znMvcy1K828PmQrfhHbRUzm3yy2a3z9gAOt5ZLaribJlsLq8S9Ztsw+3mUXm7RmD2r2d16vVw+sTT4WaY9VH1QvVD9UT3KR1K7UvtTO1N7U7pyaNwIFiZWakzgA5rPNt7fxvTezouU+qdi8a4WXvikgwB5nBVJ1o4DmNh7FErwvR+O9fbiOOF6qHsoRcARWOwIlZWX21PEn2Fcb97HR9jkL9BcEQko0yK/2BD3CJomABBb9m2xT0BWOt1cGHWPzOnfOSTNzASwDYpkRDz31DFtQMNPG8k+kMjg1PwSi7656oPqgeqH6oXqSiyRzc7UvtTO1N7W7sAV6/c3F71XfedK3L0dn9hXb6MxuU2CPnHaGtViqg2OcHAFHINcRGMNRYmi9N6P3fiFuXmNL7HET9HCOgCNQfwgUV1TYfy/6jZ148w1W8PnHHKzeyVrhioMT6OovXY+5aSCgFYXlmDcu4BjKH0sL7YWjT7fXDjnUSnOc8ZPwMnqbre2/5//Wjrrz31Y+931rb2tyTmIbF8CbRtVbLbms5GCNMvbsnE/9nd6xPUL3b4N60SJHtd1RoWVG/PKgQSwFKrIDHn3AFi2bZu2ovyX0zrk7ZRDl3q+rC4HKYGnE/GDZweS117H7zj7PZq+5phUxbjs5Ao5A7iNweWhpHh2tHCvDLnjHgs0DOQK5i8DSVq3s1t9capt+8YXt/fRT1vPbcdZymW9MlbtfrOFypt2V53bqwprTfRC4D7P5HTvmvNAdoSPh6qtttrFr+txg/V5+ybZ/8w3rMn0ihrtuohlhlO/X5XztWd262Qf9htib++5nZaWllutCd/RNNLk1cr/97bOddra9nnnK+o76wDrOmY7g7Wt7I4zy/VrOtkzaCPCtfY6yUf32sKrCQhe68/2je/kcgWoIxBK82Ub98I5mj7JVyLqDzaZXi9N/OgKOQCMjUMx6sTFbbmlfbruttVrMbrq+cUsjf5HcSL4KNr+8RQkCS0sE7iVNrl5I8y1h6/mjB9tLg46wUoRxPXNqHgjIpHwZ3395cXEwYdTUvr003/OY7Hro9LOsxUlLraSsnBbp9bd51N5wyYwmxlWPNRHT1Opvc/lOXk5HoD4RiCV4Y9uuUzOL2cokV5dV1SdmHrcj0CQQKC4vNzkN8suLfEOfJvHRGiCT2sSn1eJFDZBS/SQhZjXaCK4SjZFT80KghD5NrqmSJkGj9ldZ5PW3qX7HuPluKhYaccvn4RyBfEbgcbMu7cxeXGj2q0FmI+KUNVavL8M+n6ONA7eHcQQcAUfAEXAEHAFHwBFwBBwBR8ARaEoIIPu2aGW2PVrnrnHzHUvwRndW1JIUY58eHje3Hs4RcAQcAUfAEXAEHAFHwBFwBBwBR8ARaEAEtFuS7K3YmSP25hyxTM0xMX+8xKzNEcb2uE6OgCPgCDgCjoAj4Ag4Ao6AI+AIOAKOQJ4iIIUz8i/b1Op/PIoleLOhmqzNfZvkeJh7KEfAEXAEHAFHwBFwBBwBR8ARcAQcgSaCAGbms9E4H1xm9mHcLMcSvOMm5uEcAUfAEXAEHAFHwBFwBBwBR8ARcAQcgaaEwIFmGH3bc3XJc2xVeV0S9bCOQN4h4Pv7590n9QI5Ao6AI+AIOAKOQI4g4Ls658iH8GzUBYFYgveTZocMM1v4lNladUncwzoCeYFAoZZeFJQtr6jIi+J4IRwBR8ARcAQcAUfAEcgJBDgStUr8VYE13XMwcwJIz0QuIBBL8Ea5V4KNehuaQazwuVBwz4MjsPoQWL7MCgrmVSxh5QcDhJMj4Ag4Ao6AI+AIOAKOQN0RKICvKlss/qpwQt1j8xgcgfgIPGLWAcXzPU+YbRc3lliCs3ZW0z7qvrtaXNg9XF4hUGwLKc/0JfPm5VWxvDCOgCPgCDgCjoAj4Ag0JgJVVVW2bN58slDwcWPmw9N2BDhOu3Wp2Ymo2NaPi0YswZsEi9uQIlpvV+/FRd7D5Q8C/xi8xKqWv71s0VKrdHPz/PmuXhJHwBFwBBwBR8ARaFQEZE1YtmTJcqtc/lqjZsQTb/YIrI5zvGMJ3kj7TyF0rzkGLV+z/woOgCMQIvCfyspKWzpfs7JOjoAj4Ag4Ao6AI+AIOAJ1RWDhDzOJomqhFRW9Ude4PLwjUFcEJDijdY6teI4leGs79W3NZl4eWpzXtQwe3hFo+gjcdMSnVr7kofnTGSB8nXfT/55eAkfAEXAEHAFHwBFoNAS0tnt5ebktXsj67qqKf9oNh81otMx4wo4ACKxpNr/c7BI22P88LiB+jndc5DycI1AdgQUV51UULBw4d/z4rp022MCq0IA7OQKOgCPgCDgCjoAj4AjUEgEE79nfjbfKxQtH241HXl7L0P66I7DaEdjPgp31/1KXiGNpvOuSoId1BPIWgTsHo+6uvGDR/MU2f+pUKyhiGwYnR8ARcAQcAUfAEXAEHIGaI4DQPWvct1a2cCEKxqoTax7Q33QEchuBWII353fvzw4Hk+8JtO65XUDPnSPQoAjcMOg+dgG5YP70H2zO+PFudt6g4HtijoAj4Ag4Ao6AI9DUEfhx7FhbMn+B2fLKI+zGQR829fJ4/h2BCIFYgjcGtG1KzNZhZ3NX6UVI+tURiBC4adA/rbL8lEUzf1z4w5hxtnTunMCnoLCQYyhjNbkoZr86Ao6AI+AIOAKOgCOQNwhEvJGW5y368UebPnosx4ctmGAVZf3t5iOezZuCekGaPAIonNugeL4ABfRGcQsTa403i8qrKkjRz/GOC7uHy3sEbjzibjv38WfLF857eNbiRXsXFk6xNl06W8uOHa24tNQKi2l6nE3p5Ag4Ao6AI+AIOAKOQHNDoApz8io2TyvnuLDFc+bYkrnz2BunqpI/d9jS6efa7WdiZu7kCOQOAiic28O9X48CehK5GhcnZ7EEb9TcRa1IjcCxt1OPk1kP4wg0KQRuPmIW+R1o5z/Rv7K86pgF38/YbcH0Gb2ssLCdFZV442lSH9Mz6wg4Ao6AI+AIOAKrC4EqQ/lQoSXcVbNx31phFcrEogfYvfyz1ZWGx+MIrE4EpHBejpMCOm68sQRvVl28xFnefbuZ/RA3YQ/nCDQbBP45aARt9HU74/ZiK123lRVUdrWyZS1jt9pmA5wX1BFwBBwBR8ARcATyFoGiqsVWWD7DOqxRbpcPkDGtkyOQ0wjUVeMcS/A+gXPMQOXLnEbGM+cI5BQCBVV2u8lsSk7tx8kRcAQcAUfAEXAEHAFHwBFwBJoAAm3NljA79CjC95S42Y0leMdNzMM5Ao6AI+AIOAKOgCPgCDgCjoAj4Ag4Ak0JgUFmc7FWPQbBO7bRqm+x3JS+uOfVEXAEHAFHwBFwBBwBR8ARcAQcAUegwRGoi9CtzMYSvB832/NVs3fuNuvS4CX2BB0BR8ARcAQcAUfAEXAEHAFHwBFwBByBJoRALMGbQGu0NNsZW/cWTaisnlVHwBFwBByBZoLAnWYtnzHbvZkUt96K+ZzZ9hyk26/eEvCIHQFHwBFwBByBJoDAI8i9r5j1h7foGje7sQRvzi+r1A5Rfo53XNg9nCPgCDgCjkB9IfCUWbs1zYa1M3uTAfIhBktOwXSKgwDA3Ytp3bA4YT2MI+AIOAKOgCOQLwgwHnZB4zycDdb2jFumWII3K8oLS0ixddxUPZwj4Ag4Ao6AI1APCLAUait2DR3HGNV9rtmlDJIHM1YN5zmyuFM2BJ6GoUDDfVH03jKz25hsd3IEHAFHwBFoQggUIuEVJ22hXf13uqIUIV3KVacCZmCLea5rcyUpnDUeIgfzPx7FErz5jm8zGB/BmUhz4iXroRwBR8ARcAQcgdWLAML1WSyBGkWs7y0y2/Zws6uXmm3N7+7tzT57zGyP1Zti/sUGT7UfHMVVUcm4Z3LfyRFwBBwBRyDXEWjDLHMJs86lpZx5xQzqVTeEgnILng0byYzqlWbLytKXQkL1/U+Y3XovGtZqwvfEKWbHnmf2wWfpwzcHn7rOO8QSvA8zm7a32ROnmsHTODkCjoAj4Ag4Ao2HAKbkLeAx/tQRfmGJ2Z0HmR2qYz+UI8arcW3MtmCm+rMOZq9jhn5y4+W0SaS8nFwms2Ziv5hvd3IEHAFHwBHIVQQkcP/812bPv2bWnkHvoy/NXn2L3DJ7Km33wwySI5mW1nv6HWm2kzXYhUiVT7F79kMMlLqPSLc9upt9/rXZXY+Gmu9kv+g+36/MZ1Sg8f4a+NA9xyMfTOPh5qEcAUfAEXAEcgABhO7OreAVyMrWjIT7oOWGbViVBoSTxPu+aHYuPMdd8B/9DzY7ddW3/JcQgKkohcnCcCAk8HoRSfz46LdfHQFHwBFwBHILAWTrQFCWNnqHLblnulRm4ZHJ+PyFZh9+zkCIufI5l67MexUBTzzCbMAu4TNpxluze3YrBtWOmIk9waD5l5vNljMwKL7FzGw/wwg7dnxoct2StVxb9zG78mLke2Uiz2mw2UyK2YcxMnZpXfDO80rixXMEHAFHIF8ReJ4BEH5gGANZN1S0FfAFQ9lMrZgRsRhzrDYMkst5Z0Pe+QRXyDuwDXiYncJ723B70CFmU/MVn5jlGkk42K+QDjL7hjs5J0fAEXAEHIEcRqAIVay02clioTTan48x+3GO2Tporb+diNDMgChBeTluHjPWCvP2h2YzfjT7fgbmYgvMnnwJKXMW708yO2EQYZiB3YlRMxKwJYgPf4fB9avQnF1xJmvPcximOmWtLkK3Eo4leKNa2AbG5RyYmIsOrIO6vU4l98COgCPgCDgCzRYBNN2t4Bm2w13FImQdtFEg4Rr+YX0m63+F4B0QvEIhE/htF5udz4MyeIXlrP/WNuclDKDoBlzwDoBK/ME0/2lu5ZwcAUfAEXAEmjACEpI7oLm++W5mp7uavY8AN+pTs76bsj4LbbX8JTCXM4g+gaD94giz2fMoMM+vuBFt+CB2Je1C+KtYy/UP1mz1Ntugp9lfbzW7/veEY4B964MmDFAjZD2W4M332RA799P4Nn8gz8yVODkCjoAj4Ag4Ag2HANpsaa/vrZ7iE6Ew/qvqzz+Gd7jcNwqrDov/dgQcAUfAEchTBFoirN0z1OyVNxksEZynzzQbdIbZ0Qeb/e0SZqERnEUSwK/9ndk/EKaP+b/wvXefNBuBRvvUo0PN9lU3md2CAC7T8uHvmh33CzZMwW8tBHqCNwttN+UsHMFcxASMAk6Nuc+ZDBJqTWgJKhG+/RzvWiPnARwBR8ARcATqEwFpssUEVCd4hRXm09X9/Hd6BDDV3+0peLL0b7iPI+AIOAKOQC4iIIFa67OPPNBsr93M1uhs9rtzwp3L3/mIQTFJ/VqG3dhSTJkrCVOAkyZ8x63NDtyLTT4QsvvvzHFWB4Rrv1+4E835Z2Yff2H2x18iePNuc6DHmWdAcP4eGEE0HsUSvJVU7IDx8umhHAFHwBFwBByBrAjI5twpPgLPYU3I+vejohjgw7ZjvP+JBUHk71dHwBFwBByBxkcAWTk4t1u7keteTkeHHc1GHTf/KRSkK9BwX3xmuFb7d9eEx44l55ygwSZtC7En+8Ufw/XbB50Shr2ROMoZYCWgr7cOa7wYFW7B5mwos7PBuvLkiPL0niVrwTneCUOBWKVMmuuoVfjR4H4FFgwsv3dyBBwBR8ARcAQcgXxAAMXFCTBsF1GWgD+AEZMuw+cz8uHjehkcAUcgLxGQwCyh+FHWXkurLRPyfXbnCLC1EK61lhv/FnqJG2my77qOdVeYLi+JNkPBa8r3Zm+8z1lZ35pNnhaGu+h0s9OPMzt8X44P6RgK3bwapHXowFBI78u6b8XZXEgw1oViCd5HmI0mUeZCnBwBR8ARcAQcgdxBAFNz8RhO8REog7FYVC14XXmNatH5T0fAEXAEHIHViYDMymfNMTtJ24jSY2uH82KkvKde4Td+wY7jPA/MwrlK8H6QddtrdAnvdQb41+MQonm3zyZm72BX/f6nrDNCmJcT6Xgyabcl5CsNmaR//CWbrbE+vDkI3yicq5jTUOljK71jCd4C36nGCHTnzSG4dNb5S/C7HUcTSEtsdWB875TEXJbdiKvOKCW//DN+MAeWkiHVukeMRTLu7Ku1DJvjUs1p0fSMbRZsJC4dbYTHoTi9m4roKuwuXKr49b7q6bmJq35XJ/mzbYRhVJOWzsanDY5u4ickbG/Dzf6Jz8oHR3PbC5cqj/q26to+waUjVsrY3uk8eT4F9wguVf4UTHk/E5cOQz0XBpk6g/PwV31JlYYwuAGXqR6djP8aacLTHdtjOOZK09Lu+LBKKGX6CvQ1DqOltP5K+yRcOtL3/xcuVfmiMBdwk64tqi38HadONR3pG7TDpUpDGNyDm45LR6yQCtpSqvAK8wHudd2koV48PzKNnx7Px/0ng7/yKAzSpS//v2Xwx8sy1SO1RQ3Rykc6GoxHT1y6PLyG38fpAvN8Cxzz76mJznC936T2ip6y6bmpT03VlvWO8nW9bjKQNMLpSBiqLS1L9wLPT8GxJU1KDNSWn8KNxaWjXfDYNY2nwn+DezqNvx7DapnGhZ9g8JHZLkSe/G30LVLhAZuWtr9RG0Onsko8/FyFMvXJKsP9uO9XCbHqD9UB1YV0pHyrLqWjdfHQ2PwTDHim9OfhMrUl9RcX4tKN3TWpR2KRVV9SkfJwOy5TW1Jf0AuXjl7HQ31KOtocD/VJyd87elfpC399h3TUFg+1pVR9psKrT6ZJpiXVE7WlVN8gCnQTN4onFSmNk3BqS+noOTw0tqSjnfDoh0uHAaKIPZkuMM+V9mm4dBgsxO82XDrSmKx6lCq8wmhM/6du0pAwPAMnHiEVqVziLcRjpKOBeGyVxlMYf4J7NY2/HvfEHYtL1RYUfhbuTlw6Ut5/iUvXZ+r7qx6kI407qofp2pLq19242bhUpDweitsolSfP5P8m7r00/jnzeCEcnI4OG3wQu5ivyWB8n9me1PAtNjV79rXweLBjDgGIuWjHaRlLQFwCuYT0P5zPh+zOld5+xszQTL07cVx7SShsl5YyML1k9tEXZpf9gkZLzZKwvz49qa7NgWBeplPUUlWIuFSXsHHTXH3h1nn1Bitte5713SSsOasv5lVjUq2cNg3RdPp8W1bQw2YOUEdaU9qFF1/HaZBORVRv64VbnMoz8UwMQPsM/mvjl4lBGYt/ug5F0WrQGambNPQAz49N46fHV+MuzeA/CL+hOA0QqWgMD8VApRt4WuJHN5F28gEv64DLxKD8gL8Et3TUB4/R6Tx5PhzXP4O/Ov2bM/ifi58GjnRtTp36AJwG2VTUjYdTcOkGFoURTst0k4bokq11Gj89zlaPvuQd4ZSODsdDAkM6+gsev03nyfNHccfg0nXhW+L3CS4dhmpDbTOExyvAN109lL/CC6d0JKF6rXSePN8RNyqDv5jY4zL4M+QFjGi6V8QkP5/Ok+eqIwyDaYmh05am9Q09VMfEqKSjJXiorqWj9fGYkM6T56/j9sjgz/AfCK7pXjkdj9vTeTIaBA2NTrN4MN/7GbONyew3c6j7/Fbe18TNSBc+8TxdHYuCpaujkX9HbtRvpyP1ecpqOjoKj8fSefL8CtzvM/g/jd9hGfzVjtWef0L9ecLHmUcCKkM6Ej6Z6ojCZatHs3ins15MQ7vw/N00fnp8J+4U3aShm3mufjkd7Y1HJmEiW1tSX7EgXeSJ59nqkQQV4ZSO1sdjQjpPnr+M2yeD/2/wuzaD/8n43ZXB/2P8ts3grzFjagZ/9TWtMvgX45du3I+CZRrbhS9iQNpxSe30eNyDuHR0GR5XpvPk+bO4QzL4i3f5LIO/eDz1OemoHR7z03nyXPi0yOAvDFVX041Laqd74V7HpaNb8Dg7nSfPb8viPxD/VzKEH4tfpv6uG/7fZwgvnls4pSPVsdm4dOOS2pm+09e4VCSe4HFcpj5T/e1VqQJne/YEfSkZm7MuJehUmu3tGvhTq0efAkO9ldmmvemIk3pibXZ26GnMEgzl3OfNEYp3g0GnFzj5SDrLi0Lt9DBag87m7scz7VzeswcDZYLzlAB+4oUMkD/wQR8INeHR2dxtWjMrT0149HlM0h8hTFK6yYK33l8GJ/rxx+ThVj7KjzUoU5ZX1JC/4QsvrLQbDw0nabKEyF3v4jhZe5pv2cZsv8Vodw7JLDDGiT7fwmhgKMlQqEyDUhQsXWcS+We7Zuq0FVadTibKVk8ylU/xCoNMadSkfHXtrrKFVx4zUbYyZmKeFK/KnymNmuQvWxqZ8i+/bGlkC1/f9Shb+YRfJgyz5U/ly1QP5Z8pfvlnSyNb/NnKmM0/W/zZ6qnKUFfKhkE2DLP1J3XFIFv5suUvW/ia+GdLI9t3yvads2GUDeO0+RtB6XCwWHWmtGkkYq7vepQNg2wYZ/tGdQaICLJ9x2wYZstjtvizYZANw2z5y/aNVweGmTBQ/rJhkM0/U/zKf31jkC195SETH6lvXNc8ZqsH2epRTcqgcqSjbDyi5LJM7yj/2TDIxh9lqyfp8t5gz7VDuUzBRdpgLdpkLbqPEFjxm/cUppgwErwFoigZqBZ8uUjw1r3MzPVb99qoLfLThmvJwncYk/9NhUC2xpQqjFRG24L5rWWhdgv52ykDAh/ht2kGf80zLcngLy/mrdIKDOrwNKOaifrjqQEwalfJ7yr8xOQHKe5/ybPf41KF1+vMQ2UkzcpnwoCqlNJEKYpUWtxNcMn9QeSnq8qgGdFMtB2eei8V6fl3qTySnh3LvZjRVBgoXzOS3k11ey8PX0rlkXimOqC6kI5+wCMThsqDcMxEm+GZDkN110ojE+2DpwandBhMzRQYv7/i/pPhnQX4pYo7CqLZ6kwYKGym8IonU3hhkEnbrfA74PReKlI9mpDKI+mZtLl/SPpd/XZO9QfVfo/gd6YyaGY/E6mO9Malw0n1I51fFK/Cp6tHej4lejHNdQjPMzGK2erhQ4QfnibuqoOYZMfv4TT+ejwLlwmDDEFXeGX6BqoHmTRYimRvHMNoShKG01L6rHz4D27vXvnzJ3fZ6vFYQmTCIEmX8ZO49UB1RP1JuvdUhnR+eAW0NX/TtSWFnxi+lvbvr/C5Mq1vaCWVwdvewjMTBtnaknifbBhkSl9+mcY1YZCtLZ3IOxqX0lE2XdNjBHwbl6rNK/2l6SJOPJ/BNRMGqeJNjlJjXqZvoHczje2Kf19cC72Yhr5P8zx6fBM3D0YcLZ2LAABAAElEQVQ/ql2FQab09foYXCYMMo3rCq+2mil8NgxVT7fFpWtLeNlk/clAl+J3bRp/YTA3jV/0eCQ36cqg8Nl4E9XTPrh0WGXrS7LxiERtE/QnDSn+n+PapvHXY40buUvUkrET6DQTXJg02jINl1Z6Mi3gq3GYMTEqSUAe8124eZoKM24iJhXUoHXXhkHmS7WgJWntt0gV771PE1pv7lu1DOOfD6c2chQdfKJmSviWKbvCOmVHQA2i1vQ4R7l1wgyOEWFten0+aSNR0zA1byRwPFlHwBFwBJofAi+bbQ8/MAo773Sm5s0PlDqU+DmEQ7jh7TDve7AO0XhQR8ARcASaJQJPNICp+Xymh7Zl1lna6zatmC1iWlAm6G3bMHvGtISE6ZYIzjIlX4yaR0K2TMcVbp1uZp+iFvorZuH3IOBNYJrmwAFm/7sOrd9A4mJqSMK1NNraIV0bti0ijkiA1O9XH0B4J57gDHA88tXUnJnK7p2ZGEdDcuQR4fKEWtdp4Ko98V1XAF770B7CEXAEHAFHwBGoHwSYjC/OpLaon1TzJ1b4r/WlAIGHe0OlQujej8s/cS54CxAnR8ARcARyDIH2DHpfvpIiU5KOE5rpn/gm/CRUz0Ubvv+e7BSIVNmOuPrtEArrWgMugVuvpiU8WyKQRxrwtO/lgYfMnLrUsRyxBG8wnsZg/CwTJ9nMkOqYPQ/uCDgCjoAj4Ag4Ag2FAJaI58BnXUx6Aa/FfRVjPUO+kyPgCDgCjkCuIiBtdFySdly7k2+yQShoL2NxgARumZdnJQ0SWV/KrxekgI5LsQRvTM7eBeRDGZWbG9ZxcfZwjoAj4Ag4Ao5AziPAoL4Uh+HASuI3sreTI+AIOAKOQL4ioM3S5JLJN0xLRiPcUEOCc13GxFiCt7LhQveqH8N/OQKOgCPgCDgCeYCAJvNXbPyGImQKD4blQbm8CI6AI+AIOAKOQGwEjmRfs3+zjxybm1Wboqh5lLEF75on4W86Ao6AI+AIOAKOQC4hwB46myBd34FQXYpV4fmHh7tbayZ/Ivl8N8rrILMnefaUfnMteobTxriWowJvhbuJteBsq+PkCDgCjoAj0BwQiDZaaw5lTVXGMxn/Uj2v6bNY5mOPmHUebrbz5ZmPcKhpHvw9R8ARcAQcAUfAEWhABNiR9Rs2u70AwbsbSwMfR6DeVsmzlOzfuAHJWYks3P6E7M27u7Npbj804cNd6E5Gye8dAUfAEWh8BHTW9kwOP4vMxCUo67zuVE67nFcnva+dzGfMDH30jpzincV23lNQ9/KKU0wEYmm8mSUfAP5Dt+A4MdLlEzg5Ao6AI+AIOAKOQFNC4CizD54124rx/D7cu6i1uxxWbX13cnkuZ+Najhc7iV3Pv+W9t5P9/N4RcAQcAUegcREoQUD7epxZ/2PMXr7PbOvNzX5ECP/vQ+FRY8m5W47p0lacvj5wd+ymkwyntUP6VTcR/g2z9xkUvp0YWDtZ7w3NLr/X7LPRZk/cvmqY5Hj9PjMCsQRvvlUVs92mbdWdHAFHwBFwBBwBR6BpInCwGToMO4jzSXdm/dqCbKVAyw3r5eQIOAKOgCOQawi0QPC+8kazjXqZbbFpKKxN+8Hs+v+arcFRYdJai5Dj7IcfzQ4eyHmRe6wUoqXtnjWXTp61SMcxu1qElPjLP4Ua8I9fCM8G147nzVXjjcV3ty5mkzAIOBrLsGAJVgBoLf7EErwxTfMtTmsBsr/qCDgCjoAj0HAIiCn4KuQtjPFK88ROWRBA6F6xrjv51afNzsC8fOj+ZrOTn/u9I+AIOAKOQG4h8PEXZq9hi/TnX4VC8px5KzXdL99vJm12QEjeA4aE528nl0CC+d2Pmi1Cs3rEAaHAPRoN+u/OJZ42obm6zM7bcl9RQUgG23JWPEsYbw4EP1GA4FwCfBKFY1EswRsuZiFWCeNLwT1Wqh7IEXAEHAFHwBGoJwQ0m78lk/6YUVcwXq1fT8nkbbTPhKemPEgBl7Q3O2Z+KHQPzdsCe8EcAUfAEWjiCOgc7+v+Y7ZWV7OzTjC7+R6zv9xs9jBOJP+WOI2PImm3q9MyNv74H4L3rtthArUNa5E+M5u3wOz2B8weeY6dN6cwKCw1242ZWpHO/z50H7NzTiTeKOLQKy//ytJbxUyyzK91OWMJ3oMw/SelDWqdmgdwBBwBR8ARcATqEQGmoQs1sCEwjomS0e91oh9+zYrAEjBEodESvmwfhO6Bh/hxYlkx8xccAUfAEWgsBCRUPz/C7IXhmIn/02zkqFDoPgGBLdJyP/AUnToa04jmI1AnU8cOZpf8FTvqqWbnIki3bhnGsfZaZoMP4k0GhJdeN5s2w2zffqHQLSm0N9KgZPhmIHcbvEQBsKi8seRn4R07oAI7OQKOgCPgCDgCuYQAFm/vMWkPC7GSsJEuGMxE/confpcJAbBaCP920EJOLkHo1iS/kyPgCDgCjkCOIlCGufcvLw/XcJ94fpjJ1q3MfnMWgvT34e/r0YZLQI5okUbExAOZjz/5EudD3hX6Shv+xvuh2foVF5r93ymcH4nEOZv139KCX/J/mJMl1L7amC0wOw+D5vVfZvOnw1x0YNl8bH7CBe+8riJeOEfAEXAEmhcCCI1iB1DUOtUFgQHhUjJfTlYXED2sI+AIOAINgEAxpl43X8Hi4xKE43lmZ19idstVZl07I3hPCzPwJouF2iXWeBegnt7rOJ5zlaZ6CbPVv/6L2Z47sz/KWORxBO/3PkbrjfB+NNpuHS8mGV3CdiUBlmJuHgneij2V2bqe5xtdTvEpU534i1iCN7u6tcCMr+27ZnMTmcg3bL08joAj4Ag4Ao6AI+AIOAKOgCPgCOQ0AuVMke61aygM73Q4O5XvaXYgs6fShEckM/NWSabmhZKkE6QzvgfuZnbNb812xMxJa7dPG2LWb8dwN/RyBO4SzNm1+ZrCafd07bKtKOSUvlPNEIgleIP3Ia39HO+aIexvOQKOgCPgCDgCjoAj4Ag4Ao6AI1BPCBQj0V14FepY1m4fj/D953+ZTZhidt4pYYIffYHGFA22NNyipWi5RYHwzJ+/oSXX7uTSaOvhKEzKr70NEzKEcL1ThFZ97HjOnET7ffgZxJOISGbqt/6ZteTtFJtTNgRiCd5gXSVbPl/4lQ1e93cEHAFHwBFwBBwBR8ARcAQcAUegfhDQBmoXYGr+0NMIyUjJJ11g1n1NszMxJ4/O7tazZAoEZ0nUCZJ2PBKm9UgbtnXrSnwI1iJpxSdjtl6GcN6j28p39VxCuaJKyOLB+/n453GzNVnj/SVL3U9hY3f2ea89xRK8wTcAuPbJeQhHwBFIicDxbLpczkkBhVwrja7OWsmMx8kRcAQcAUfAEXAEHIG8QqBqxVrZ6dxNtGX2rT1t1fbZzqsS12thpKnee/dQAN6mr1nfTc226RMK4aM+DZN+/m7WeLdJZAMJefC53KeRlCWA77hV6KKMa334Ob9nczXiu+OvmJejgY2EbZ37nSy0R2Hy7QosRVh9d4U91+bmsSiW4I3VQSXm/MtZKpDmk8XKiwdyBJoXAkNsbVrQabhTEbrXRdAuDHqxYp/Xal4VwUvrCDgCjoAj4Ag0QwSq4IAkvZWyS/QQGwkXdIu1teftdrgipxojIMF7wM6s7d4jDDL5e3Yev9bsc7bh/lNC071ud7bjjszBkd6kqc5EWrcdmaNH71XwVWR6LnPzSPCO/JrDVZbesvgGvtjybxbYU8M4iF3n8YkVNnWM/tQRaDYIFNgxdiilPZNZ3gNMnSBrbkyzkJo/w7THZFIibbcGIydHwBFwBBwBR8ARcATyCQGJLZJgKuB0tNZ4ibW2RbYva1j3tbk2DT7pQYTx2+0e+yafil1fZdGu5i+9YTbsLbOPvzT7AoF7kw3YkfyAcJdzpfsj9tEyEw8I/lLHgC0D+1lzwvXZzUFjnSh97AuCb3CON3CLU49FLjzHgs0DOQIxEDjaNkKgHkrILZjRlVE5O10k4kk1d5bqWYxkPYgj4Ag4Ao6AI+AIOAI5hYBEFznttM1RSYGyAS2r/Yg14Pd2EQL5hTbY/okR+m/sQ9eAg0xa0rFf/7rbbAqa7oP3MbvxcrPttjD7xR/NrmYjNNFex6yqz5Hmesp0sxEcUTXhbfbtin0ydRh/c/jLRu8zXjDbCD0ZyMUjF7zj4eahHIHaIFCACdWvMUy5JtBwY+5jHXF0evGNVWqTvL/rCDgCjoAj4Ag4Ao5ADiMgZYME8bVxbAyGaFNgs+wCVBYDrLedbfcbIqJTKgRk+n3vP806sfNXa6RCCdFadz0E+8pdtkXgTmNBKS23hPZkTXgvlELarK26BlyCujZVW7I0ZF3TRJkqe3nzTIYCFObbuhTIBe+6oOdhHYFsCBzAXG4He5HX+rOK22wtnAYXNV0nR8ARcAQcAUfAEXAEHIGVCIg/klQnAXwN3DjbGhP019B+n2GP2H08caqGgITktpzzXM4a7HlJq+O37G0ml40qEjypjgYbelsodGvdeDJJmD/juFCIl5m6UzwEgLj2xHbqR4zguzzGbvW1D+0hHIFmgsDR1hnzqRFWgtC9EWVWa5HQ7eQIOAKOgCPgCDgCjoAjkB4B8UtSD26GW4PdcErsXjvWzk8fwH2qIyCBvCYuOZyE6ura7shfzytlrekUG4FYgne0oly7uzk5Ao5ACgTOYIgoYofOUts5GDQw/3Etdwqc/JEj4Ag4Ao6AI+AIOALpEJAA3hMni8FK+zsbr52d7lV/XncE0pml1z3mph/DAxwl9ir71z3FJvJxSxNL8I6bmIdzBJoFApezcdo8u5OZ2s1sQ0rMoX+u6W4WX94L6Qg4Ao6AI+AIOAKrGwEJ3z1w3eCvCuxGhO+dV3cSHp8jkA0B9gEswW2N0r9ztnfT+ccSvKn/hZIlWE7g5Ag4AtURGG0nMDAcb+vjoUaiAcPJEXAEHAFHwBFwBBwBRyAeAlpXLOG7Y2CA/rId4ctd4wHpoeIiIEtvbbwPWx+bs4+1udphZizvtuLE7m5x8+/hHIH8Q+BoDKIK7G5mZcOdy30Divz7xl4iR8ARcAQcAUfAEWgcBNYj2QWcEVNgf+HulMbJhKfaHBGQLk2CM07b/8WiWBpvUqtyoTsW3h4onxE4mlXdRfa3oFVK8HahO5+/tpfNEXAEHAFHwBFwBBoaAZncro+rtJMxOe/b0Ml7es0Xgalms5eZHYC6e2RcFGJpvOMm5uEcgbxGoIgDwyrtEOMMxED49p0f8/pze+EcAUfAEXAEHAFHoIEREG/VMeHm2x3c7dTAOfDkmikC55khdwdHBMdGIJbGO3ZqHtARyGcEquwia8uRF10ppAvd+fylvWyOgCPgCDgCjoAj0FgIiMcSr2W2ow2xXYM7/+MINAEEYgneT5sdNoxz2h/R/oJOjoAjYHYG26hV2VnBQBB7ywUH0hFwBBwBR8ARcAQcAUcgKwI6plV2u5WI3nVYc5s1HX/BEViNCMQSvJEriqjrxZznHXtx+Wosg0flCDQ+AvPtcM7sLma7jzrsddj4xfAcOAKOgCPgCDgCjoAjkPMISOjWoU4Ftqf1Z4cdJ0egnhF4xawDiud7h5ptHzepWIK39oySlYe2VXdyBBwBEKi0Azld0hC+nRwBR8ARcAQcAUfAEXAE6hOByNy8yjbnYLEu9ZmUx+0ICIH5HBLM3n4nMMujvfVjUSzBmwSLWpIck025rfFW7mrjYkHogZo9AqeYmkNva8PfWC2q2SPoADgCjoAj4Ag4Ao6AI1BzBLSsT9xXK7Tdy22Xmgf0Nx2BeAhI4SzlM1VPtS8WxRITpps9uZA9BVlU8X2sVBsgUAGQtCivspJauKLK2Dg2QIk8iZxFYBHru83WCATvnM2kZ8wRcAQcAUfAEXAEHIE8QiCyNCxwwTuPvmpOF0X63Lqsa9AKiVrTmWysRqB5tQ7YUAHKqqz/diV2y5mtbQn3y5meKMckpVQq+iQdfQXPK3neAruBIhrvw2+W29WPLK0bog1VRk8ndxAoxcB8mbVn1rUOc2C5UxzPiSPgCDgCjkAzRiDiLF0X0fwqQcQjVzShorcI8rpFE8qxZ7WJIsBq0gWIjr/DfRG3CLEE77iJNVg4hOgf51fa8M/LbRlTBNttWGT9+hTbbS8uC37L/FxC98Ctiq175wK789Uya1NaYJ9N4GHU6TRYZj2hJo/AMmPqBrE711oTdVmTwSUMoMVaC+V1u8lXtRoVAGa5gg9fRq2sEuPcXJhn1XdcC/r8Iq/vNaoqefES9bsc9UM5/W+zqu/19fHAsvsCs8FjzXbBprFjWfPpQuoL0qYSryxFp7Nk7rV1zB7b0GwRUkbOH42q8S1UP67dVHD2fDZdBAabYfBt19SlBLkmKtSlLCvDFhfY599V2jnXY41PozzrqNJA8D7/30ts2SIeSABZUmXXXdzG9kQg/+21vNeehxKfWsjTyRGoBQIl1Khyuv6w869FwHp6FaGrHcLHkK/N9phkti7dREvmlJyaDwKL6NnHc9TKq+uZDd04FMTzVgCny25PfT8mqu+LvL43n5oelnQhY/f49mYvr886uI1Ck7zmhsHqKK8YwovfMzt8HJtFs3a2BX1IofYucWo2CPRmomVndHmnfm72vy3Zvnkziq6JzFwmse0Fgc1hLufS8+YIBAjEEryfNDuQU5Puwta87xFmP+QklhKC2tAa6TBaJYTpNq0LsAhOEMKJTM9lYm5teU/vOjkCeYDA2gjad71i1oVVEx27cV2XOSVNKjk1GwSW0dH1oGfe6mOzfZh8OX0fukJ1cdIO5BmtxbzpXS+xyQIMY2fqe+eeXt/z7BNnLY7q+zrU960/MNtvgtmZ1PfleVjXswJRlxfgmf7yutmAKUzWbsy4wR7RgQVBXeL0sE0WgdKpZud/yMQLPPTdMuLOfdNzZ+KbbG1rXhmPJXgznrUqgc/hmis6vlW/mrR7rO0ONNt0GssqwhF46VKuaLojjXcZ7wX7qekZBQpIQrqEcSdHoKkhQNVti+bvX68hdNEye27FuQesO9c+Bk7NC4EWrHnr2JGjLzj7ou0YszuYiDlrL/rCfOrbEvX9tlc514P+u2dvBiav782roidKq/reAe3s/LWYQ//G7NZhZudQ33NfVsiRz0W/8HM0nAdNMuuGkNUB6wHtjePUfBHouW64/9GvPjIbw1nZ7zKpmY8Tt833C3vJ4yDwDGw1xkBnMt//zGFm2AbVnuIK3lXqk0k4J6lXt0Lbf5sSNlSrMq1Z6b95KFWfvn+pLVomwbvAKtltbeteRbZmh0I7flBLawnDpumyZz6ssBmzkVT0w8kRaEoIwDxd9r7Zpmh/Nto6qObOPDWl77ea81qB1NG6tdnaCKR9YKqPGmt2P/d5wzzRR//hPeo6mu4NmGQqpP67sLCaK1ETik7fvg1m0arv231mdtxos3s2a0IFaMSsah33EUxYtFibZUptvR014qfImaTVntZc02zWj2anfGn2AZNaPpGVM5/HM9JICNBVal7yegxLmaZsQMEb/qZQmwjC0+UeIVfvvEmxXXF8aWAmJVOpjm3IMXTJ4JbwnAjj3EvT3aF1oZWgGbzutJbBbuclRQU2Y95ie+ZtBO9IAx6E9D+OQO4j0J2eYE+6gg69QiHEzQRz/5s1RA7bwkh36W52wHdmDyKI5Mupid1Zy73TVPp3NDNF9ONe3xuiNuV+GqrvbRESBk4I6ztGQE6ZEIAhWhvLmI5M2K4Fbk6OQISATgFaA+G7F3yF9o2Z43xxBI1fmykCUjjLiBQRkv/xKJbGG4uuF+HxN8P6ZGa8ZOsxFB3Fo2+V2dNvMy8horO4/VetbZ+tS6zXz+YFGnA9Xr6k0v72i7a2W+8i2+6M+dZam6tBUoi70B1A4X+aGAIbzg1XSXTAxNiFkCb28eoxu1pqsEZXzLG/QiMIc71As6axh4x6zGgto14XYaEF5ejUyet7LaHL69erVN/XYM331yw9YPwvd2Eh6/fuupS2BAvUEhtKHzuywtVsXlBdaMeGTq1pR6U4542bzaf3gmZAQKpc5vpjUyzBe0C4nTrDWm5SYAYvxpKBpICeo2fXQhs9udKWLOChNlHjv/4USPsd3CfM5hXGyRFoogi011wT9Vnn0js5AhECYp60BrYNdoItcYHgHXk21Sv1vB31PTg+TEfeeN/dVL9kveS7FQKk6nupbGPzZKKpXoBKRKoNtDR2iB9ywbs+kW56cRcgZUjQcHIEHAGsqdgpjDmooXSZU+LiEUvwjptYg4eDGSvhfO6dNy22qx5lSpdBJaBkJi26j64NnklP0BFYTQh4HV5NQOZnNFH3ly+lC8pDndfVq36+fNXVVA4qheqE9nhxqgEC+dY51KDI/koNEfA2VEOg/LXmgMAgM2xL7ei6lDW/J7IWV9mZB5QG67jvHoaNJUK4kyPgCDgCjoAj4Ag4Ao6AI+AIOAKOgCPQkAjEEryfZg+nYWbvPc6ePQ2Z2Vqlhb351n2K7bpTWtmwzyps0vcYBtTFKL9WifvLjoAj4Ag4Ao6AI+AIOAKOgCPgCDgCjkCIQCzBG5m2K8tId8QCRaunco+QsftvUWTDrmxri9kt7ZybF1tViWu7c+9DeY4cgaaPgHoW712a/nf0EjgCjoAjsDoR8HFhdaLpcTkCjY/AI8i9ryBicp43W9bGo1iCNwJ3Tp/jbcwM3PnLNjZnYZXtePEC+0ba7hRUijDeWubnvoYlBTr+yBGoOwKBUMofbdpTY5ci2RJ2oyipNs2nuEuYASzWTRYqpqfTuzV4NW1M6iZKFE+1XrOI35xEGCxpUT69O0kLYd576HhK1TWR6oLqfFA3EvVCm8FFz8O3fvo3eCeprqrOZms71WMJ2gv5iFsXozxXjzf5t4qpNqV2qTw7OQKNjUDUz0dtsCb5Cfp02mddSW2/un5H+YjavNJJ1R7ln+zU1kW6JD/XfcIr8Pc/joAj0PAI0My7sJ/rcPbt3DNu6rG6G7V/WW3n5DneQoIM9rtkoS1A8J63hK5Oma1OnJ1xNRuu3dCSl7XTuZMj4AisVgTEKEzi3MF5bK9Q0xamKbK1WnEcEC4iCQGnvsr55DD41+0G80KTVnwz2S9xwENmj+1vtrnmHhPzaxVcqzM4L002++UbZh8M5ogh+oPq/lFaqa5KPxB8EDJOepHjiZjYe5A0dUxXIT3okc8SJ9fTNzf7apbZ2VvyjnZTdmpWCIjJfnis2aYc57cxZ272edDstcM4opJ68sok6sUWZp9yAOeQl83eYIeWjtqNvRqpXk+mzRxInXr98LAdTFhg9mPS3qDVggQ/e3OkWgvSF4nB7/uA2ZU7mg3aiHpKfV1OhV9KPnRNRa1pE0pbJAHizWlmPx9u9hHtpSXxKZjas8KXEY/KNIXj3EZMhQPh3b/vynF1HDuUJvogXv/jCCQjoPqmOlVTUt2qzFDBFNe4eWb7sBbyiQPMtmFMKKeeZiK12TtGm/33S7N32C5JfXttSJOuKoJ2/t4BVdhePcz+SltQPgsZr/rebXZWX1RjjGetGSMO3WDVsWEp6X09J2xXKpriasN7fTqbfb/IbCouKkLgxxi0OW09XTuuTd79XUfAEag9AosJom6C9pqhN8ocL0289kRH8DZ85eH0JbNrH7oBQlCqKTPJpXoqOsSUxPMJM3hH0MFoODkCjsDqRaAIJuHSdxFSEUZqShJw/7i92e93oHNLNE8J2E+ONztu41C7XU6bLUZo+df7ZmPYX/Kx78yem0RT5rkYrZM25QzfNiuZE3UDs4njG5iy6oybmLWiFL1gRXmiV8X/8lEI1DBH0maMnB7GMfgFhA9634N6cbwE5VS6CwhzzhuhxvO0PmaaAHBqPghoNvrN781u+xJB+xCEAARTWWP8jnqqCaiztzP7nBHze0ZunZecbDlRQV3SUKQxazH1aDT1Lag/MO9Xf2j2n68y4zj6OLON2pMedfnWz82+JJ1fv2N2w2ehcPMi+TmKOvvprHDiSbEtYRCPhOnhCPl9YOgjQUV1ewp5jo6WIlt2NBMG42hvC8mf6vqPSygHZd6/J3kmLrXd6P3MuXXfekdAH4x+ycrqPaVYCWhy5yX67Ks+WDlhlCkitQ3V1cf2QzClXKprqfrtdTowoUWbCSaNhoSTSNXjraKuVgSNLWQRp9Mev6C9Bfxi0ssSygMNU9Iz3ZZT90Xq3i96M2zPytsY4pjDJPN42r3aw8XbhBOySmoGbeWikWYv0A4H9gjT14Su2vnOj5mtCTNNcraEdrd2a9rvCYxvXyDEf2TWjd+8arOJe1PK9yl+y3P0u5JNJ0cg7xFQW6ULi00pWM7scR1JX8NbT2V/sxHfEDLZqCbvZIvD/R0BRyAtAhIejtnI7J6BoUAhhkkaMwkd0VE/YkwkEGsWf8P7E8KxHkJ6742pnN8A0/F7BHKRtAxfzkAggSnpwaGKtyBoiPGZDzOyCIZn/3XNevJc8UXaaoURFXKVE0lImIJG4fmJYV6UpBgcMWWnbsYhCLxXxQMJIJMXhGksIA2lNZFny0hrFgK9hA+lfXBvGL5vzS5D0DpiQ7P2Ynydao4AeJqYWiZNAilUH6QJkSZrrt7JbIuHzH6A0ZbmSgL3y5PNPjmGglC+T35E0KC+PDsurJuqS6pz+1JnW/K+mHk9Sya1jcPWZ/LpYOARRkk0kpF4rydXPphDulcwUbTtGmjXepk9MDacdFKal9F+piJk/OE96ja//9EPP96XkBIlGVz5ozyo7QT546pP8eJEs70RGrboQjtFANi1W6jdl2avkvrvWriV36HR72aSA+qYbYcrxekDyuUKUafKlocTPdxmJWVdY0HUj0vAfYQJLk3ORqSxRfV1A+rmU+MZL95BoGWCK5n0+sHrMT60C+u3pF3FqbquRhDEr8S4/4rJq9enrWwbikfC+M/7hOlqbNA4MJ0xRO/LCkSTUhMZKyR46741Y4DGhkt3pf1+Z/aLN8w+pC/A4DIgtW1ZlEz/OT9pk68wfpz1eugn7fuG7fmMP+M371060uzpCaGf/3UEHIHGQaBjOAyPoUkyxRaPGOqdHAFHwBGoPwTE9LdAmCqG6Rfjsw8z/NfsgsCwHgwMzIk00Ue8YPa/vQLeYxX+UBqHSxEUzu2LuR5xSKg4bAO03y+F+f3LzmbHbwrDxc/tHzFrB6Oz3ZohQydm6rcwX9IwikESnfFayDwpkT/uiKZjFlpqGB2Z9omk6fuW/AzZGKYJhnUR+buxX8jQiYk66kXkJwrxyH7hVWU7+VV6YN4zhJhryM8hvcJyiLciGaeaIgDedheuO24fHMyxwWA3BdK3HoWwc8bwULA+knoizfXpI0IT0/2fMXtoX4TXSWGdkjZajLkmlGQmvgtlljBxHHVJ1hmifQhzwiahRcWHxH3fGOo19VNpRSSLj4ik7b5wBEw89f31QWFd1uTUf/uHGup+PULTVdXv+8D38E3JC+1CgreWcYjx//VbmNxODzVv0ojv81RYhx/dP0xFwvtOa3NPG5DQoOUWFeQ7OU/hm/63URHQN+Lb2Ss4Cd8DcJ1wibrFXaOSJpAOXI++cv0aZoO6JoosMjTheefXYR1XJyuhW1ZJmkzdsks48fT0+J/2v6qnW3dFq9yWMeUNwpMPWaGorp/ycjh5JOH6n7tjRTXR7De0U000qa7PKwsnYU9nLFK9VxkeGBiODZrI6suE297rhMsuNHlbSnv88wehploTU3cMMBtLe1XYgiTOWxNWQ78hr2Tuwx/C+FRWlUlC+2OUU+/IWsXJEXAEGheBQzD2Ige965KLpOZfl2g8rCPgCDgCqRGQZuMmhOeT6arEkIyCueiBEP3R9yETNBrGR+vcurdelVGSOeL/vgg1CL+F4X9pQmj2fRPms9ImXrAVgs1ws927wex8EjJQIw4PmZQgJzAub88gfML0T89kKs7jYB3tWVtwD5OlnTK+PJGH5G0KjNG694RMTwHCyJnDYK5giiKSMM9rVnpb9GTlteDmlfdi7j4+FuYM4cqphgjowyCc2r9wb+IOxu2Mk1Ao0OVylJQ1mYjK0kHWERIKRBIEZD2hqyZ1vqMuXr4DAi5u2ATMTp/G3PR4mHH8pCXfbg3MUhGcZYIqrbW0d9P4LU35OcODKIM2JEFBSxzEnHcCH9VLxSHzXWn9Nr0/fFdawlNeo06/jwx2mNkBz4SCxH4ICB9M5tkU4OWdri2VWbPOtIV12sLkkx4/bS3KJEFE8ei3Jp20s6oEEZHSp5kGFD1L/PRLYyJA/TD6H7sSNwL3Bo7JFtsNxzcNPmbiG/KrUSiYuKEu1ZaU7Y1oF6OGJIWkHu49NGxjI/WcepqWSFP7jkibrXYkgVr1evhUtPBE/gPt7aqdqNtEsONanJt7AjeEGTnJbI8nwliLaXv9Hl1VGFYb0UTYvz5fNeV3GYOuZ3yKSJNp9x5AlKSriVu1sVNpo0pPbVdr0zVmqi3q4Umvhhr09rTzXchP8O2iyPzqCDgCTQ6BWII3E6nbMDafwwTcxYPpt3K11OrI5GpEvCjmqJHHohpl1V9yBJoKAmLMtTGUzK9Hw5Qcu3HI5I+l1zjkORiXY8L1qFrHpnXZyTQJAUbabm1c9rNhCOpo/S7ZFq0gjAs8jvWGQdF6ui0fDjUhzx8cag4jc1yZIb45iD6APPxvNJo9mJuJJ4VhC25ZmVLQ5hGQ9b403CsIpuxS0pO2XQn+9wu0kjBLl263UvOiDkYb8zw7IdzQR1pLMWBimioJ71QLBITXegk3kStCaSAw8A1sL1w7HPjmKq3XkQ38tmar08eor5uhMZsQCq1PfId1xU6hYC3hW2tBxchrmUOgaaYCSgiR8HvDnuw9gv/D47C02J31qsT58iS00+vzjPotoXc0A+9OQxHIT0Ho1QhOWB3OIZLVyAHPojljYD6Iq8xiJaBrsuo6tN9qS8NpE98w2XX6iLDO30A6muRSu5FGW2uDt7lPsWExAvY79eQ92rD2OPjlyHBTOOVXcanNyMS2Wyv2ctiPOMifUw4gwDex9rgdce/g9PslHN/PqBOBBnwdrvRnjc30JKouGUlPVLdVKBDalXdIfpp4msvvLppAElUPwKNgk0HhAGmjs6+PY2ygr74MfDQ+TDydNkm7WPfulXxjsHxCYwJtQ0J6ROrb76CtadlUFXFc+wETb4xfam8SmgPi+VXvh4L8bXuGy060oaI2D5UGvIg2t+1aPD8l8T4XlevEl5lzfJp2fzjj3Q7hRPVeCPzaMG6vnryUomwrY/A7R8ARyHUE6H5qT/Q1GzA2nwYP9AdC56TgXUwmX/tLW9tpk+KA8c5WSnX+t764zM7795KVU/jZAjWcv7JHNx5spke3bfpuiCXBM3XDcmJL6c4zsqZ0+0EYCunkCNQ/AprMWp+a+a89zDZ7IFzvuvUaMBYIz0fC7Oz7TChw79eTSk2nkkxabyfT8a26whAtDH20M3R3WoAYpvenmX2GECJGR5r0YZPZWRZGpi2tQ+Z8ahTSZEhg0EZQ0myrEYlZEkm7EDExeldCdHDVPaQ41oN5HTslZOy003MnGLs5CCFawycmqRvM1s6k+cg41ryuA6P0VrgR3IdH01iTIwuj9L81QWAPXro38eJcrq/hhuMQPG1XnOpJjmGrqvTaJPYXoD7v2cPs9v6s3fw3VhhDWB7xIRb0X4YWHapzHzCBpI56KnVaa6WlMg7O5+S2gnqlDZZEQT1lkNVvrRUfNoE6xb205qrzz5Oe1oeqHmon9U1wsgQR9e0MTPh1p35KGFE7uLE/E0TfYgVCPd4Mf4V5VJgSVzRZJVPez6ev1ORp46dPKYN2UsYrWBsu4UHl1d4IWisrv0DgybFvQhZXSlDBj2b2h7oUHHjzHld9PNEi3KiE25brgTjqQmOR6q529qaqpm3SqmuqcNpLIxXJX/V2KeWdST9/z2fh7+R3ZcatHcfXbbvyaTA2kLDM1telHgsjTYyJgjTD2/BvtQeq6r0II6252rR29z+wJ3GRvgR09f1qg7J8emYCliz4/ZG2pLJqo0PRPz4O25AsSkRKQsm/yjimPUoOeZYskSfFr2UpJ7zChBhjpyzDbt1TIZwcAUegoRGgaRe+yfzZt7CCp8ZcvJMYpmuXdRKO+ITaBWzgt1uhBhg9ebnd8vwyK41UAinyoE2ULj+upbWoyYHAKcI3wKPtSONPOLFJV+K2we2NuwFHd24jcHTL9g3uJFw6+g8eGnrPxnXBnYfjc/50nEk8+4Dr0ziR2N2zcBqmE0MFd5npVrxh45yaMwISHHqvafY3hKZfvc2M/iaggUAhYXybR9DOIYhIu7cU5iKZtDHO6ONCRmbD+8LjmKQZHzoOLfNoKjwMipidoQcghFPLLkTo1e7PgzagEfQOBWIJ/qqtYq4C4YD75TBGIlVieacjMULSgF/2bij4S6OyTQu0gPwWIyTGbbfumPKSln7PW0xjpDfW7tAy3xVTmXOkVkwZMha8sTMtLd1rOJjZFSQsEWoDjd0OXKk7QTm45Aopi9rN/qY9EVZ/MOvfA80aeOu3OOr2/0ErvA/1ZRizptT/93lHjHnU+0prp43KItNu7ScgU1cx31qKcd4bYUklHKhuXvLOyjosKxCZsMu6QwJ3t7uoj6Txm7fCT63j+bQO9WLC9F8bM1nq6tBvGTgmUI+JaxMmALT8Q3m472smy5hwUjqaENufEeC9o8K2II36pho5iGujO9ksaktM3zQaUf9zUtsNFlkbOq80KOnj8U0DUqUR6Zrskp/pXfmluoK7LcTpyvda8Z7eleM7GXUo2A6Xyyr0Eb8+xVFnbQOc8tWApLp2z5hwrbXqbCbajD71jSPC4qR6bzFlVR+8jDp/DQKtii5SkVSPZRmlYyeTBe/oBe2pIIsNvaw+PXqeuEt5Ud61UaHWgGszNQnHY+aFe4pozNCk2dl9w83R5L8Mrkt7J5yyWVgdFakmxdT+ZW6utnkX7U75PJ62rPansevx78JlJxdvDePVMtwTYg2uTo6AI9A4CMCKrtULgzPmrRkVA/mr1hmJJXirL1eHluukznDCD5X2v1fKrHXrNDnmcVsK9KsjS4MxK0fLNJZ89cOdhhP8cnvizsVdh2uL64GDzQooubAasiOiO19Ba3L3e5yG7SUrnoY3CqPh+i4cbFdApfz9P1wv3FxcJtLQoLTEKjPcODVnBILKCPOj2XqRjgb7w44wO9SQC2Eofv02lRDuX1rs6qQjyX71Rsh0XLkbM0sI6ce8zDnJ9HoyvZPgHQj2/Nb62r/DdOkYFjEy2nVZmnAx3hJceiFcyFZEm0GJ1D9kIgWVyfjnJ8Gb3m02eCO0FOThTx9wzAvXgKGHwdLZzIrq2Yn0NzBZkQCUcx0KWNrVOPIcbLSkAuYaCUgY2LTHIPEdje9vr+KoQ8E34NLYJCh3oEeVtcUH9HiHv8ASCJhqrZWWNk5HIA07jHcQerUG9PqPQ23ZvQMJqLrPRWf2XjsyFEYURsz7OX2pdy+xn8GWmK3uEZZSbWCLB9kE8AR+k15Qz2hfEhrErCvs6CFsNvhoaPreiTr8x/fgEMZSP2Hs76GO3g2TL9qL3l1hrt2Vdobgrj0Obqb93EpaF7yF5n4Ak0tM7WpDNpEmlDRxpQFIE0uBsM3vnBO69UHUn9yKA5ucIuUNzAKnvEWO7xZ8S/nLxSVVppqS0qY+BnloV9NAq+c9aYX368kRWwdn74tl+aQ6l45khRScUIE2eb8NeCv65mCh8+bXvSscE34SHv/PZodLOYS52o5IE1iZSO9t3pnNOY9j5/Q7mJzdLpzwfWgc9zsTMvEtX5wQbpD2DFcdByahWp9WbUenfQzZlHZPezxzeCh0X0I8f94lEZ48aFnTLo9zROFXTIjtjeaFsknojyxUeNPJEXAEGhgBdd80YTXlWKRhu9ZEnzYa9yfGc7qM3KUyuO7Ddiqx8ifhymtAWueWo8SwYlfgYNtMc7NAHxiJ/YPrLFwHXGvcXrj7cRIt9M4o3D9xbXAaSvSO4pIIVIgT7Y9D9PkJ3c4ThrtVSL+vx/1ulac//QG7GAzniWHspy/4k2aGALXtdhh6rYOTie1ZMBr/7o8g+0mooZNw8eWxq2KiXu3PCAw6F/mAnggAD1NRv0erTThtNvWz10INQFCzeVcVWkcyvQTzJU2h1p8G/BMRSbv4u215gfvI1Dww8VMiGUgM2OVvhVoHadGvJb/XIjRtTIuTpkLmun26hGt1f/dOaA4pjbu0lDlHytPmiVzlYv4iwHpxMwU3MXqQ4tqLZxIU5qTwa4RHqifaNFAbIWmnci1FaIOweuwr4RpP1ZV5Z1P9ykKtuPYb0NprbaAmoVXM9LRFCOeU+0jqjzZnk0DSid5edf3kTRGcR4cMuyZ3VIclPGuCSdrsAT1WLfRatDMdm6cNmWQaLm3ghSPDyal/7UmcMzhujMmBiSeSPkG78F4VN4c+Hx7HJ7N1CUYy333rSCa5vg3z2564AiuSVZPL3V/0AzlJ6qwiJ76jLS4apaPn1IkV71R/Jj+RnkfvKR79pg8MuAT95nvZPbhvcNVJo7kmr/rjqLP2Oq6BSRsSajO/rERdjITi6u+WUN7XaTcSZndXv09ZImsjQbOQNidSW0kmTbwuWhJOyu61Oz6Ej9ZnZxO8FY/awdnDYYKJv33LUNN+/xi01fRLyutu3RgnEM7V9i+Cw+rLOLEtk3MSmglqtzIeSqOtNq9x8X8DYODWDXc+34A41B8s4F2dQHDjZ+FkntqlLFb+vDN9A982Kqfy4+QIOAINg4D6lWrdSa0SVhddazoCPpRAl9c6YAMHKMF0/Jn3y+3Y6xaZzM5PGdjC3h2z3L6auNykSdOOwwdsV2xDdm9hF9y5xH6YS3dYFzTrr3x3EvWxOLrhYGjV8ErXG9DG/L0Y1wmHSBBomgdyhbUyuvaA/s7fMxP3uhyNOy3x+9dcpybuNR6IlA7DQGDYqd8RwSIGmnelB4JpieHDyREIERATIzNsMRn/7g+PCZN/zEuhkKyjvqS5PuHV0IRbAkhEYl5kOi6GSTs+S6B9eJ+QUTvuFQQOmB1tkBNotQkkjZ/WkSsKmS5KoJFwPX5ueMTSHjAs0oRE2jm9E1X4KM1UV6IN1ppfNSoURvTOeW/Cq+Jx4VaY0PdCu7gmStgpaDP7US7KJ41HlI7ezwmi7HY4Dma3RgVvrEzzXdKOLjCvgYEXkyD2HQ6GNhdITLgY4ok/Q+OGhkobjz07iJzxvO+94Znauldd3Xvd0ARdQnew0RLPJOTq95fHc24vGrjoqCQJ2fLr2Z5P93xYUrURxf+z4SHjLTPxMSdxz3imc+xV51vcGraHc0eEn1prRrVT81akUUjdVFXQxJTilgCidanSyk9gsuCW/sSD8CISY69NoF6YhDUyeWhD3W4Sgrc6AcpnMCuBUEs5coqq50e/qz9LleGavJMcTlzA2OQHifu+XI/C8U0DnCYnnjfwRfVP+xbEJX1mcURXf8TGZptRP1vR75atGptMzUVqM8mkPUTenB4+kXWKGoWsp7TiEK+sFKTNW5qMuojxQOOV3Bkjwom3+weyEWif0LxdFiMvH8rLlFfjjtrV26QtQV8bvUnIVnsWabxberbZ+cSpMTOZFL+OxtQSFhe6k5Hxe0egYRCguWup9VJSk5wUi6p1RbHiyNlAYlC0bnQR5uaL6E0P27HEzti31DY5nV6wosDatCuwa05sZTPnV9mkacutgnctw1rwRizon0n7Rtx/ceviNEd8D+4+3BTcQThEGBuIE32Oux13k35A/8G9gLsMp/f0fBpOBCsWDPkMBXYADnCCfVCZYw2uXFYQ3X6w7/CBXKNxZ4Vn0o3eexmXI/qopJz5bYMjIEZDpnRa06Y1bqpt/xmAIPABS3URVg5HiLoZZukP76/URiuTYkCGIyhKo9eWsKpxcxFExs0PK58EjDXxixgQMSXVzcd1DrhMw7W2b6NOJM070kaKIg2IJgYKYGSKyJeEj2RS3FfsEjqlr42ntnoY7ebRYTwyvQ26YC7SYGqt7aczwrLo7GN5E0XuECNGIHXlVKaS4AFjexenXiiZevFjd9zWOL5p/CGPsPVEYuTfo1d9bWp4DryOH7oWgUDCsExIK6jj0s69iCAkrbisML6lLst6IlpbKiEkmkhSvRxBHGo/ekc0lDp1aK9QVtL4diV1W/sKqJKp7muCSseLacdlWYQcsVHI2N/5FcsjPgm1aRKcVa9VBTa+P7xKMB97UrjjuTYz1EaFES2ExXh2AprwnuSFhzShpkOq72rvKmxzI7WTd3DJZd+C3/1x1IvA1EHYqM01MAVJxkk3UW+VXRVLVoqXvR0uhdAabh3RtQqRxnz4OiXVjnaxCvHwD++h9F8z1B4rQq3PVpxqy6JgIliVnt/VBXel/799ccGLtE3a2Dlv0K6Z0JBVl8a7xbRztV9txNavB9ZYE8ONOO/YG+YNbm0u+Pcggmfg4Pp0Dk8bOEycGqTx7ND1Yfz6hePi7+kXtTnbk4Oo0nBxSt/JEXAEGhaBweHyWTjP+AQbkJ8kpqVNS2naquxv57e2g7ZvYe1bFViPLgU26a4OJmaiHf7rdC2EGaq0z27pYB99W2EnX7/YlhM2x2g0+XkIp74WVsnoeu0wHF23IRYEG6pJNNkMp3cRZ4K121wC+pC/cqfixNIOxfXGiS7DDQ/uOLGJK+yZ/Szxu/pFQ9CjuAure/hvRyAdAjLFG/k9ZuUwEGL6ZW0ygxl+7VQ+CiZFRxVp7dvB67EZzX2JWGiDBbwrsz2tjXvuG87TRmCRkLFLt3DX1+BNmCRp8ETSVFRvujpT+UHCnb05AggMkPoFadlF0jSQRKDtu4mar7z9QF4CkgckTaDM4LVGXEKNhCh5bfFw+P5ptDiZEErbLXp1KmbnlO9NyiuhPBKoQl//WyMEYKRXENgGmjnqRzBhoG8tV/1D86ixqQKmWFrrt48MdyB+iHonunpnJmWYJhd9PZvOdRgTOTuGpumHPmf21XFhvYw0yVHRJEg/NZ6ZTtqA2oFIk0US3gPCX78TVdUKuf96bmjiegh4tXqD/HQNJ65kAvvqIaHZqyasZBa/z9PU6VMTURGXLMC0MWAy8WpQl1X3T+2T7OP3OY0A3zOYENSILuqBG5K40odlPPsE74agaMK0NmmpWBG1oB08T/v4M5NPv9mWCVH6CgmryaT6O5o2J0Fam5NFpHg+oA3oiMp/7I6/PPgzDu5I44KsPPSONNG3fUg/TtsezRgQCOJ6FU/tyaDztyfO59QMxigJ7Up/g3vDNqnJZe3xoLFDNI7rWN79dBY/iF+aeU0Ca4zQkqUNyL+OPNMYJVK77tyC9q8+kHe0OagsYDSRFLV5fjk5Ao5AE0MgGsJrlW3G6/XpA/ajr7mHsTzBxtYqinp/WX1X25YFNm9JlY2dVmkff7fcOrUtsLW7FNvkHyvZdK0qYGAO71RoMzAx/2LScps6q2pFp1fvGaxdAq/yutiefrjTcONwB+Kuxe2H2xpHNx6wqHrWHvcdrjpF/fX2eNDVB3Qxf4/G0bVbT1wH3C04Qaj68UucvrF+axyTaKKwn+IYatISw4NthaOaODVnBKRp+OxYGBqYjYDZotacjMCqo7q6tgrXn34OMzKH55rRT/AdAWNzMIKJ/MQMbQkD8ntq7tEbhdpynQu+5f0rmRBV7gVJNVKCi3Z11vXMvuFmVvoOl73Hxm6tw4k3cTBifm76HA/uo/XfUUORkCKNu5geac215vVvn4Trb7vw/J/cnz8y3LFd5TzjtVD42k8tCQG8ymu/IK8ZgV+wWGYqV+G3O049lSpE0nflV86RsqjNnV4n70+MhxmHQT5ovbCe/el9Jo2YODp3C3YBf5N1nD3QgFMuMew7Mo257cNosQ7k3TasDYJR/xhhQPQDva527tfZ2hIEVI+1xOFy4lP9VGc8mTSTdzmWsH8e6egF5UkTSXPBTvel1Ee1QU1Q6WgmPZPJqhh9WYIozmSSvzY8vPjtcPdl7dLumzolI5TD93xXexyn0Vyj+3Y4+tZcsBSR0DrohXD5gup0bUja468YS9RWHqZNDXk5XIJ0za4UTRwHpDjVhmTGrk07ZXWisWMdwmj5j+q7rErOfyO0mDpyQ9otE6Xy+zv9uXb313ijBvI97Ut9vCbFFJfanEhtRfuJaBzZCIx1rN53CO3aOPTJg2mvtKcrPsC6ZRKf4QAsYWbAnL0YWlQdtUEiAkUEqQ2eS1503KUmmSNSWbX++7hnw7IoDh1R9pOGGgXwqyPgCDQJBNS91Jron7alj7iVfuApAuem4E2nKUFbQvftTy6z218os103Kbb9t2lrN/H7oZHl1pUOdn+03w+NKLO/PkqPBzMSiJq1RqTeA1xNCu8kcieW9EYcrF1wLNilXOnibSROQ6zeE30fXlb5S4kDTfnxXH+R8KF7D44I01gSIdCJez3XHLGeiVRX+OzB2vG5XE/EKUw6KsMjaRhJ95o/z2cEJMhKE9AVBkUaNZGEb61tHbIxDBD+Enz7P4k/96IB64TvyOxbm0oN5LfWl7bkdyFhxVhpbVxXaufvdwiZEoXTmlWtFQ+i4R1p6aTtfgahRucl938ifCYtoY5Fak+NVgVWPN+cQGUlzokwT5s+EKYhPzE/t+0ZvifhR8dE6bgamSd+iJB0L8zf3QNJl7IoXW3+pp1tdY53pVqAU80R0JTeCNzpOL578HEquDYFor7dT13QpM7BveiQ+f5bdA3rq+rovV+HGjbV5aepjxJ0ZX760WCEgofD8+g700bEnEto1w7pxdQ3bcx0wVbUTXBQu5Hp6S5rhXVNAvR9pKmJKQkJsxmJZUUiQUJ1TxNB1yF0zOde689bEZcECJ1prHYXtDf9JrhcMum9YG0sVwkh91DHpY1LJvlLuAkk+GQPv298BMQd9MEdidM3og7kCqkeX06bOI96TVWsNWlTsTlwFmeO4KzrXkxq7UtdTuoniqj3fxiFYD8xjFrWIk8dFLYfPdFk6scwr29NZ6JrCA/4fRDCrSZ9dYqFxgb1+8JtO9rhe7yj+N+czFq85xRDGFdH0rl77/B3EW3k4TFMun2HxQnt867RmBFOZeLsUNpeD7QjtHsJzl/MDiedo7FQn0aTueoLNLErLfrLpCNS+5Rwr93T1V6lcZcFVizQghj9jyPgCKwOBB5BLjqaboD+S0241kSzrj2RkviG3CUyt9ZaBTDqBTZtdqWddlgpO7wW2GY9CoPZzl23KLZ2HQqDTZ60AduOvYvt5wdVwegU2Kufltu3COvqjHOIWpGX3+J64TRUaFjdEqdu+F7cfTi9cw7uMtw0XKL75i7c2fxErpov/QZ3MU4VhnoTxIe4EZAEeFg1OyP8ucpfhpkgDb27Iy4hRq2oeIormYTgTjiGwFAWSvb0+/xHQJs9XbtLWM5K1dRqFJnWSpusTdLEyK+J8KHf0j6IsbloewIRVoyH3le/I8bthn6hwL5+h1Uj1W7m3YlD2g9dJ1DrpVmXqeDYE8JJAJ0PLkZJzJQEmUNwZdyrwur81LKzwjiVjigQLrhW8c4GpPfBYGagCK/16dNOJh3CiJFSA7h7XzZX6B8yblE4HjvVBAHwDQ5IZIJlRe9Sk3A58I7qpjba09KDtVQnqQ+adFJ9XZfpTh0xNB/BWBsxqS6qaql+SFM26SQ61sRIrPWhqutaHypSu9CSBWnpXjsczXMXJpTV0ydo526hVk5HfMmU9stjSZ96r7gl/It51znFYupVn5Wurr2ZWn0aYUS/V/TgiTiVPy3neJe8SEjRGd4qX3J9VnrPEl7aQd075RgC1AXriyvDqWPKIVKdC46WjJkv1c82tBfts6G9CaRBj8YSFbMcoXzofmYzqfeq6+rTClRCrgAAQABJREFUdcqEJmZFmrTdgXHiuxNhqGh/8pt2Sjj+SIMtvMpov7+kPZ+3ZRifwu1Of7+IScFkIT8aIzRG7b0OGurDwvZ93MZoONanTdJW9b7M4ocPIg3i1YRZIivWhb7umYOxgiHuQvoGfa9jCKs8/RnuSRNvvRH+1UZP7s0RNpQt1Viq/Dk5Ao5A/SPwGMMzTXIauiJGxgY+x1tMas5SeZXtsGFJ0Hm15/zu/5zb2haXIVgn7JpO35czu9XzsYhUWrRDdkQTvm1JsKnGkL9X2reT8cytAvYht5viGGoCY0yxduqO6eaDs7tf5SoajmPIsRtwS3AR0V0HgvtgrlNxz+DOwzEkBEI0Q0JAvfireG/FCaG/4SbgRAxxgeHaD1zfxEkQF2loj+71m2FthZZ8Ovfr4fSOUzNDQIy6BFUxDclMe3UYxDRJAAmIewndIjE16bTGMssLBHTV4CQSk6X4+B8IHT2otVF8MrOVC/ySwqmp61lE8EWr/I6e6x2Z6GotYZAGD2SGnqy90L0YwUzljeLzazUEol4EDJsiSUgN6qR6W0j1SKS6oE2fpDmO6mLoE9ZRPY/qnzRuIgnfIv2WWazi2qN7WO+SGf/u1D9NMAVthXYT1X+FFYMvrbnaQHJ91LsdwPrAnmE4vZtMyosYfpnnqp5HeUl+R3Fsgb8yrnunHENA30TtKKqEOZa9yLopbrbUJlTXVf9UR6uTJqs0KSSq3uYEiZ5pMiqq2zonXC7KVwRbtN5a8UTPdF+d1AY0Udwx0WbEarZXfIlxRnnUvcaGRNMOotDvAWsn+ggmCkRq55ok0GZrovLEc5nK6+i1aAIh9PW/joAj0JAILCYxsajqeuKmG0u8pK+YRp/+LIETXULc5OspHB3cGfuV2rgZlXb/C0ut4KA51mbQXPtk/PJgLXerg+dY66PmWo+T5tsC1oBfes9Sa3P4HGvBO4+/TcnoMHOM/kp+7sItxDEPasfg3sVJsB2Fi+iJxM3D0QOufC77De4/uEW46JszlxsI8RtwPRPXF/ch7mvcZrhzcPKLaENuVN+G4SROwfIFa8thG+3XOLGMEp+U1jY42EHrhXOhGxCaKwUCag0KH7xXi55MPV4qhqv6s+TfQRiFq5afbL+rvb5KutXD6t1Uz6rH4b/zE4FM3z6dX/Jz3Vf/HSEl5j7ZT8+D95MepqzvSf5RXLpmE5iT40oOF93LP03U0St+dQTqDYFM9U/1MvDPUEGT63fwfg1ymiG6n7bFFPGlCl+9HUa/q+c/yGOqCFKk448cAUegfhFgbjo2SWiqNR0aCn2H1DpgQwSgY+qxTqHtu3Wx3fYSMh/bWZa2ZJbgj21tx42LbL8/IXtqmpGSSxsgCo6OCNQD4e8c/Cth+Woc853BruLfcr0AJ031PJxoDdz1wR3HJXOVgL4El9xVSwiPaDduHsNJMJ6M2wMX+SvMfJwE7YgO5OYtXEKfE2i1lc6nOKWrdxWX8nQGToI8sxhOjoAj4Ag4Ao6AI+AIOAKOgCPgCDRdBKRRlKCEUUokL9W6MLEE71qn0sABDuboMNGTb5dZp45sAf7vDsFGa/94epm9PArZkN3OJY7KjEjrugPBOzaEDVI4WSdtjfs97opEigu4SoMtgyoV+HncFNyJOAnIf8L9DpcsPPMzMC/vwbU37k7cvjjp+GVinjB0DDbMk7CfTCfx45LEA6X3d9wmOAnYCqtJAWnCr8NJ8/46bk+cC9+A4OQIOAKOgCPgCDgCjoAj4Ag4Ak0TgSPDjavrJDHmn+ANHHcOW2YtS6vsrTEVtgRT8hueW2YvfVxuo75GBmXDtUgHvBAZ/G9PLLXhX/K8upiZO3VCenmZcp+Ak6D7Nu5SHIYH9gpOAvfauI1wO+BkKi6/53Cb447ASTgeiJMgfDfuX7ivcONxqkDdcZNwySQhvCrx4GKuMi1/Gaf378ApP9J+f4STibkmgjRBIO35a7i9cDfjzsLpuZMj4Ag4Ao6AI+AIOAKOgCPgCDgCzRKBWIL3I+z5sgZC4DesCWZxcM5pNNlHzW4YilQt0ZFdLq64C4vrFsiLCdPy6Etrw7U/3omfhPFYSEQx1etVGmsJseNwF+JewolG4G7CqVR8kuDM7O+4il7AnYw7FyehV9t0SHiWcD0Utx9OWnH56ftJWGfP3BUoaO3+6zilLfoQp3XjUfy6V35+xE3DKV65mbiIzuFG6RTilI6TI+AIOAKOgCPgCDgCjoAj4Ag4As0SgVjiJnbJA5D2hqLilKb1+5xDTnpa1nWvoFZS0qYgPU7nl+L1Rnx0EGkzk/ATGp94sgtXaZ+T6V5+aA23BOtXcT1xEqQVz5s4mZeL7sPJNFxCdDJtx4+5iQfDuUoQj+hZbuQy0S143o6ryPSS+zkCjoAj4Ag4Ao5AIyIgnsnJEUiDgFePNMD4Y0cgBgLSRtaaaIRVkSq01oEbI0Aqfat6klTPGyN/2dNMJXQnh6oudEd+ixM3Kq02WkuOJ7JU0PPqQreC/VDt/ThoudAtJBuIlidac/JurQ2UtCfTBBBYzkRjPjFQlZo4xUW7ADeBT+BZbCAEdFxoleq76ohTVgQWtGCGnM6hDA4h+QitrAH9hbxHYCn2j8vQtFXgnHIIAfVxOZSd6lkJjmzO5QxWz3ANf2Ne3O01oH8y3Ei6hqFWfS2W4K32FyvgqmnX3y/NCizji7O+u4TM3n1+G2tdygjM7+A5Jubbb1Rk91zY2lqrIKockau/XHnMjkC9IjCTVfgFdMZLtFDAyRFIIFBIH7doEeYr2Dct0PKbfCD66x+p7zrTdgnTiy4s5MNHXT1lUF1YsJDjPrDpWiy7Lo3tTukRAJ+p7cEK3GbPSf+a+zQ/BNSWZqKWmdmGs2yZnHHKDQT4LNYSe9QlqLYqc1QLuhCeo4i8FeUZP4qWs0AyMN9AnyEWxTI1h49bCJ7j4eFyT6PJIDKkX4n97dRWVkbuWlDCdboW2l5btrMydLylDMT7/mGhXXlcS9ts3SLbsFuhLU6aOZo0s9IqcrQix/rCHqjZIPANK/mluZjDQNl2PfhNZzibzbfPVtDvWRD0VVc0WhJE8qR/m8AZCvOp7z9S31uz7snJERAC6vdmUN/VHy51wbtGlWI67eeTbmZdp5h1Abci127WCLd8f0kTtsuwfXxpa9qS6gS8slPjIyDWrvPXZtN3ZVKdiec2TIzkEqkPnjmLcRlXwiRovpGaQV3YqFiC9yHh7tYb5CSYzEG8/+1yu/LRpUxHFFjHtmbXnNjKbnuxzH6cV2VFlFhut82KrR3ruz+7maneBEng3uT0eTZ+jkssESZ+bToIaEb6tq04R+59BPAunO1G1V5el96h6RTdc5oGATHQ30+nHsxmB8a9EEryiHGaz8zvPX05Y3EUzAf1vb3X9zS1oPk8Vn2fTn0vQHP7ELuUePdXw28Py3PlTpwx+iKM8hiz9TZGo8Y+OZVSSjg7VEMQm/5rkeWQrKTmzWfs+MZsZHesRvtQtjwaO5r8l0LO6TQaHm98qAHtuwl9Hs9yoa0WI1+pD56L4rPvMPJFJ1yVRxN5FK8AVltW3/yPR8SRf/TduOV2Cmbku2xSvMLK7MrjWwZ2AW98WRFouSV07/rrhTZqXAXa8GJ76fK2tsGZ823ybEaZ2AYE+Yell6gJIUAH92hvs22Yod77K5inDdFeIJCIcqFDDnPifxsCgWAQJiFpun/4DgF1cxiodXmQezZK8eGgvj8AQ9gXjffAL0NhoTPaOq/r8SFtqiEjpnPqVDQtE9jVEw3d2+tQmnyq7/X5cWB75jKR9bN9zP73CiaNn5mthQa8YyeOOsFqwNtUfYKfW3Frnf+PM7Gcg4/4Yk2z8/v798+tLxTmRsLspveYffoLs8/5ZpskJssaq61GffDkKZwpPM2s12v0H/ChlfQr+UTHwlY9gjL/aIxB4pYrLwVvgdGmtNBufn6ZDX2n3IZf2dYOuGKhDehbbD/fu9R271PMhjxVdtGgUjvqN2U2uF8L+3rqcps8EU6urUvdcSuTh8sBBGA0/7iL2SzWvx4zBlPcyVh4tGNqLm9beg5gnmtZoAurZCCumIfJLVqKW7c3e3AzMpmPQkhU39HOHYN2Zh7XYqycCry+51qtrNf8VLKMLKjvCJB5Xd/rE0Wwm9Ha7IQDzA4bZ7bPeCaz0Fy1zMd+IxuO6j/AozmaTCxgomUcy3ie2RkT8145eF5wtm/XTPy1cWQxZuab38H3OtLsM363o/22ou5KCG5oqoDXmI8oWoG1Ua9XzbqPhA9hPF6h/WzoDNVfelWDWV5fl+hjsSfPs1Qa3qY9ExqzLs9RA5QCBOtzDyy1M/YLp1uevbStFTND9CFm6Idfs8Q6tSuwZy5pYw/+uV2wJvzIv1KDdda3kyPQxBEopxr/fQe0gZgfnfi12XbMXrdnrZb4CKf8R0C9mDbae3tTzgrsjfZKXSBzivlKQX3f0ex+ynsS9X1b6nsHr+/5+rl/Ui4xmTNh8P6fvfMAkKLI3vjbvOySc85RQEARs4KYUFExcGLWM5/p1DPfX/TkPNOpZ8AsJlQMYI4EMYsRBVFByTnvLpt3/9/Xvb0My8zsbm+anfke1E5Pd1V19W+6q+vVe1X1Ge71ZxG20Q8wiu/3nQBU5w68JDZB8ZoEDxmGZHRoJMbii+NuQO2IMA4BCkUsSR4caAtwDzjXHYu/fT36sYvxW6VgGNnAh/Dc7oKOM7wHt7RBW8+XZleFC8d9wrHcbdD53RYKdyLfvyyD7p+gUH39PDCmjMbv/TLaOR2QK5wKIkzw4j3yX1l25sHJdss4vJEhGZjR/K5pufbCJ3n2568Fltg4zj78McVRujdmFtvSVXhTF+Iu4Zo7UNAlIlCvCcBKsQqW7jswbs+p/FQB1uufs9KFp/bNQAUkFhqOuN9X636v9G0SNQli7X6v6R+upM7IQwsR7b3YEq/e5FV7CmhsEVDHVT37vYtwnzabjzAPzb260l9QZ8RThUJZal3xr2e/ly/FG3zp2UXPxchrzqNEe8Cl/JEL0mxI9wS77dUcuxiW79e/zrcJp6baOYcm27vf5tu5h6Y4FvAXZufZAYg/595G9vG8QjvnwSxbuBxXWFc3bz27gVTcCCbAxhODRARigYDu91j4lXWNtUkg8lp4tXn16rSuXdo6WxUIUPmuU4HOFAuORpNh2G+NRTO2mZ1ytNlbfpj7Urypk7JTMCIFL4rBXRIdC/eeV2XY94sL7ehhSXbZE9n2yLu5NrR3grVoFG//eyvHnvs4336YX2CNm8dDEU924sWz8QZzvkQEREAEREAEREAEREAEREAEREAE0LkQjz6OxvjkID5f4kvxxgkLYe3Ow+otkWdPg9L82Bs5Ts/AF3c2slyY5nPyim3Vk5gtApKbX+yY6ZMT4+zCUa4bOvezI+F5WL9/W4lLkrWbSCQiIAIiIAIiIAIiIAIiIAIiIAIgQMUXNl7f/kC+FO/jzF7HeX1r+zX+y2GStLmLC+ymF3KsdZM4KwSltVuKLB7a9TXHpdrS9UX2ONb1dizbJfSS0YXhKN2ydtf4z6MTiIAIiIAIiIAIiIAIiIAIiEB9IQClWet4B/2xQOar3wvtq+8K7MuHGtm8ZUX294dzLQGTrnFsN63bRfhDRZxdFvFQtr/BbOczMfZbM5sHJaqdIiACIiACIiACIiACIiACIhCTBOAQvWarWTd8rvULwJfF2+/JajUdNWoq1vjkMmKBg9K7tIq3Cw6DFk4NHJIIDfzFT/Ns5pdUvN19+isCIiACIiACIiACIhClBDgbFFvBbAuWN3CS7UjOKkyRZ6TLQX9FIMYIjHXnkFtclcv2q3jHjUdVhVBeVVWVslUpbTwqSVq1ucYn60hat2nZ5veZPxXYmAlZVlRSeVJHp+k7vmGcFTlfqnRqJRYBERABERABERABEYhUAmz/ca205xGOQcD6x4bpgXYStBmdgZW/4vMLhNMQPAUcmxIREAERqAwBX4r3q2bHo456eaBZ++OxXHBlTljjcaE4nzMy2R67JK30VHv2Njt1+HZTdueW8ZY/rWnp8cCNE+/MsldmyfIdyETbIiACIiACIiACIhA1BGg2aojApuAEhL0R9kegAk5l27HY4PMPhOkIvyCcghCx5iaUTSICIhDxBHwp3qiTijCruWEds8gTFO5VrNn9zRUZjpu5Z8BmPUop+93du/3votWoVZO2f9eWCIiACIiACIiACIhAlBGgxXs/BFqyGb5FgKHGchHWI9yHsAKBDd5mCP0R6J4uEQERiEkCk81aom/uoyyzK7CO9ww/EHwp3hzqEsmyKaPYNm31WTuyl9PT0iP5IlU2ERABERABERABERAB/wTaIulgBCrdVMR/RqCUtSwdgn1cgZZKuEQERCAmCUCzTIJtdhA+2RXnS0pGOVcuLWzCHCoducLCeW5Clf2M3KtSyURABERABERABERABKqLABVpjvEOZ1Gi+zld0aV0A4JEBGKbAM268J72HKgrDcOXxXsMvLlxpojWvStNQglEQAREQAREQAREQARihwDHbDdG2A/h4yCXzZbuKATGk4iACMQ8AfbRoVrwrQP7snjXO+rB+iW4L9j+endxKrAIiIAIiIAIiIAIiIAvAnQx3wch2Pw+zbG/D4LP0YtIKREBEYgSAi3MNqK6GJVt9qnfS/Jl8fZ7sjpJB+W6e7t4W4ZJ07wVINhN0a9zgmVkF9uy9erGrJPfRScVAREQAREQAREQgUgg0BqF4ORpP5QpzEH4zkVxpHiXAaOvIhB7BI5wp158rypXHt0W74Ji69423hZNbGyDe6KPoUTzTkuKsy9vb2gTTk21OOndVbl/lFYEREAEREAEREAE6jcBKtYYR7mDAymVcVrCpXQDgkQERKA6CPhSvKehepoBR+0pZpwPMnIF/gAXjkqxTZnF9u2vmBWDjvkBLuaFqEyLqXhzn/cZuVejkomACIiACIiACIiACFQ3AbYBuab3AQEZHxmwrU0REAERqAYCvlzNOaicOiyWOvQ9uLwayl5uFs1bxNvFo5Lt/R8L7M6zG7iFRqokdDekwOo9rFei/ffcBqVXkZlTbHe+kmMZUNglIhATBCL6CY6JX0AXKQIiUBsENKdL5SnH2vuBbb99Eb5CoBLOsd2cyTzWOOhZwY8uEYGdCcDg3ATjvB/AGO97j3IXIdw5Ujl7fCne9Lph52BECwp49qHJlgwF+91v8+3us6B4o8DxWAgtleN1ILt0ikdIsW25bi2zdkuxPfh6LhRv1TouIf2NVgIJ6HxKxtCLhmhoJET8wxytv4KuSwREoDYI5MFSkJmC0Wao94r1ei8XOdeLTUZDryGsK0mx9n7AfWKNENoh4Pojv7GLMlaX4HfPxbOShTZyHv1h9axUF1nlEyUEUCWkYQ7GU7eawfnbvvVzWb4UbzyP8Zz8EYkjsx8QlQXJXHFsqq2HMv3kB3n26if5VgBFY7e+CTb9loaWA4UjAxbuJmlx1v28rZaPY0VItxn7JCIQtQTw0PZfZ3bmz2YD16JTH/c9vVckIiACIhCtBHLRUlkL57bPOplN2sVsA7ZjSqGq6A+Lxl37TLOz5pkNW2HWEq3M5FhsEnUFMF736xUFFz3xcnAPrMLzMaOr2TN4VrapgRA9P66upFoI0PiM6sF3zehL8YbOOnWTWfpJZtnjquUyqjkTzFY+8fp0a9c0zlZuLHborN8GRtj/14PT7NtFhdYDk659t7DQDhyQaIcPSbSnZ0gDqeZfQdlFGgG8UI9caPbvz1FjpKNDvys69tGzH4/9EhEQARGIVgLsWN+w0awz6r9Dl5idfrjZmtRovVqf14XOiW5bzJ76AO8FNJfadETHLNytE321En2WQcnqnEAeGvjt15v1QOfLQcvpOQpvESnfdf67qACRQ4BNZlSX+O9PfFWpY905Hrf5O2UNp8IL46yjUuz0A5Nt3dZio8uU1y3RtnW8jdkryf6NcdxXHZNiSzcU2ez5+XbRkSn2wqx8yyNGL3INF1PZi0CtEkBNMWyV2Y1folGFBlVHBCrcdLuU62Wt/hI6mQiIQC0TSIWS3Ql1XqtWZssWmT0B5fLkUWZbOexM73ynCdkhC1w+hNKFzthO3eBiDq9BvR9q+UaNgNM1gLW7axdYuvGsNPjN7OGP0KaG8p3vW82IgItSEUSgmghgJEoG+nGvx2vjJ79ZRqWta0CnBJsM1/I35wCPJxindOIByRjfXWyPfJBrcc6VF9tVk3KcSdYG9USXXkB0L5k+RSAqCOClecPXZi0wK0TXru4VFeGZkNIdFb+uLkIERCAMAdZzXMUkCaaGLj1h+YZV79pvkEDKhEONGJz3A9pFXXpg+BGaQ3o/hLmhoviQ96ykQMPo1BtD0uDeei6GpllUagtR/EPq0mqEAAzPmQeb3XacGbql/En0PUp4g9w5NdfOuCvLGrA3G8Ilw9Kx/a+TU+2Oabm2fj0s4difnBhnP8Hi/c73+fbSP9Jdl1v1fjvM9CeKCOAp338ZJmjNgDUDYxwLCqLo2nQpIiACIlAJAnSdbtLebCjGMLfIqUTCKI7aHv6LfTHnR+sST6govlRdWiUI0PrdoI3Z8CX4VLuhEuQUVQRCE/CleGO+iSPhfbLxNdTTobOuuyOrtxY5vbXx1K4hRZil/KVr0m1TVrH98+FsTgrneJflFUDLLoqzqx7KtrbN4u2Jy9I04YpDTH+iigCeg/3hZl6M25vugxIREAERiGUCzZtjAlZYwFvBvTrmBe+H9piiF68Ha9pEXlAxfz8EAKD1uyW85Fpg7aR0eIlIREAEqk6AOqgfSUH7vRneWXBIimDBC6UIU5Vfd3IDO3Jokj0zK88+/V8jTBYSZ+kpcXbcXsk25OFE2wKF/MVP8+ysg5Ltja/zbeqn8DmXghLBP6yKVikCeHm24owMeNo554FEBERABGKVAJWJFHjAJeJTVjz3LkhHkycB7wZ2zNLFXCICHgG6nHNpuUTdFx4SfcYwgTfRR4kpQ87D4g9vjjFb5AeFL8Ubz2A9WYkjzmjUHo6Zy+9/O9fuows61/bGG2ZA5wRbjsnV3v0u33Lyi+2ul3KtCyZfy0TPnsay+LmVlKZeEKDijWdCIgIiIAIxT0B1oXsLqEM25h+FcAB0e4Sjo2OxRGAzRip1MrsH7uJLcd21p3jTcEaDMD8jGji6tlNg3T717ixnhnP2Fvzf49kofJxdeESyffV7gf3fI9C0abfHet4jb0AfBl/EkW3Hj2jkKpwIiIAIiIAIiIAIiIAIiIAIRBsBqok0QPsVXxZveJ68B8+kXtBP1/g9cW2lo1vZxkz84Wh2BrqZQ/FmjwEnV4trGGfF3E+J7G4Et4z6KwIiIAIiIAIiIAIiIAIiIAIiUKsEaJuFuuhbY/SleB9mxilJFtbqlVbyZMVAsmJjMULRTp61VMZ/W1lkG7DOt0QEREAEYpWA9+YoWxNyf9l9Nc2I8w+wbq5OqYvrqM7yKy8REIH6ScCZTwX1WTVXafUThkotAlFCoKFZNgzPr+Bylvm9JF+Kt9+T1Wa6YnRJ3DAJM5ij5VV2TogsDPwecXWGYWj3dmt3bRZO5xIBERCBOiLASZTiUfPnlUyoxGJwLoxk7ONax5iP0ploKQ6eQPkh/KnYmExGHUtFuQAVLBVcbxUJ5hdMGLdsXezFY5mYR2VWrGF8Lg3Flm0ByskyBUoiPZl4rOyBwEjaFgEREIFqJuBUOfiTh3qJ9WRFhevMs84KrHeTmB6VnVc3VzQvxRMBEah+AphQDcO87cSq5Ow5WVclj4hNm4MKjF7mwSQD+3lcIgIiIAKxROCnjZjr4ks0CDFRx2lYF3Ls+9jGLM8T5pgtxrJC1LV3e9nsesRJCvGGoJJ+1FvI5yvEQaNwC5aa+WBZ+LAIeXsKNhuTpQHnZtoGj6LBCc2cjc/SY4HxsB0oa7AG824vmX28Ah5MeBV6ZaVCnoQ8J/6Ma/sA25iClOddh/jVbVEPLI+2RUAEwhPgc8hnO9zqGs7ziziMG0q8OE7nWohIXhwvnwTUZc65Q8Svym6WIzDw3D2ec+ufRFwLDUCBx4N1UrJse6Hefek3Ny6bp0xz9ecY1/msW8dVpYxKKwIiEBkE2L9WaZmKicIbmd2BdtSo48w2VDqD2kxAEwtrsLINSCndtfkr6FwiIAIRQoCNuX9ByR7RHh2TMDEXoo589w+zW74xO7k3xhFB816GeSabQHnlsopJ1MTZkkS8UksMvi/HgKNujd1jC6D4Hvm2a/UuW9UyLS0/1+8G5X5/swykm/r79oZ1Kt5C9/+I9WKhIL+9BB2iPF8Z4elTEO+Yrm5R2HCdgxlGvl9n9s1asxvRATB+D7NrdjfL5TXBmr8C17AOc2cWYJuf/V8we3y42bHdXat+mVPoqwiIQA0S4DP7A1qLs9BRdnIv93kv2wxjnIw8s6fQaTaqs1mfpnh+Ue+UFdZbz84369fMrcfopRMorC+2Ic7Dc3G8AzroWpl9stJs3ib33Om+Wr6BZ3C32YGQjfMcPg2dj7mudTsZFWAOysyOvneXmA1AvcN9DCwTOxevHmJ2Vr/t18br/mK12Veo0xqi3uWSbuxIXJJh9sBPbl18M+rsF0e5nkq8PokIiED9JOCr+kF90BztsT3QfmLTLHIFlVfPDvGOBeWXpfgSWFvh607C44FxdoqgHSIgAiJQfwmweuvf3OyU3q6V2XFrRF1453dmFw0w64gBTMvQ2MtBA/EXNFLv/9btt2RjcXBLs4M6QrGFYpxUUn/SgpyJbbZ72fidexLyR7wdBG+JQ6Y4ertTv1JhP2eGYZJLNxYbo2xcN8WsnefM3CHlDl+omB/V2bUCJeDN9fqfbpmuhMLNBv21X5r1xbVtRoP3TOTvSfKDsKYjPhu3Q1pL6fa46FMEapMALc70bLnuC7N927qKd9nz0zq9dpvZFZ+apaKTrm8LxEDdUFY2Qsn9x2ewKPcwOxiKdVnFm+249YhzzefoUByGxiqe+0fmmb3wu9lIxO/ODsPqENR5LPNwdGKyw/BLKM6fQ4E+G0o1z0PFnIFeOd+ik/DyQW792RsdCmXLfB86Cdo0MNsPefGS2SF61NvoKOyGjtI90ZZ9zuyI+WanI+981JkSERCB2ieApkxyK7N90K//82hUM35KgOZI5YUGiSB1YeUzqqkUqAwdP/KsYnvg5nTHvXDUVWhNJqMGhMSlxln3dlDI4drjuR7ypbByU7FtRhop3w4m/REBEYgyAhwTPQ6u5dOXw7ICxZeWYDYAG0M5nrsRCirqxDHdXcvMz1Bm5yF8gwZjKyi9V8JKMxLHzn0HVquVZqu3mf2xxeydpa61mbXrQ7BUtUtzobm1LZR05ElX8KF4W/HF0QuN3qVnug1S1rWXznItQ7NPQGMcyncoYQOX1noq0Dmwik3+zeyxEYiNF9KzhyBr5P3hMnQi7GN2IDoIHkBDllakpw42GzjZtTB1b6JGayi+2i8CNUmAbS3WL3yOvcB5JLjfs2oXYrs16o+HDnA7+YrY2CwRPvcMrK/4mYK8vM67snEQxTkH99Ojhj2D7Fg8GPVCm5L6iXnw3IxLV3CWhcpuWYWYebC8VKC9cmLT7WzEZxrqxgkHMpbZAtSVuzxndnRXeOdAQXYioZz9nkD9Odjs9kOxLx+B50HHAIV5rUI9zI7EK6GYO55G2Hn6B2a/ot58/Qi3o+D/hpqdNcO1hI/rA8s3lG+mlYiACNQeATzOLVClzMTjhxaLvernzKySKi142ONw8sgU1KKtGsXZ7AcbYzKKYuvSOh6VdJz9PKkpKqli24bK7rCbM+0XHGeDMFAmzcyzs+5Ba7LM/sA42hYBERCB+kqADctzdkGjsJvZzV+7VppU1Hfc1xtK6SAox68tNOvaCAr3ae5Vtplodu9+UNj74jsU3iO6oHEJy/L9UGy7Qok+qqtZMyrMeDG8BIsSlWPKGlSlzLsJjtFtkhZrChuwrbCP0ZZkmb212OxCNIrbYR87AnC4VFCdl37vjDJREpDnJZ+gKLgWuqJuRUOWjeVHD0JDHMe24HtLxG2KzoSWsCA9OR99rth/976uW6ivl557av0VARGoAgE+zxSuOjMPHX2/QLFshWeU3jSN0BHI55iK8lHd8PzyO55x1gfUvxciLt23m6Oe4PwUFC8/xuEkigvREbiecVDX0MslUFhncWgMlX/GZ6ch6ybG+2kDPGXQNqQlvAfqFC9jKuf0yKECzCEsXVFHsnOQdRs7CFjWU99DRyLsOozLOo1lOm8W6kzUj/ySi2tYsMmtg755DteCfawD2bnQC+dKxLVcMx11MfIfAg5sf173CToT0bH41pFueWjhvnkvDK9ZC1f5D91OBw6ZYX0uEQERqD0CePSdSWDxGPNR9yVlqqaK5YFn/XO0v8bACwhVZ4QJKjRWYJOm5zqV9k0npdovywvt+Zm5dszeybZvX1wy4uRhSvOH382z52bnWRq6O1+5Lt2JH2FXo+KIgAiIQLURKEblPbKz2d9muY2/gzq4btr3/QiFuisq9Z5mT6PBtxgNya0IHAtJZZiN0yLUq2w0juuF4kCpfWWR2Z6tMXZ7GF4IK/AWwrEPx6ARjRcD30jtn4TLdx+z/+znNqjjsTMfLw4KqmBLQB6nTDVriwbs7fuYnfQBlH7kGSi0arFB67hxHo+xmmiY/gTnrid/cWP9iO3D3kSjHXn1QqN4+jEYb/mG21Bmg5mWqjf+dON2fdbsLpzn1N5ueQLPo20REIHaIcA65IKZZt/h2fWEnWrvj3aHiiyFktrzebTh0JF2Rn/EgNZ94rt4jhdvf245Zptjqz3JRpwToADT4wXZO3Jge+8oPlEP3PCl2fO/4bx/Qf6oKw5/C4o4zrsKLen5OCeFHYSXDMQERqgnWEdx/xicmwo9JQ314NHd3Lrv15OhqCOfQzq5ijg9iKhQn4I6j9dYah3Hvr/SPRx1L+tI1mU8Tss2Oyk5nn3y727+G9BpcPzbbj3IOSvSEYerTzBfDgE6HZ2f7OQ8HtfK4UL0+KG1XiICIlB7BNAsYf3g+8lDNVJ5QftnFVJNq3zK2kmRkV1st7+Ua+1bxNkdZzawl9FNcA++t26eYIO6xTtLzxDZkjVF9vWCQlRucXDb8arr2imjziICIiACtUnAeUvgz36vuBOSfXuC2T/nYPwjGrH3H2D2FzTmOKMuZzan0IWcE7CxZmwP5dhzwXRmHkfjkfsZNmVBSc/DBuSFBRjniMYshQ3jz9dgbCUsP2xopqCReSYajmh/Gof2XDnbHRNJZZkvsmdGohF6EFO6bzQ2Sl9d5LpXHt/dnSCJ+56G0k3X9w2wUHXEuR4ajkb7ErMZUP45Mdzte7vjKDlRG8dNsoF6Bs5LC/mAZm7j1zmJ/oiACNQJAa6s8OzBsGx3gYKNOuPvn7mrK8wd59YpLBTrDE7u+K+v0Nj80/XSuQedeFwdYdwHriLrFB6t2Ie/d8ePj+nmerbQQn3qR87R0j+0DmcFKOs8MB11Bidxe/Mod0LJY99BHbgQnYlDMRQH+dK6vBL125Oolw7paPY/1Cd3/uBmyeJRkT4DijZN3S9DeabRp1RYqQUIJ1ejHN8D1vJ0XB/icrjO3z9FZyjy5rCYVTjXh0vRQXAIJofE9oipsLif5yrXnHiN173sTMyj0cLsPdRvJVkyW4kIiEAtEICTSj76whbEwbnO7+lQtUShOLVRsV00Gq0zyAffAhMq8MZpcbYWFXJ2brHTVZHLxiJmBsqC4u01Kp0E+iMCIiACUUaADUW2Bdk4fRoNu45s/GHncd1h+Wlu9vXJsMygYbdnG9eCPPlXKMt4u9BdnA1FpqdwqS62+GjRmbIQVpf5Zrft5SrLs1dCmS5pDVLx/hOvJlpzWL/SbZQTAzH9E2jA/hcNWLqN9oQyzLyomNOyg/+O0n4yysIG9wP7w0IPKxTjcL3u4WiknobG7t6vIT3yOqK3O6OwY+1C4gM6md36NRrj81zL1qH4Tpf2nlDSuyCw40AiAiJQdwTuxzN96i6oE9A0u3wIJh9DvfHmYndCRzTVSiU3B/XEj5ijAfXTlMNRd+D57gYr81MjYHmGksy6ghbxW7/FMBkoo69BgS7G925oHf8bddL5s0qz2mmDdRKtx6+Ocuu47qiHqBQ/i3pvG8rFGcXno4Pggv7o/ENgvncMx/5Mt97zMmR9Qm8eTujYAvn1QPlKK0svEgpKJZ3X+d5oeOmwIxPH2AFJxf+/w+Gx8zTGguM6/zwd+eD4f+a49bCXhbceOCe3vH53s8t2xXkdAF4MfYqACNQ0ATy+63EOtGT8S3Qq3lCod++TaDecmGpvzsm37/8ssmaN423PXgm2ZB2qOyzgzUrw5BFJ1g8WcPZEtsC4cNVh/m8kpRQBEYh8Aqj2bL92WIYL1pP/rXLdsEd3geskrE6Um2DpodWY4y/Pnu4u7dMeSncHNAQpbCje+BkUdzROl6MBSks4rdS0JjPvmWPglg5lmJVp28dc10guIea0MvHBiYUegcJ9wccYU47GMS0+bADHI1+mZ6DyvRl1OJXu78fCdb2t28XM/ay3j+zifnKJMpzWyZNKOfOYuw5K+YdovG51J4/j7Mc8FzsBmI5Ke2lZmFYiAiJQqwSoLA5tjU40PON4nB2Fdl/USW8sxozm6CDrgPrGk2X4noU6Y3fEZ2OVzzmf374t3YnVmNdK1EP0uKELOOsdxolDxlyBIZyw05GdjA2gLHMITBK+syPQ65hbijqEcTjenEo3801CWU7ovqPi7Z2DnQJ/H4SwB/YgXTBp/JBTxNJDHMf+wqFwVUc9xXqQ9VsL2ItoDWeduoNi7eWJTy7r6FnQSzPThgiIQL0g4EvxfgVzQKBj7kKo/f9Au2hLRF0pKqWj9kqyN29Mt28XFdpfJmTZE5em2dkj2RpEZfxP1NIY+PfOdwWWjgquR9sEp46c+XOBzV2C2kwiAiIgAlFKgBOTPTEf46ShWHPpmwGoyJ+E0k0ryndQWueciEYxGqP9oBRf+ak7e/m1sK5wIko29qjc0iXypJ5wrVyEsZdohI5F3++NiMvlwDj++nMo9GgzWiYaszNXYJKhb1xLO8eGc7IzTn7ENWypCNMdlBOijZhW0mBG45VCpZpy4ceuIs5tunG+cQSUfTTMmX9ZYVIuJcbl0jahIXsJLEK37IediHzoa+5ESKEaxGXz0ncREIGaIcB5Fzh3g6dH8izc53znQxwgW1CHUCHl2OpAoZJLpZSdcaxPKM4M5wGZ0oMmnDAqyxFYEO5jEZj3RpybwrHbgcJ1toMK0nBM+PTFOBpQDsZlObkPUwvtJJ6iH3iA0Tm3RiNcdwqCJlELpKNtEajfBMpUZxW7GNRD3VBfnYu2zU1IEVmKN2qs938osFtfzrW7Xsk21F124/PZGOedbx/C5fzla9Pt0tEpNuY6KuA4GFgRsoKlb6VEBERABKKQAGfHffQwuFf+grGJM8y+OgGNWiiyN33irp/bC+6WXKYmGY3L8/tjQqKvsNzXQDR+SzRdpueYbE6uxvGRnLGXii1n7d0bCjvX6f0n0nC2YE4M9Ptm5I3vnHl8//Zw7URn5/W7oSGKN8+rv7uNXFqVhiGtY81CdmykZqHRy3Vvd23pTuxGSxCPOw3lEL8L43CWYLq9n/Kha83nmsAs+1x0COyH80tEQATqlgAVzRVofu2CuobPPjVdKqycJKwN6qLANhk9aqiU0+2bM6HzGD82omHHjjgq5ZypnPILOhO9Qc+MswB1T4WEkcsI821WomCzDqOXkCOotz5CHRdMaIHmpI8MTM9sWZdxm+J0FODTmQwtyDmdSCV/eK2L0LJuCx7xaKdK8Q6ko20RqDsCsE0kXIRFWNA82QDDM2qiyosvxZvGCNSdEStNGrCyLrYbxjVwXCMLULuzwbhP7wTbA+7mrMTuvDjNuCaaV/+xbixCDXn367m2But5lx6I2KtUwURABESg8gSy8aq49FO3invoJ7dBO+E7uI+PdC0sbNyu2uqOrWTuV3yGcdqHIh4qftaXbDgnlVikPUvOV2sxVnNXNIaxf1hrKPTjUJ9CeWZjk43rxImlbWJn2Z+EkvTMPwf53b0fNrzKGJ8b4WL6OBqwd+2NMqHx7TXGC6DAh3r3cDmg/V9zrelsrPO8VMbx322041MiAiJQdwS8R/zfGJO9bwdYk9FBNxd1B1cz6AtFvG8Td9kwr4TtoHhy/0fLzT6FJ82BnXAEdcdtSO8Mb8HD3QjtvX3ausNfuCzifohD1/E7UKf5FXbyDSjp9LvrB3ccdtuG8OBZjIkoUWeWFSrXHBbDZc7e/gN10Ayz2WPMWX5sl+fhnt4T3jd7uvURXeknzXeH2uyNcnsdjoF5so6duwHWLVyPRAREIHIInIQpb9AntwwBOri94qdkvhRvVJ5x5Xjx+ClL9aRBBdga47kvGpWyQ4XGyq1NE6/aN7tqTIptzMBY74CzctmGpz7KcxXvgP3aFAEREIFoIUDLzOLTMCERXMCv/dJVUDnp2Eg0hFmvZ6GuPPptd1bf/0IZP2O62eiumBOjDxq06MD0hEo3XT4XbHTHe5/cC+PGvUZpwEuCSnBZKbsrMF8q697swFwSLB31smMZK8mkbFruZj3OGYu5NNk/90BD/g932bOb92eHKtbZfdWNU5KFPkRABOqAgGf9/QTDVVo94a6bzQnMKB8djT8BD7fTNsP3lw+D8j0Z8zNMxRjHVm5dQxd0ipNfISZgPADKN57x4dPc8eBcV9tbboydb05c96O0zcf9XnlKDjkddV7cno0x3GawW092ehrlRd3CWce5fjc9aQKFxe4AxZzXctFsDHfsCg8gWMlZ97Ce5AzpHZGO9Vg8vH4enYdOQtS3+3REvVRyLczPKSrizlrizmrOOpUdnhIREIHIIMBHn48sHm389ye+FG9UDvPRFvoXOitRvUWYoJKbv6LQmo6Fnw4Fg2ri0+PsqcvSbGjPBNuWg32sCFH5/bG6yE68Pcu2bcAVpWInBT2WgZW/s09/REAERKCeE2ANRysRJy17Z4k7i/DAFhij3dNd/7bdJCjiu8NajUbxL3CvpEv5np3gLo6qlK7bXGaMxzmOm5OX/Q730FE4ftkn7ozC7aC8c/I1rs/b6XGczGlFuh9cBqy8epUK+hz4b3FN3m/WID6TlFTL7rcQf3GeaX+YdcX5Z8HKxHNxfOfDP8PdHPtZDC4vdGTXEOm1WwREoMYJUMnlZGY3D8OcC6g3noBHC13I6SFzXn8o1fjkpGKcK4IK7xBYnIvR0OzdDPNRnIClAX90ldHDkPaiAe4M4ZzPgR6MgxH33aPMJkKhXYOW8eGdYVxBHlxRgVZlnnt0V3d+CLqQFyPN5YNKJnJDfUOhgnswFOF0tIqbIg7T/OsAdxkzLmtIj5oDO7idgrRoN0JbMQPl45CYRahfPlzuTro2FJ0DDx/onoN1GleF4NKMLea4VSC9gr5A/XYFykfrfWAVx/puMepVzpA+pjuGzuD6vE5JFEciAiIQAQTQvOBzG/joVqpUvhTv49Auw1n+r1Jnqs3IxEEFGkr2HgOT7JXr0qxdszjrfe5We/zyNGcM40HXZNkX9zS21c80sXF3ZdnbGAOu8d21+SPpXCIgArVNIAlvjKs/dxucdC0/shuUZbTorhtq9gkajnyVTPwJjckTXVfI/Gw0lPdwZxZ+7jeMz0aj+ZNVmLgMyjYnMzq4M+Kuda3h7P+lpbpTQ8zUe4irQPMFxQbsiNfREC3TcizAdzaavd3xyO/u791J28iF1q3m6CANtHZzP4VVPPczb2Zw654YdAWLEkMevrNxy0b+6X3gyonvN3298/mZj0QERKB2CPBZpZLN55Lb/ORYZs5AznqAkzdSmkDpvR1DTFhfeG7Yu0Gxfg51SmB8zguBKE5ezI/jsKkYe3GY9hbUV8yH+R/Z1bVEMy7rBA6NoXjnZXwq3od0cvPkOtqXvY/lCZHvbfsgHxyPQ3109Gtu5wAt3+yMPGiamw8V7imHYXnGHu45eV5ORvnYcLPxULpfXOjG436u/c3OB+/cPOLVc1wWkUr+XTinp3TzODs12alYoc5IJpCIgAhUO4EEVA9o5mSi6qLh25f4Urx9nakWEzWF9XrfXRLt/MOSbfSwJJuFGcv3v3qbLcWyYqy0EuDLSMv3vldn2OOXpNlbNza0D38ssAffzrXpcwssE8uN+e/LqMUL1alEQAREoIIEUKs5Y64XnOyOrWQyNuzY3i3AJ10fKcvOcJVqr9HLBuF/90VPKxRwvnFonToVDUdaclLxBhk+2nXz5rhEWpm45jbX2i3VqLH58zizrlDI2eiksCF8WEdYsk6EezgasxSO335sBBq5e7vldJYwK4nvxnD/enkwTyr5bLzu087Nm2XmS+2Do901epti/CflgPbYj7qf64BLREAE6oYAH2fv+fXql2AloXIcKPxaNr6XjxcvWJzAfBg/MNvA7cA8vHzZsfjdWngG/YmjqDs6p6NeQefkm4sx6SQ8f5x9qH++/4t7rDmO8wSByjJXZzi6O0JP9xj+usK6CPWdV4ZmqLTmoz5rhbqwcQo6CTq71nnWqZ4civpy3VmYDBPlkoiACNQNATSf6I8H/zr/wjZKdAlqst3hUv7WP9MdBfqUe7bZ5JnomEBPIWfiLa3p8H0LFOyx/86yQ4cm2Yv/SLPXrku3/a7JsC8WoLZEo1IiAiIgAtFEgA1Rzgwe2Djk9aEdWGp9oUJNxThQ2ACkCyaVcMblNsWz2HhrynINWicvKOiB0geKOBuZDBR+smE7EG6kpfuwwWWDuqAxS+F+75izI+AP93t5crdXDi9KJzSCGScfjVsKG7SUUPm5R/VXBERABFwCdEn/EB14nOPiik/dfey8u2oQ5pGAh5BXhw4oqcO8uiaQX2m9Wk6HHw1CrPecOgtxW6PDMFDpZp7My1kyLfAE2hYBEah3BEqaT5Ur9xswaMDL5tBss2dh7MCImggS1E7TsZzYKf/dZm/OybeMLWgxekuEQdlevK7IsqGH0x2JUozK9X3Ea3v6VjtoUKJ9+auUbpeM/oqACIhA5QkEU26D7WPOwfYH2xesFOHihTsWLC/tEwEREIFAAuxk7N0U47HHYt0guJ1nohOvDRq+qWgzBlqrq6uuCcwncDuwTNoWARGo/wR8Kd6oFIbAWPHwKsxdAwSRpXjzN8FVTZ4N7ZriKd3chgv6hfezuHFWRAs4hTUcKtJc1LLvfoea1dvvHNQfERABERABERABERCBWCPgWJ1hu+G48yZwAWd7MZhlO9a46HpFIFYJoAqImwXNch2qAvTJlePLEpySLzWTZyrjiRg897rcS4t2iVU7sBh58OnJC7LfiRtsf2BibYuACIiACIiACIiACMQMAdpnyo4Rj5mL14WKgAiUEsDcim3RB5eNvrgxpTsrueFL8YZ+GldvhkCzl4C1ZqCw16DsvsDj2hYBERABERABERABERABERABERABEKDPNP2poUb6tj/7Uryhs67Eid9CYq6KHbHCpRdG7ZFkPdsHXCZQ7dEnwQZ15wxCEVt0FUwEREAEREAEREAEREAEREAERCCCCFTF+BygkVb8irCO9xcHm40+xWxTxVPVfsxGGNP9DmY3P3MEnAKoZNOVPNfstWvS7brj6SyALgTu80LtF1FnFIHaISAPj9rhrLOIgAiIQH0joPdDffvFVN6dCegu3pmJ9tQAgRKnad/3m6/J1WrgOqo3S+IAmcISi7az/mOJy3mXLvHWsUW8vf5VgbVqEmcJnHytBB9nsVyPJcZ806zeq1Bu9YVAEe62OCtA507EPk95LFlJbVFfsKqcIiACIlATBIpQF3Jlk0JfpoeaKFHd5ulwQMPHW8O6bkujs0cSAT4rRdubyZFUtO1lYdvGLGP7Dm2JQM0QOM1sFXKmuda3RKyi4PuKkLBZepz165hgDZJdNlS0994l0X5aXGCjhriX/OTFDSzvAiyWSEG0PKw7u3hNkR1yQ4ZtLpkQ3T2ovyJQDoFCy8c9tA0DP1Kt5JYqJ0XtHsb9/Utzs2OW4wWKF1S8Gpu1y19nEwERiBgCXDM5E8tDwfnNNpes7x4xhauLgkDhXotlsnLxbtiGNWLT8A6TAl4XP0TknZPPylaos1lYxigXjqMRKSij49FabMsisnwqlAiUIeBL8X7PrDkS9sESh98MxZTqZfKs2694iRy3V5I9fgneJCXy14OTjeHfr+TYX/ZLtgUriuyW57OtuEQBKYDSfSrc0Yf2SrB4PsQSEagMgXzMdZBimy3bmhseiohzmUCD6r3OZhd/jy7hreiYghJOBVwiAiIgArFGgErlutVmaxpB4UyPtasPfr2rwGIjFO414NKtW/A42ht7BNhO2LDG7PcWaDv40hZqiRmNZcX2Qy2dTacRgSoR8GX7woxqB6Gj+PMlZi2rdPaaSAzF+fU5+XYALNfXPO3O/fboh7m2/zWZtnpTkfVoG2+PvZ9r038ssBc/yrMXZ+XZKzPy7JdlhVC6pXXXxE8S9XnmQuUutrWWGaFXiobm6iZmL/QxW74IUxvgsZDVO0J/KxVLBESgxggkQnnYuBFtdCzC+sggzA5blRlyaqyUtZ/xVlg0n+sPw+FKeAFsMUsQl9r/ESLsjHxWVsOpNg4W78cG4N6I1OYxh5GyqR9nX0QYQhVHBIIS8NWHhU6wIpq5Oa16JMr6jGL7dG6hnbiP6xuzb99Eu+L+bPvb6DTLxIRq73xXYGueb2IXPrTNHn4fXWV46SQlxsG9CuO7oaRIRKBSBN6F1+JY+xHq916lk/hVKoNaiIwHdiIamrujwVn0k1nX3maNYOXAy4r/JSIgAiIQtQT4XmdYthTKBBxSJ6EunNEVlxtZ/np1xx+Nuin94MaITonRv2DoXXdYVWBWoS1C9oi6+1nq4sx8Tmjp/uMPWLuheN++p9lPbVASeIZGnLDxgmEjULyzLd2+jrjy1WaB8LvR29J5Xrldm4LfofSUUd6gfNasXWes7IWq8gQs5P2qH8y+FG/WxewQ3e7M7efUNZim5Ic/Yndo1JD+nRLsiwca2TWTsu1JWLn3xXJilLe+2f7WTcSuItw5pTePE0N/RKCCBOLsddw85zs9r3DZi0TZhqf9/JFml32H4RjzzdJTYPmmq6Uvv5dIvEKVSQREQASCEIDSUATL3RrUdQ9ifNxL6HiU0l2GE5pDE4aZrWhodi46ZzPRSRGP7cidMrRM+fW1WggU4z4owpC0pWgf3L2v2ftdkW0kKt28WrZd1jqfc21xxPocsqQ1Kgmw+Gd1hDcPOs9y0GFW5Ko4NXrOwMypciWiA6TxEgxlnIefBV4IRb60y8BcI3ebeiJuPd/qol80GXg2F4FtZD6OsGqfeUSKtW0ab7ko6NQv8+34vZPs+H2T7ZwJWfbN441symf59vdjUx3X82OvyjBH8UYvH/5LRKDyBF6yd+0vtgX/mqDnNTJvJFQTHKd16z5wK0QFPQZu54NgAU/DU+y7Bqk8KaUQAREQgVolsAFj4z7tgaVEEXLoCEf3VMlOBNj+eXJXs5d7wpyD98PesHg2xSx0ej/shCpqd6xG+2VmX7M3upUoT5H8rHBsN4ZGwG3vQ5sVofpITd4pfDChAS78CzoV4ZmQgG3OKU1FuLaFt8lKlCcVpuCeL8KjcjF2sGMkSqUqj4UvxRvm9Q/AElVzBAp++K6Y0XzihQ3swbdz7NLRqfbD4gKb9nWec0PuOTTJdu+eaGNu3Wp79U2wK45Ot9ZdEiwRNwiXHSviugl6zUTgD1sPihRnt9kG+4+1i/CyQtFejDHf9+we4eVU8URABESgOglQs6xKi6k6yxKpeeH9kAFr51MY18sgiVECfKvtm/wAAEAASURBVE4i+VlhU30zAp/pOHsef2NLSpTu+WfDOwUePD3aopMMk/tybH5dSDF+hxxY3pfDS2beWRi28rJZC0x3V8SOzigSenqzPwG3H+9AX1JHP5GvslYoURxuxuvHphhvggffy7Mrjkm19NQ4e2kmTN9QqOdNbGJL1xXZBYcl26FQwilnYEbzBAyMKEAlU0h/c4kI+CEQZ09gpNE/bLW1cJRvvhAiVSK5bJHKTOUSAREQgVggwGZQJCtdsfAb6BrLJ7AeUYoxzO9FW1B+5OiKkQBr/2+nYq4tKN1D4KFAhduby6JOrhRqaCqGWfaFSXYxVKtfUbbBq80a4DfyVpCqk3JV80mPxzQhqB6Tbna7fHzlHnWOAMX48T//pdCufz7HVq0tUaL5gSvdf0CS7dIp3lo2jrMDByfap/MK7PeVRXbMPkmWmkqlm8F3J4avH0CJoojAC7B3x9lkW4Nr4iKxEhEQAREQAREQAREQgeojwDHMbGdlYmq1JLuw+jKuJzlBp8nohuHt8Frs3n670h0JpefyzB1QpgbwmllyZCSUqNrLQDWzYHwVFG9fFu+n0LHRFV4NGB66bmyk9YuCyCQsD0ZplrajEv31HwXW/9IMrONdaEXbcOcC34qTiq1RA0zA1jnBmdXc6TLaMZmTl/6IQAUIFGOq/2sx6+BfbQX+dkcKWZYrgE1RREAEREAEREAERKACBDiT+XIn3v32nGEmgtgSqijrB7rjuRtj2CAt3ZEkXK62Ndzel0MBL8CcAQnZkVS6ui+LL4t3c6w4AQPxKngicZGByBPelUGU51zo4/P/hNJNF6oGiJBYbHdNzrabnsmxwd0SbFNmsbyrIu/XrF8lehOqd7wdYevhAAU3m2ieXKJ+/TAqrQiIgAiIgAiIQL0nsBRXUGyL0Nr6V72/Fh8XQEV7G2YvT4NLd12N6S6v2I0bwyqL8uVH7PJX5V1BzR33pXhzKDTG0HMKwQjrZwkBylPC+UkbPz/RA/PSden24V2NbOHjjZ3ZzV/5PM8KNa4pBETtrjCBF2w2FO7/wOpttgnBu/8qnIEiioAIiIAIiIAIiIAIlBKgxrIIIQPTqiXbPkZDRywK2pTF0GV8KXC1xCsBwwHok80QTTIZBufpuAOnwQDt97p8/W7gGMeEkd6RkQ8letbPBfYbXMt3Un5wAd/9UWh5+cX245JC+9uj2XbvVJjEfTnf+8WvdFFKoBiTfVwPN/MXbQmukMtdcEySRAREQAREQAREQAREoOIEqLwx/IGwCTa/eBtnzzoreFc8D8WsEwL82aJJoE3GoznfENcFe74/8aVm4oR5sHZnInFEj2DNzCu2Q67LwGLyKHHZLgZMcX/Hq7l218u5jtm+iMd9Y/QHX6minEATOx09s3xZnGQd8NkWAU+tRAREQAREQAREQAREoAIE2G76HSHTaa4fai/YzAqkUhQRqBECdPWuSlPel+J9rMHBA+uj18gVVXOmBUlQukM4xNMFolCWyGomruxKCTxqXMNunI3FNCBL7Eo4RcU5CjjXNYzoLqvSK9CGCIiACIiACIiACNQuAbTPHdmKv8sQctCKirOT7SX73D2gvyJQ+wTo6U21Ebend4dWuhBl7cCVziDiE4RQuiO+3Cpg9BCYYlfjYg7FhGt5Nh9b3qRr0f/0Rc9vqCsRAREQAREQARGoeQLUbOBW61i5F+Ez216DtrMrBu9J6a55+jpDGAKwdK/FasFdYLV+N0y0sId8WbzD5qiDIiACZQkU2xT7yM7EKgDb7G5basdDCW9imJUSf82w3qHTd8b+M3UUAYJEBERABERABEQgJgh4bR/673K6tI0IGxCK7De0jW6DlXsSvklEoM4JjHW9zJdWpSC+FG/oBvELMSK6F8Z64+RSFaryCyht7BCYhJk4zc6xE+0GuE1dCgX8SkvF3Jy0fGOtQ2uIgDXlscf1ZdGTBRASERABERABERCBqCPAwXgwHzrKdmbJNpXvfPsB7aKb0Rb6EJOocdVuiQhEDQFfivcbZse3MpvyglmHcWYro4aGLkQEap5Asb3sOJtfb5fgxbLOjkWv7gl4tfTDdnOcnnMnUP2ms5VEBERABERABERABKKNAE0LVL2zYNXegnbQaijbs/H9Jfz7LtouVtcjAh4BX4o3EhfS1F1v1vH2rlafIhBJBO53+npfQpFestMcm3c6LOHpePmk40WU5LySIqm8KosIiIAIiIAIiIAIVJVAPLxli9DiSXXmKs/CsLtMcyekrWrOSi8CNUZgslnL1mbTMeff348zm+HnRH4Vb+dckb6Otx8gSiMCdULAdaeSS1WdwNdJRUAEREAEREAEREAERCA0AYyESMLK07vCJbVp6Fjhj/iaVxn+IcUchiERAREQAREQAREQAREQAREQAREQgWgnwNWAq6ID+7J4Yx3vqTiv7zXMov1H0fWJgAiIgAiIgAiIgAiIgAiIgAhEBwF6etNiDQXYtw7sS/GODny6ChEQAREQAREQAREQAREQAREQAREIT2AFFrtrbHY4PL+/Dx8z9FEp3qHZ6IgIiED1ExiKLDchLKr+rJWjCIiACIiACIiACIiACFQ/gUvdBfDer0rOvsZ484TQ9n2b2atSYKUVARGotwR2RclnITxXb69ABRcBERABERABERABERABHwR8Kd6vmx0326zoVbN2Ps6pJCIgArFHAN45NqVPnz7pHTp02AvbnCdCIgIiIAIiIAIiIAIiIAL1hUCVDM++FG+SgcXbttUXRCqnCIhAXRJgPfNGr169+nz55Zf29NNPsyyYo9HGc0MiAiIgAiIgAiIgAiIgApFMYIpZk+lmT79ltrvfcvpSvDmNOhVviQiIgAiUQ4B1zBNpaWkHTpkyxZo2bWojR460J598ksluQjiSGxIREAEREAEREAEREAERiFQCuWZpWMP7NOjBXfyW0ZfijZM606lzWnWJCIiACIQhcCGOnTl58mQbPHhwabSzzjrLrrzySn6fhrBf6QFtiIAIiIAIiIAIiIAIiEAEEqDhmQZov+JL8cYc6tOyzFKPN1vt98RKJwIiEPUExsTFxT1w77332jHHHLPTxd5111229957c2WFFxEa7RRBO0RABERABERABERABEQgAgjQ4EzjMwZ5+x7n7UvxHo+J1Y5wp1SXx3kE3AgqgghEIIF+KNMTp556ql122WUhizdz5kwbOnRoB0SYjdAwZEQdEAEREAEREAEREAEREIE6IgCj89Y8s+uh/P7ktwhax9svOaUTAREIRYCdgrN32223ZrR2r1mzxonXsGFDS09Pd7bXr19vhYWus84999zDcd+D8/LynsHBExGq4sXj5K8/IiACIiACIiACIiACIlBdBE43g+5tt1UlP18W76qcUGlFQASimgCt1h8htPzuu++sRYsW1rZtWyfQtdyTfv36le7ff//9DUo3D41BuMGLo08REAEREAEREAEREAERiBYCvhTv18yOmm62ebJZm2gBoesQARGoFgI5yGU0QouAkIztdUlJSfhwBbOcc+MRhMB43J6I4HvsDNJKREAEREAEREAEREAERCDiCPhyNcfA8mSEJvAH9aW4RxwFFUgERKC6CBQgow1BMgs2H0Q24m0MEle7REAEREAEREAEREAERCBiCGA8ZHons3M2m70FF81FfgrmS3GGwq11vP3QVhoREIFAArJsB9LQtgiIgAiIgAiIgAiIQEQSQKO1MRTnexEG+S2gL8UbJ47jdOqOs6jfMyudCIiACIiACIiACIiACIiACIiACNQDAkUoIw3QfsWX4g2F+z2ctBfmUl/n98RKJwIiIAIiIAIiIAIiIAIiIAIiIAKRToAGZ47RhvLsS3/m9fka432YO536QmYgEQEREAEREAEREAEREAEREAEREIFoJQBtOzvX7BVMWrTU7zX6Urz9nkzpREAEREAEREAEREAEREAEREAERKA+EcCEaphXzU6sSpl9m8pxUk2MVBXySisCIiACIiACIiACIiACIiACIhATBHwp3lPNhn9k9hXW8+a6uxIREAEREAEREAEREAEREAEREAEREIEQBHy5mkNbb55ktkcW1vMOka92BydQnpdAsLWOy+ZU1Tzqe3ryqO/XUNXyl8egPtxHvAaWMxSLql5DVdN75eNnKAlVdi9+eWWo6/QsZ12Xoa7PLwbu3VrXv0Ndn7+8+6C8Z7m89DxeXh51zaCq5xcDElCdGq33UXnPr/vr629UE5gCvbe52b4bzX4e63OCcV+KN6dR53TqkkoTuAopjkAIhe9FHHssTK5749gtCKE8FZbj2DkI+QjBhB0lcFiw1GAHsY/HWb6MEMe5+wWE1gjBKiFO+Hcywp8IoeTfOLAXQjAGvK7/IbCMoeQoHLgcIVTl/jOO/R0hWP7YbU0RyBl9R0GF+Y5CwPwJIWUajjQMcTQd+0cjhJvxfyKO90EIVkY+kzcifIIQSs7EgdNCHcT+jxH+hRDsN2KyLgiPI4S6j3Jw7GiEcCsmvIPjoTreGuDYIQjomwsrx+PorkFi8Le5EGFekGPeLu9ZCnWNryAiOYeS3XDgDoRQ99FaHBsXKjH2c0XF9xBCMeQ1HIRQgBBKeB81Qgh2DWT7F4SVCKHkNhwYhhAsPdPw+skhlByKA1cjhGLwK45dFCox9jdG4DWEOj/3H4wQTsiQ93wwIYMjEMLVR4/geE+EYGXgdd2M8DFCKDkFB85CYNxg8jl2/jPYgZJ9nfD5DEKwZ5lRshFYZ4WTGTgYKj3ZjEQIdx+9hOOhvM94XZcghHuWLsdx1lmh5HUcYL0cSvgM34cQ7Bp4/jUI4Z6lFBz/ECHUewuHHAb8DCVv4UCo9xrLcCpCuGfpVhzfGyGY8N56AoHvvlDCZ/1GhFD34W84dkGoxNjfFIHXkBsiDvfzWQgn03Ew2Pm9NMdgI9P7EuST9UWvIPu5i/myvuE5QslYHDg/xEH+Bl8g3BDiOHfzWSLjYAyYfjPCcQihhPUFn6Vg6ZmmEOEwhFCMWJfz/C0Rggnv738g/BDsYMm+i/GJYaBBhdfA3/i/QY+6O/ksPYiQFyQO0y9HOD3IMW8X6+T3EbZ5O8p88t1+ZJl9gV9Z37yJQJbBhAzPQVga7CD2sYw3Iewf4jh3T0J4lhshZAT2j0cIVufxN2JdRs6hpC0OTEPIChFhC/aHu4/YfnkbIfA+4XU9jjAZQRLDBNDwa4EXzQw8ICcCQ7j2VUhKfMgqLbgD43j3p1U6Zcwn6A8Cw8NQmBPmGA+1QjgIgfiDye/YyQoilDAdKzVWLKGkvHuCFWr7UImxn4pEOKHCMzxMhHBKN5N1QGBDNJSk4EA4BnyhMH246wzF1zvncGzwBRdKQjUAvfh7YmOw9yXIZ+sg+wJ39cCXgwJ3lNnehO9kEPjiCIzSEF+YPtR18uUcjiHzYvpQL2ceD8eXxymdSoLzpcyfJmW+l/3KZ4n3ciiZG+pAyX4qKuHuoxU4Ho4hjx1ckleoj/IYDkfCcPdReVXs7kgfjgEbD+GEz3E4Bk3DJcYxdi6EO385yZ3DPH9CmIg8RzjZGwcHhInwcJhjPNQdIRyDUA1YL1v+RsO9L0E+qXiXJ8PLiVDefXQA0rcJk0d5v+MuSMvnOZT8GupAyX7mPzxMnJVhjvFQPEK4hno5yZ3D/A1Z94eScO88phmCEI7B9FAZl+xnYz/cs9C8nPSsS/cNEyeYIhYYnfdIuPMzbnl18l6IM4gRQ8ikEPu93V2xEY5hKIXYS5+OjXAMNnoRQ3zyPgqXnoozOYV6LzJbPkv8LYMJ0zULdiBgXx9sh2OwKCBusE0+S/sFO1Cy788wx3iI9xF/x1BSXn1EhsMRQrVhCnEs3HuJfHdFCMdgNo6HE9Zl/B1CCe+TcMJnfc8wEcq7j/g+CvYszQiTpw7FCAE2CPIRUJngvz8pryIOmivO9jmevmNxd5d3AwdNH8M7vR+KlVdZKe+FwPis+NkLGKqhGqyHkOkChXGCnZ9xQuVbNj2vI9jLi+mD7Q9M753b+ww8VpH0PDevgbyCSbB8y8YLl54vnvKE6cMxKC+9V0bvMzB+RRmEOj/zCpZv4DnKu49Yr5QnPEeo81TkPmL+LAevo6xUB4Ng+Qaeh8fD3Qc8Fk48hqHuw4owIL9Qv2NF04diWJH6pDwGoX7fslxCxQvFJjC99xvwOsoKGZSXRziGfJaD5Rt4Hh4PVX7GC3eMx738g8Vj2cu7j5gHJVh67q/ofRDuPvLKyPyCCdOGOj/j83g48fIPlkd1MKhonRyqPVOR9Cx7sPJ71+1do/e97CePMwRjRQbh8g7MK1i86mDIPMq7hnAMQl1bYNl57QzBzsPfoLxnwUtXUwyC5RtYfm6zjKHiBftty6ZnnFDpyaAieTDPYHlUhCHTUoKl5/7yfgMvbaj0ofYznSeMEyoe78PyGIS7D1gfhsrbO7/3GSxeRZ+lsvc70wXLzzuXPmOEAHud+KLBDcF7wpf4TujrbNWdqONH91lKw0ttQG8gqMFLYd4r0Wm/YvVWy43rYOtGhHPXqu6rVH4iEA0E1kyYMKH19ddf71xLly5dbOnSpffgyxXRcHG6BhEQAREQAREQAREoS2AqhpLAhWBTJ/iDNgvnl1M2Yajv6Bb45Uy4CsE/pU9f9GSU15URKp8a2k+VKRf+Ld9/D1eiiXCfWF/1E7En5DeYejOL7H9Hm11W9Rz95TAZQ1HgkjorA2XAmJLpfnIJ1UPsJy+lEQEREIHKEKjB3rLKFENxRUAEREAEREAEREAERCA0gZPN2I0Qbnhb6MQlRyrighU0E/Q+qNEclIx2ioAIVJCA6pAKglI0ERABERABERABERCB+k3Al+KNGXsGzzR7eIpZk/p9+Sq9CIiACIiACIiACIiACIiACIiACNQsAV+KN1z3uyPhefgMN7thzZZcuYuACIiACIiACIiACIiACIiACIhADROAwTkBhueuWHPPt/7rS/HmdXGgu0QEREAEREAEREAEREAEREAEREAEopkAprZvgxW9/sTyAEf5vU5fijcGZsZxVjbf6r7f0iqdCIiACIiACIiACIiACIiACIjATgTiodlV50JPzIt5Spz1+IqzAQLG54oszRcUmS+UOOF8uJn/C5o/ZlSXiIAIiIAIiIAIiIAIiIAIiIAI1BUBLi322rswyS7brnxTaQ4XyivrGszj/cyrWMory/V2LoYSGBjKSx9Nx2lw5mLyNED7vS5fy4kdhyXkcML/83tSpRMBERABERABERABERABERABEageAnn5Zn+/xezav5ldcIrZhk1mo/9qlgWluQDW0uQkV3nOh702ERpkx7Zm054wS6I2GURo7Z73m9kNd5odORLrkGMt8sChxtQ+t+WY8byxILjeQlzqBvRl4Kr9iS/F29+plEoEREAEREAEREAEREAEREAERKC6CVARptU7gRuQQmyvhcX68OFmu2H16WdeMWvc2Oy4w8zen232x1JEogUbHyVJsLWjxOMA8zwGCnxiGa2R+f/jPLOjD3Hj7Jgy+r7B8LwWV9WyKldWBmFVslJaERABERABERABERABERABERCB2iSww1hsKMtUmLmvCFr1GCjapx9v9sW3Zp3bm914uVk2xgz//mf4Ejou5SVRTjjCrFWL7fGRtWNF79Mdijs1d0mFCPhSvKeYdQP7wxai8+R8eBlU6EyKJAIiIAIiIAIiIAIiIAIiIAIiUG0EqGB/P89sC2beog68eLnZp9+YNW8K6zf8op+fhuM/m81dYLZ8NdzRbzL7DEp4QhAXc+6j0u4IPumSzvzPOMGsS4eS/SUfhXBfpwJf4HuqsR3zi4VvvhRvDBHYDWFimtnrgCTFOxbuFF2jCIiACIiACIiACIiACIhARBHg5GkXXG+2Ako15Wm4lDP8+xpXac7BiOStma47OcdjczsL2hsV6kBhPrdPNPtmLtzUoVTz+IbNrkX71MvMUlMRm5o99idBg7zzBljQ2wXmEN3b49EncbhZw2zoviN8zmwOxJUXMC/G7yERAREQAREQAREQAREQAREQARGoIwJUkt9/zmzOm661+h9wR577vtnIfVx38L+dYfbkg2aD+5sdvK/ZEw+bjT0quKWalvEfYD1v1BDLRmPRalq5Dx+Ogc3NzdLxvWG6O0nbJ1+bbdqC8/nSJOsIVBVP28esLfoctqAvAsO9/YkvizcYx8PirXW8/TFXKhEQAREQAREQAREQAREQARGoFgKccTwtxc2KCjMV5dVrXVfzl6CQL1hk9usf2LfO7NYJZtM/29nVHEqlY83epZfZiw+Y5cKNnNZtjuH2rONUtDdvNes/cvs+96zR/xce9VVex9uX4o2OleX4Ld7A7+t7OvXo/3l0hSIgAiIgAiIgAiIgAiIgAiJQswQ4iRpnH6dQUeY23cG7dYIlfK4b1m80WwVl/JHnoTRDgaY1m8q2o3A7Kd0/VLK9ydmcYwERuD+GjNwBVFyDM1EEGRq/Q7xwX3wp3sebfYlMjwmXsY6JgAiIgAiIgAiIgAiIgAiIgAjUPoHmzWDZngwlHKduAtfx4+CC3hFjsv93E8Z5Y21vijNzORR1T6h0L1xsdsl4pIOltazwOMeMcymxWBPgKIbVOw+fQchUjIYvxbtiWSuWCIiACGwnEB8wECjO81naflhbIiACIiACIiACIiACPgl4TSs2t3LgmrwOFu4FWIKKyjXdz9fAzZyW8LdmYDZyKM+Mv+cQjOfGuG0K9e9+PV1X8jk/uG7qjM/9nO3cs6Qz/90GunlyX6zIWHjq41pLHPr9XbUUb3/clEoERKByBJIeffRRe++991B5J9iaNWuYuireOpU7u2KLgAiIgAiIgAiIQBQSoCLcGBZtupHTb/y5qWYPTDI79jBMuvYxlG0ox3QRpyK+aKnZb3+4+6hMP3uPq3g7lm8o2ZmY8fw/15oN6O0uP7YLFPFUqJrvzjJr19pV1P9AHrdhsjbOaF7g2/YbhT9EBS7Jl+L9mlkLjOHvt8nsa2j/eRU4j6KIgAjENoHP/vzzzxYIqNZL5ffSLW2IgAiIgAiIgAiIgAhUmkAm3MaPORezkWNGcirJudDMzhlndv4pWPILy4xRGW8Cxe2IM6Ast8d60P92lxSjKZvrcHNW9AZYKowTrj2HNb9PO8HsF1jKjzzTbMpDZgfuicnW3nBd0L952y3e1Pexxje0yIkT3KXJKl3oGE3gS/EGq4PglTAFk9rh57NVMcpOly0CIlBxAqMrHlUxRUAEREAEREAEREAEKkKASvPgfmanYxKu3fq7k6ZxYrWv4C5OpZqSnoY1uWExpYX6o09dZZle4nQzH9jXdS+/5P/MxsBKPmyQWQYs31TWv/re7IBhZuOOMTvrKlhckeeQARgnPt7sYsTfH8eOO3z7eXiuaBXwinsZc9bNB8bxcBrwc51+Fe9CdJDYNj9nVBoREAEREAEREAEREAEREAEREIEqE+BY7duvcy3dVLTpes41tsec52aNw844bSrjdCmf8bljBHdc0OlS/gWs3OdeA70O4765BjiV7qZNXIX8+3muZXvYYHec94efwA29j9kJR5g99gIs6g/Dkj7CnUG9yhcS4RnA47stLM4rk81ORFFf8VNcX4o3fsA4JkTniUQEREAEREAEREAEREAEREAERKCOCGzL3n5iTojWEJbsT1+FJTqcXRZKeAq0yK1QtOmWfvhws+6dzfIxdTfX8D4T6iXXAs/PN2sORfwqKOX9ukMJhCJIa/l9N5t98pU7Cdv2s0fvFg3OQENTdziqYQH4Vby35GEddnSm8PwSERABERABERABERABERABERCBCCHQqV3FCkIr+RC4qO8+0FW6mYqzoh91kKtk50Hxplx5DhQ/aH5U5qnc9+pi1geKOPfFirDDoSriS/E+FsMDcFKMCJCIgAjUBIEpJ1rC/Jc5HQZkuNn4WTt2cqETMgF1ZMjj4+FphJQMQdNjb9x45DHLPWzY3qnaxL7Eih5HNkWIv0MP4BTk/xDOMxwH4alUjHExJSONsAPC4xgnE/IayjteHoPyjo8nn+EWP2sWEA3fmTGKWFlGvL4d6uTxJQyxH6famdH44ZY4fia4xO2YjvElIiACIiACIiACIlAbBOiC7o0H985Hy3egcNK2QOFs6UVl4gQej8ZtNvLiy7T1KnOdbqO3MikiKW7Hj+6zlIaXOnPee4vX1UT5mPfKlWYrVm+13LgOtm4EnDIkIlC9BPAwx718Yv+ktVtzey34ZeGPyJ2rPxQnxll8i24d9u7Wvv3aovxt8b169ciY/Pwb36KS7IA4RQk43qxN88N79uzxO4+3b9Eme9q7M9+GLjcIcYpw+8Y3Tm90dr/BfT/m8cT0RgVffjLnvuKCwqN5nOdJaZA6YcDg/k8lFOXglCn24w8/n5+Xm3cFKxhKUlLCqwMH974hMT7e2TV//p8jMjO2TcQhpw6Jj4+bO2z3vmOLSo4vXrK+87rVa95HZNRPTqwtA3fru1eDxARHOc/PzE3+Yd7CH73jxSjjwF1790tLbYgqPNdaN2yR+9b02b/heAoZAER8n57dBqW1bJ7FMnbp0DFrytT358cVG5yfrJgM2nXssHfHLi6jpmDwwbscxWSdodIWMX2TFs2O7tO35zwySEtqkv/x51+8iMFOe3kM0hs1uGTgoAHv8HhhfGrxD3N+uLmwoPBk5o9gSSlJDwwZPPB+lo8yd+6ik3Kzc252DuJ7XELCR0N2630xGSXFxxXPW7Bs9y2btrzA4whYujxu0bBhu4xiWh5fsnxTq+XLVrCM2/AbLSwstkmtljrzlezQgcH4EhEQAREQAREQgfpHYCqGS2Pus02dMFFZs5RqKD8aFL+cicbVIFibYQKl5TmShCoT3dS//x5WdLQSU9dXvXRsR/2GpdAyi+x/R5tdVvUc/ecwHugRSpp2lc/HaTRXPlmEpJDiHSE/hIpRFQIXdbDB/Qf1ssZpqVfigRxlxXEtVq5ZV5plEboUO7VrhfWvS3RY1GorVq/HGBwYSpGAxzu0aWFJyXBgcTU8rOW4CctJ5LnjcLCvdcumWCoCNT60TMr6TVstC7NoMD2lKRaAbMypLUuOb83chok5MkuPp6elWoumjd3I+Judk2drN2wuPZ6cnGRtWzYrPc6yrVq7ofR7PGb66Ni2Zel3nmaZs+Bk6S7r1L51ifkb+1CwZSvXojhuefnZmcdLCszPZSvXwd2pyClDEY47jDijiJN8R0ZM3651C0suYcREa7CgZU5uvpOep2mFAUxpuE6PwcYtGZhgJNs5zjybgA+DJ5lZ2bZhc0bpcfJlHp7kwjdr9bpNpccTse5G+9bNvcNO2ZevWu9cY152Nn7HIuvcvfvos6f++FZpJG2IgAiIgAiIgAjUWwJT60jxdiw3oMb2DYXNI2573929wf+WjZuI9b7pXl6RtGymRbPiHZxYxff6cjV/E/OqpaGdimb18rFl3EcrfmrFFAERuKSz7YK6cPbWTVvSG6WlxVORRNVmrVtvV1JJKR+VZX7B9m7N5i22K7k8Th/nwvztx5s2264k8zglJ3+7p3fDRg2NIVACjyenplobhEDJCTh/HJTINm12LGPgcRrCy17DjsfRGVDmGnMD8ud5W7VqEXh6y4VJmGw8adlquxLLfbz8/ICu37KMSCcngFETTNm5XU12cw1kkJaebgyBEngNiSkpYLBj93XgcYtPKIeRlR73OhSS4ovfnHT8gIvOfPVnehNIREAEREAEREAERKDSBGAfcTr+OZM5leEtWAOa22WadjvlS6Wbk63RDsFtup+vgdW6eVM3/U4JtKNSBIC08gJf0KPgMbEYv0WbyqdWChEQgQACj6Q0SGnUulXLeFo8JbFJgBZ5hjx0LqTEJzz0+LEDjz0P77jYpKGrFgEREAEREAERqAwBKtdwPnQkOdns5EvMrv2PqzzTYn3GFWanITBeKMs1j3Eitb2OMXsKE+1wHW+u/T30KLOXYHXlWuBcMzwwVKaM0RCX8w/BBARS/sSXxRsnLMjC+aCAbzc/+Tu/UolAzBL4Wzc7IKU4br9u3btYIrohqXhJRCAPQweWLlo8NamLXWlL7L8iIgIiIAIiIAIiIAKhCCRB4f75Vyz3davZ25MQC83JbKzJTZdvCkYP2u+LzU7CAOmGUJ4xGtARao/c9mYtp4X7vidhHc8we+09s1klS4VR4f7v42Yffrp9TDmbrHB+tIcnuIp4LDRhJ8PgDF/MP14zGwd0b7gUK/fXl+KNHyoOnSdax7tyrBVbBHYggInBGjRp3jS3QYOUFCndO6CJ6S90O+d4fUxjx4ndpHjH9N2gixcBERABERCB8AQ4njsTFtEfsFSMJ7ReU/ixcLEZpqWxj780O/tq7ChRmrk+99BBZudBjaTTJZXzR6Fd7rO7u7QYZzGnFZ15M4/e3RGvRGlHLo7S7pwnRuxGuHQMIrQ0MPWlP5OZL1dzJOLQgY04cQB+ZicRARGoKIEHFtv7Xbt34jTiEhEoJcAhBykYhIWZ3nuW7tSGCIiACIiACIiACIQgEAflLFh7kmO6Z0HhpmJNxRnz7joW7SmYxnXJSijPUL4ToE2uh0v5UWdjmRUo6FuhaHNcN+bQNcwR64z5ZvoNG9193L8KcwCfcLiZMy9viDJF4+6q9jH40tiPgScDYMLaLhEBEagKAVRkJSNyqpKL0kYbAc4CX7JUGt+jVa3now2PrkcEREAEREAERKAcArRG06pNK/bZmA37kdtcpZtKdf+DzW6/1mwPWLwzoGifdRVcxjFfbBK0OyxjaynJ7sRqdCdnoGLv7IMCzoYJlnG15O2L5ZRTkug4DI9799qrcDm+FO8qnE9JRUAEAgigIisuRiUmEYFAAm2w7FheUdEBtnSVlO5AMNoWAREQAREQAREolwAbD2kNzP79IFyUYaHmjOZ0Gc/CeO/FS12lmtZqWripSE+A4s3J1M6/3nVr5rhwzmjupaPFm/v4yfhYjdVymBYKeawIcKzFZXfB0HnY+/2JFG9/3JRKBKpM4Lw2tmdmRlZSOmetkIhAAIEEWLy7d2wPJ7BVAXu1KQIiIAIiIAIiIAIVIADN+5eFZpNfN2vX2uyxF8wugyt5c6xG+9NvULIbmnXr7FrEOTHagL6uUs3J1lJh7W6M49zGlDPWGAo5J1xjGm/l1xS4rDdA8zWG9G4b6w6xRreFf/HF6xF0gHwI/uNji7d/ykopAkEIJKfafatXrU121nYIcly7YptAfhFGeUtEQAREQAREQAREwAcBKtyX/9Xs5YlQ2KDx3fcUxmRDWX71HbPhe7sKtjcbOV3Sac12LNp0I8dASCdACec+xkvCtrc/HdZyLjn27c+wequ1UuFfx5fFu53ZmMZY0m2IWQecCVYZSQQQ4ETzvPULIqAsKkIFCODHQl9i/RvA6/nGxwX1L+ItiNo5pGC96sIiLIuA2xW1OGdzj+PbIIQUs7aHBMZxZ4Df8RxxvPVR83tlC8wueDkDY0TeNikWxmOUt0QEREAEREAEREAEKkiATSouL0ZlmG7i4//uWrVPGGX27Ktm++1h9uX3Zi8+4C455mXLdAkIPE5L+U8L3DywwqmzLFmf7mbzfvViu58F0Di8pch2PBK934ADlDj/bdjGbkgAvhRvcC7Yhiy3+jxpyNLoQHkEBiDCnQgXIfwZEJk3wSQEzF1oJyE4Ch0+y0pv7GBHCX++lxCuRgjMB19LBf0rdi/CDQh4BB2hPoCpFMzVhtx9of4yLu5PgzOKJCiBYk6sRkT1Rwrz82yfC2+25LR0++R/GAjEmh2XUIz1JRq162yjbnnSvnjkVls6Z4bFJ+LyKF53KjbjExKtaZcetmHJr9b9gCOt9yEn2Pv/h+7YQA4l3a1FRQXW/9izrU2fQTb73mutiDU8JAFdrvGc6SMAXSGm5SxGSExpgCLxcSgRFK8wN8dR8L1d9eFzLaYMXfjHUjiIGZ95iQiIgAiIgAiIgAgEJcBmVgqVbTR/1mPm8RewwvTCJWa9urljunn8NkykNvtrTKJ2pbufk6pRaWYzjmHlGixQvczs0APc4NgzcDbOgn4e0o7Yx+zw4a712zHzsSTQBtLS8BnQHuPuaJXJZi2nm02HEoXuDJvh5zp9Kd40rbJpS9aSWiXQGmfD5P3WpOSsGG3hCDUSPE52F0J/hD8QPKGSjUfDUcrZV4XHx1HeT8DnBIRAYX7Mm8p5c4SxCFS+PcUbj6l9j1BR+RwRD0RwNaaKpoqReEVx9k1yauoeqO/qTZ1FC3TLHn0tIYVPP+zMqOXj2aUK2bpiseVmbbVdx55nS776yFGQuZ9KeRF8mArychxle8TV99qLZ+5v6S3aWNv+Q6EUFzq6OTmw9m/UrpMV5GyzrHWrrE2/3XC+XZzz8HD+tkwb+9TH1rhtJ34tlTmT7rAF77xgJz/7hauUlx4xm3bZsbZp8W877Q+IEnGb+fkF4FbMZ7k+3R4Rx1EFEgEREAEREIFoJ0D3b67RTbvFwEPRgG+KhrdngkMrgpP4NoRr+ElHQwF4BD36fczSMfEamhqO0NI97QOzux91rd5seXAfZzv35JHnMSs6Apt8nN2c52K8wbu4ruxc35sKfDQLLjEJOvCuwAbC/sSX4o0TF+KkufiMkT4Of3BrIBXmD3Qks+RzNj6bIfBWpyUaj4JNR/CU7S3YPgPhR4S9ECjHIOzubJndgU/0jTlLWnF7GMI5CHsj8JHyAjYd8R6p0/FtYcm+YB+52HkRAhV1SQgCDy6xi54Z2u50uE6jOoxwQW2an51peZkZePgLoMQWWPamddbviJNt6JlXOUo23bxT0ptAEU+yk59jnwsqCEyJuX7hPHvvn2c5NX+PA0c7+w+86m5r2LK9s304rOSsSHK2bLIZt11ih/xzoi2bM9s+ue9aJ32gxZy1Oiv2Be++YAveewljlhLsiP88TyXVqfHj4cL+6f032oZF85wyHXUnHDucY86p6tUfXCafP4kIiIAIiIAIiIAIhCRABZqTo12Kptah+8MCB8X6WLTmOW6b1m5OlHb/JCjWj0Exx7Gp76HBjxb6JWeabYKmQCX9nL9AMUcTrQF8Z6lcczK2CXBHv/p8KOtQyP92mtmUt81atzSbeKtZ105QzDHhGi2xJY6KIcunA9sJAG3l5Tiz15EKP42klgh0xXmoQHcpOd8/8InHwLoh/A+BlmwKnRHwiDmhDT7vRkhDQF+YMQ0Vd7TnnXT4MGo+jRF4H9DazfSMX54sRoTfwkTKwbGVCIPDxNEhhwB/Dv5kkS1Febk26IQLrGnnHtakQ1eM0U6ykTc+aBmrlllayzY254nbUblDT3TcynFN0I4L4OLdZdgIS2/VzoqggHcYso913nOkY8lOSk0vtYgnNkC/AxAUYF0KjNKGq1TiDmO6dyKDuPnZWZa9eb3jur7DcZw3N2OTcywhKcU9RMT1U/A6k4iACIiACIiACIhAaAK5eWYj9zEbNdxdHoyKM1uWaBI5QgX6jofNRo80e/5+s79eZXbd7a7CfBZ8W51lw2C6oxXoK/i1TnjQHc992zVQPk5AWljJO3fA2PBpUM4vNtv/RCjiMMGdjmPtWrnniIW/VJCoKLGV6/d6fSnefk+mdL4JUCmmFZrKNGU3hC4IdHXAVAmO0kwLM/qjbBICleKJCFS8+Ru3RjgI4WSEqQgUPpPHIgRarnflgQrIR+XEoaWOHTNzyomnw3x0+UtEuHBCs4at21uL7rtYYmoaKvM4a9GtnzN+mhObzX/rWdv/8v/A3XyJrfj+E9vznOtt1p1XwgLeyPrCKg7TtfUaOcYK4W7+xlVjbeuqJTZk3MU27KyrberfjnT0dacWo29TOYIp2WzgcefYAIz/5luFZaELegEGInEM+sjrH3QUc2cCN+ZFvvWAceBlt2je2DZv3ooLzKhnJQ+8Cm2LgAiIgAiIgAjUBgFavT3XcaqFtIXM/x2N/5OgFPzhLiX2D1ivt8JKfdeNaD6huXXDnWZzF8CCN97sGWgTtz3kLht2+vH4Dg2iU3vEz3RLz7xT0bJ/FUr4R5+61vMHnzE7eD/Mbn5XbVxh3Z9jBbyEm6B/A+jQPeFPpHj741bbqX7GCQ9H2BcBt7udgkDlehzCnwi/InyNwEb6twj3ISxEoCKOR8pxJ78En1SI0U/lDNHHh6GvyknL+2AZQkUb+egfc85fiM9wsg0H8ahKghE4Nc3a5eTkJiYnc4RAZEtCcop9PvEWWKWzbMz9bzjK92sXHWEteg6wtQu+t87DRhrdyL964j+29tcfLQmTrx19z8s28/Yr7Jtn7rKkBg3t9+lTHdfwLnsdbAmYHK3tgGHORe96At4EUOypKC+bMxPW8dC3TCLK8c41p1g8mfFupXt742Y24qr/Ohb2l8460LGkH3jl3U5ZOSlb3rYM5I1qsh5JCq5vwC69Z9tPfJwlIiACIiACIiACIlBxArREc/mvhYthcXsUVuo9YA3PcewVaIuZPQ6LN+P8DA2C36lAr1iDcaLQHFpilqcstOBpSafVPB2mXi5G44zrRhEOPQDjVg+FQvKN2dp1SI84HNUX7XIpkOAa36vKdfpSvMeDMZrMSUe4M1bHAOqqIK7WtHQZp1CBpoHwFYQ3EJohXI5Aoet5J4SnEbog4JGwBghU0tsi8PdiWsq5CFSO+f0zhPkI4cRLR6WeNx+V+HDKNzsM0EFUYYUeUWNHmrayqcuXrkzpgWkn3SWyIvvaE1NSnAqYS3uxvFTGNy35zRo0aWGH3PSIrfzhc/t56hMY/52MMd1n25gH3rTdT7/c3rrqJCdu676DreOwg6wTAoUzkFMGnQjFGxKPN0T25g2YiA01fRBJhvV80NgLHPdyx6MdcWhBpxW+cYeucGM/yFphBnROAJfSqDEU+6E27OxrMBt6vi3/9hPMtD7TsY4HyToid2UXFNav3oKIpKhCiYAIiIAIiEBsEeBM5I/d4TbuMRWOM2Y7G612KtGebIHl+7q/uVZyKtgcu33jxWjc57tKtxePE7d98yYmkaK9o0TjowJOxXzPQW6sWFtSzGPj59OX4g3OYxpB6XsVY4ThjbDKz4mVxjcB3vbop7LPEQYijEJAH4gtRvDkFmwchcBemSEIHNs9EiFQmA/T/Rqw8+8B28E2G2InFW0q3b0QrkQIriXhAOR5hPedLf0JRoAdKPWoV6LYsUZTsU1v2dZOfGy6LZzxOpb8OsO2bVhjM++4Asq0O/VDDhToOU/dYftdMsF6HXwc4k2z+W8+az+9honUYKVmGHLS32zo6Vfa86fs6SjyfB9Qod/tFPQp7iRYew3jwjsM3tdR2L2OCrq/szyZa1da6z6DYVlPt+SGjS0vKwPu7Isdqzo7Cnh86dczdnzr7HSOyNnBl2NCWnJo03/kFFUlEQEREAEREAERiDACtGJTqCyHUow913TGYaByHkw4I3owCZVvsLjRsg+Y2ETDhz/xpXjz92GLkKZSSa0Q6ICzjEYYV3I2KtO0bH+DgKkOnLEG3fDpCRW6KxC2Ijj6DD6ZhvvQ91Xqan4ftjcgUJl+GsFRBPEZSjimHH1hjuJNhbp1qIjaXz6BOBiNq/Dsln+C6oyBaqbdrntZ56HDrVmX3nAlb2irly2CMjsdim4jZ1x3w9btMGaIt5crnM38hxcfdFzPqfxy/PVup1xmTTu6t2qTTj2ciAddi1sZNX4+Jlf78vEJzraXx/bPOMtav8qmnHuwM/Fa5z1G2G6nXmZpzVvbp/ddb4s+ecuxZickp0LZvxWu7wfZohlvOmPPs9avtsQGaaWTuW3PM3K3Nm3OsN8W/nwXSoi+TYkI/H97ZwJnR1Xm7ff23tkTCAQT1rAH2QQEFCEiIotsfjKK27jijIrLOOo46kTH0ZlxRsd1ZtDvE1FR2cImIETDKoIisgRCEkggIZCVbN1Jd3r5/v+6XclN6Lq3u5p0enneX5++Veetsz116lS9dU6dAwEIQAACEIAABHYmgR9rbi114Xxnpj7pPb/4aW+vs5PL8O51KgToKwH3av9AzqMLbEifI+dh3HbT5LLEhvdhcovlPPz8nXJ3yKW91O7BtrF9utyDcpXe4BysYzbIuUtSdW7L99s23G1xOW8Wx+Nt1y/V0WRIu36QbQgUYqm/dTaoSuC3CbcTdjq1hNgpn/qGhow3KK+dsXrh3Lj5cxfF5KNfG4ee9Y449GxXre5l/L4Hx20zPpgYxpOPem1M2PegWPvc09E4bkISwMPE62TIN46fGH/8yTeS+LuLyUPT933dWXH4Wz4Q4/bcP1Y//Xhc+7dnxJpnFxQnfJPR757u275ycUx787vjxA9/KV751g/G03feFHNuvDzWLVmoWplW0e5SGDh+zXrt3NbW7mtsMFSPgQOOnEAAAhCAAAQgAIEdQEBGTaMGErxLz+zu9LTd1GvJZXgr0U49DXaM6HVyBMhJ4FqF89By9zjfK5d2K75b26PlbDyPkbtJ7qNyj8j5gd0G8XK5VLz/Nrllcrb1PiA3V261nAelOJ5y4q85XpSzMb1ezr3fe8l9WO5/5Z6Vczy7yL0g53HHc+SQbgh895k4//Jj99qgNagzBvF0E2gnes36l4/EGvVyn/r578lQHp0M+V69aF789l8/plwVkhnOp558tozjszWj+SeTIeCecbxJw9BrZTS36Xts144XHnsgbvr7v4pXvefTcex7/i6u/tAbk++zz/jqTxLjvLsiejj5+H0PjBP/ZoaWC1uTHNKgj+Tf9NXLknQe1bflT8nAfuv3blK+6pOJ1qr0UqNK03bueewpSX7v+I+/y4y/uzR3tp8u4IH+PmZnIyJ9CEAAAhCAAAQgMGgI5DK8z5Wlf6mMqouLhtegKewgzqgNY7tTusqQPpD/uWvfP8Xuw2Iv+N0l/ttv+n1Jarin2zbSU0l16X7626iNo+X+KHdLl9NPMsz9dv3a+LacIOeXBIfI2ahHyhFIz2S5YwaAzjOOr5j3SNGg7RpOnnw3tGFdLPnTXUkOvbb2LlMPTQxh+3V0tG8xdLcs7aUjqxRXso53TW0Szt9l16gn3WIDu0rxVye6rXA8VH3lU3PisvOmxTEy1vd97Zvi/h99PZkJ/aRLvhoNYyckb5rG7LFX3PO9L0brhjUakl4T0z/zrbjl8++OdUufSY5NEhkE/zyqQBelX2IhEIAABCAAAQhAAAI7mYCNJj+56uEs9/NZLsO7qyfGvZ1I/xJIe6RLDeU0B55AzZL16f1WK6Z4nP/7/L9Crk7Ols935G6Qc1xOqzSMFh1IJlT7pH5T8fEOf2bqod/75H4h94DciXIeDo9kEfCZLKWcddwA8PeEZp0yptOJzTxqe/PGjYmxbCtxc3OTvuNuSXJqI7yjXYa315hQuJoGv7eRlJbVZZfUjxwToyfpSwgd56HsN//DO5PvwW2cexK24uCN5NCiYa6ebH+37bXDbaAf94HPycDf2gYumH19bNT34FU19YnhrUwocGnCxbgG8v+xo/UNfX39NzSdwuDK+ECGSt4gAAEIQAACEIBATgIaNry+NeLzejJ9JGcUieGVNyzh+peAe6I91Nxia+R4uVfL+QWIH879vbblvXKvkrO1YdPmYbl75Gxkp37aTMIcrt/7vSN5Sq5J7hk5xzdezml2mUfJmt/W3ypn+Zacxxh/V+4jcgfL7SW3v5zz6XA2wD083flFXkqgtl1LRrk3d8CLjWIt9+VZy2s1UZmlXct0HfX2j0SdDGcb4x3tm2P3Q46WwVsTx3/wH9Tj7dNeSMLNkZG8RsPSrSs1kttaW+I1mgxtnxNO08zoy9VTva4rTG0yQ3nDmAlJ3E5viyit8fscGG/4/PdVQ6tixNhdkxcCqf7ED/9TtMnw37p29+CzXUeNbIwjj5x2acwvHdSSlpBfCEAAAhCAAAQgAIH+JHBhcZ6rr/clTRtjvRY9xhbu0CPv9K2Ta/U6DgL0ioAN2ofkbAy/KPe03CfkLpbTy5dEbF08Kneq3BsTn6Kh/SNt2/C2Af5ZuVVyNortfPy5co7zbjlbgEvk3AM+Rs4f086Ts7xJ7qvJVvHf6fqxVeCh5e5lXynnXu5r5BzG6dwo9zm5r8kh2xH42N5x18Knn2mcesB+LzUutzt2Z+/6++wjznuvlv/6VJKVRffeqvW2N8fU15+nYeMyxGUMW9wjvmHZktj3pLOSff9zb/fT99wSa2uejidv+WV0uie8tjZZj7tGa4HPue7H8fyjDyTffntd7oPPfHuccPGXkrg8S/qSP9/d1ZPuKqsh2Bqq7rXDd592jGpxIZlhvTibuvUREw84LHkp4O/LLaWGfuLBPwhAAAIQgAAEIAABCPQzgVyG98yIs2SV/eyKiIMuKk7U1c/ZHnbJPacS26C2LJRzz/O/y31TrpJ45TeLjXUNXU3EFsl75ObLpT3eVriL8jQ5Dzv3RGyL5Gx8Wy6Qs18qr9KGrS2HKXWp3r9Hyi0r9WB7GwLiV0ggbuM7AHeqa+tjwW9nxtolTyczh69c8JgM6oa4/hPnqwRFAzcz21J3aLFIG+hez9viIeKLH5gdLRvWJt9ur1B8jqVK/s/8/vZo0rrb/sq5beOGWKFlyVKxEf/MH2bFivmPxsK7fi18VTH15DcnS411tLcl330/edtVmuhto1TVcciZF8XGtauS7TSOwfDrdwZVoxv4nGcwnCzyCAEIQAACEIAABHpAIJfhrXjrNAZ5rKywQTBGtgcUBv4hNnj/sl02/VCe98HcBvPl28WX7m61clKf4q+XESuV9JvyUr/ttxdu78H+VgI6Cbp+fCoGvng4/CbNJv7Mfbcr1xo+XuNBEXppoN7rHpUgtc27eqFdYhvvyx5/sNhjXeK/af2LWh98dhGK0i1OtFaMwIb5iif/knw/7knZLE/deUMyIVuVhsI/es0PkyHq3rY8eu2Pij3yg2E4f5Lj4r8NTRtj3sNPfkB7XyzxZhMCEIAABCAAAQhAYCcQkOE0crKWSNaQ3ps07HxBnixgOOehRhgIvAwECp3RZIM2tUlfhih3aBQeul2toeFFo7vvSdmIrtX63duLh4Yn6SRpFWc+Lz2mSka/1/ROJnvTEHdvp4Z2Ep+NeA99l0v2B5nR7bKuXdcUmzZu+oI2B0v1KD1FbEMAAhCAAAQgAIEhRUDdPWPUY/2t+ojD8xYsl+Gt3m6eBvMSJxwEugh899k4db+p+zSl30cDBgLbEfAnHAgEIAABCEAAAhCAwE4m4Amt/GBW+t1tb7OUy/DWgkG3qT/pAFn8y3ubIMdDAAJbCdCduZUFW1sJeB1vNc652uetsbAFAQhAAAIQgAAEIPByEFBvd8EfMvbl+SzXN95d06nnGtv+chScOCAwZAjY8u7RR9JDpsQUpAcERjQ2aOb3mhu0cAS1owe8OAQCEIAABCAAAQjsSAKbtIqTJrj6lXq8n8mbTi7DO29ihIMABLYl0NHRWTKt2LY69oYvgQnjRserTzrm4/HUH4YvBEoOAQhAAAIQgAAEBgiB9xZXenpbX7KTayijumAKV2pFoL4kTFgIDHcCH9tL63g/tWiE16JGIFBKwHPDtTW18mK0FArbEIAABCAAAQhAYBATyGV4ayXekydE3HdtxC6DuOxkHQI7l0AhNnfIwvLs3AgESgl4Bvn6KLSW+rENAQhAAAIQgAAEIDB4CeQyvGUmTFB397FNWs978BadnENg5xJQP/fczjbPjYjhvXPPxMBK3QMgVr24rvPPc+ccOLByRm4gAAEIQAACEIDA8CRwc0T9rIjT1PG8W14CuQzvvIkRDgIQ2IbA1e2b26KjnVWjtqEyzHe8jvlzzy4pNK3ddNYwR0HxIQABCEAAAhCAwIAgoInVJozQyl4ynl+XN0O5DG91yBT8gbcSRyAAgZwEvvNMzN4QJyGzAAAvXElEQVRl7z1OGlFXuyZnFAQbYgSqqqri+edXxPqm1uZRrfG1IVY8igMBCEAAAhCAAAQGJQGv460ltb2Wd+4es1yGtwLdtznignURLw5KcmQaAgOEwKdnPXtPc1u8q6aqanNNdVVUV1eHjS9/47u92G97V+mY4a7vCceBwMgfG/iUt25sjmVLlkbUxBe+/kKs2D5v7EMAAhCAAAQgAAEI9D8BdzjXyskOzmU/O8e5Zs09N0JPhjHTESAQgEDfCLxv5sM3XfaWI456ceWqW9esWTdl/PjxUVdfGw11tZ11dbVbvgBvbd0cLa2bt1jktTU10dhQt2VqtjZ9L968qWWLvloG/MjGhs7OLh8PaW9q3rhFb6N09Ajru7wU04amjQVN97alQKNHNnaWzrqe6LtS9M+YUVv1jmW9w2/Rd4bD+0VCYlhKv6F5U6Gjo/ii0IeNGlHf6ZcNqb5pY0uhvd3fvUvk2dhY1+lyWm/Z1NJa2Kzh+anUi5HcFv3mzZt1zFZGNTXVMaKhvitHEe1i1FTCyHkbVcKos8MMmrcyikKMGtmwlYEysr5E73yUMioyaBaDYg79O1rhC0rH0h2jUSNHdNZXV7W3dnSsq6lr/OSmjnjhB4vjtmIM/IcABCAAAQhAAAIQ2NkE1Nu9WWt5P6RnuVV585LL8M6bGOEgAIHuCfz1NQ/PuXhK/HNDVVyyatW6PXVUw/gJo6848KD9b9N34FVVhehc8NSz52xY13SebDmZh1EYMaL+jmmvPORn0WWoLl7y/DErlq3+kHVOpba2at5hRxzyTfWhJ5bsqlVrpixauOQL0idLAepT4hcPP/LQL9RWVSezZ7e0tDQ+8fj8byjyeofXcZ2HHXHgJxpr6z26Jqqqa9qfmDP/u+2dMUoJ2L6uP+jgfT8+bsyo1QpTaGyo3/TE4498W/b9LtbLr/HA/ff8+wkTxj2/Rf/Eo//a3tbp8mkJ82jYc69JX54yZY95LmNDXV3r3LmPf3Zza9srpW9X/LUTJ477wdQD9v2D9dVVhY758xa+u7m5ZbrDK39VY8aMvO6QQw+4oaOtPSnzU4uWvGHt6vVeY1FqzYLRUPvHww8/6IedHXqfIHnu+eXTnl+64uPatEehpqaw+JVHHvovNVGVWPNr163fdcH8Rf+stGusF/cm6T9TV13t0UXR3tFW/fjjC76j2OusV6JV0w478KMqe8KourZq8+NzFnxfmUsZNYjRJSmj+vr6licef/S/2js6d1XYhMEBB+z56fHjx/2pva31offf8OR6p4NAAAIQgAAEIAABCAwcAhdFrFRuju5LjpKH1ZwROGzyMJszfN+DTZn17agfdUkcpsl/0167vsf60hgc91J18j/3wrpoKUyOFdM3vPQgfCAAAQhAAAIQgAAEIAABCBQJaHjwuAZ9mrvn6IjxSbdGH8nI8nrir/XW/4iIgw72G/w+xvcyB7fJ1KKuioceijjqv9WLZFO1j2Jjc95qjZrsiO+cE+HOk0ErucaoXy+Wmk79f66MGDtoS07GIQABCEAAAhCAAAQgAAEIQAAC/UAgl+Gtcav7aqzqh/RCg4nN++EkkQQEIAABCEAAAhCAAAQgAAEI7BwCMzQ32u800GC2pijKm4NchnfexAgHAQhAAAIQgAAEIAABCEAAAhAYTAQOithNFvdcTcZzZt585zK8FajK06nT3Z0XO+EgAAEIQAACEIAABCAAAQhAYDAQ0Cy8nU3KqH6TCXnz5DmX4a3v+OdoOvWvaMg5M/DmoU4YCEAAAhCAAAQgAAEIQAACEBgUBNzh7OXANH+cJxjPJbmWE7tAE+optX/KlSKBIAABCEAAAhCAAAQgAAEIQAACg4SArO12rb+7VL3W7vjOJbkM71wpEQgCEIAABCAAAQhAAAIQgAAEIDDICKjjebmyPLkv2c411LwvCRIWAhCAAAQgAAEIQAACEIAABCAwnAjkMrxv0HJimk79b/+X+dWGU12hrBCAAAQgAAEIQAACEIAABCCQg0Auw1uTqh2tMerf3zVibI40CQIBCEAAAhCAAAQgAAEIQAACEBgUBGZoVa9ZEbvfHFGfN8O5DO9OTacu4zua86ZKOAhAAAIQgAAEIAABCEAAAhCAwCAgoHW8J42LeEETrJ2XN7u5DG8FqqpTiur1zj2det4MEw4CEIAABCAAAQhAAAIQgAAEINBfBLyOt9fR1rLam/OmmcvwVmKLN0Zc10Cnd17uhIMABCAAAQhAAAIQgAAEIACBQUDA63jbcK7uQ15zLSem/vX7leb5fUiXoBCAAAQgAAEIQAACEIAABCAAgQFPoEWd3frUep0+uc7d453L8B7wZMggBCAAAQhAAAIQgAAEIAABCEDgZSBwUcQyRdOnicXzDjV/GbJPFBCAAAQgAAEIQAACEIAABCAAgaFPIFeP940RuzZGvHJ1xL0XRmhyNwQCEIAABCAAAQhAAAIQgAAEIACB7gjk6vHWbG7TR0b8TuPctZQ3AgEIQAACEIAABCAAAQhAAAIQGJoE9G134fqI0bOThb3ylTGX4S2Du32T0vO06vmSJRQEIAABCEAAAhCAAAQgAAEIDEUCQ81IvFbreE/U5Gprd8Y63rWqIZ5WHYEABCAAAQhAAAIQgAAEIACB/iHQWeifdPqSyiDIYq+K16yjNbO51/HWXz7J1eOt1FYr4Ufkck+nni+7hIIABCAAAQhAAAIQgAAEIDD8CNiYrd0gA8zDjgdol/ImDYuu0vDogvKIbEsg1+RqF+j7bkVzxLZRsQcBCEAAAhCAAAQgAAEIQAACO4KAbe2xiyJWHqfeV/WA1tXtiFTyx1nQm4GVq5QvdQ/Xrc8fz0AMWa93HSpeq1z/9ngPRBjkCQIQgAAEIAABCEAAAhCAwJAlIKtv179odi8Ztc89r99cXag7ho6N7mYZ3Cs3RuzxJ/V6D7F1ry6MeOGOiMbzIzTHWj7JNdQ8X1KEggAEIAABCEAAAhCAAAQgAIG8BKo1lPvAX0SsWBmxaFFxyHmVLDobvjvDOW27DXoZ8OTCiHFzZHjfqXwNQStzRrG3O/cg/1zvSa6MGKV1xCZPj1igc6xR/AgEIAABCEAAAhCAAAQgAAEI7EgCHZrheuwCGd9XydC9KGLVmojdZZiNGRNR3c/Gri1Qf9O9SsPLV6mn2/k66Gcyuqt3JIHBG3cuw1ufE5ylc/vLyyOmqOjPDd7ik3MIQAACEIAABCAAAQhAAAKDh4A/Np74Z60wtUyG2EkaA71nxOJRxY+Q+7sU1RpS3ijDe79HIna7X6krb4nr74zs4PT0kqFwR0T9KX34zjuX4a0vyjf7e3m9VMn9cfkOZkP0EIAABCAAAQhAAAIQgAAEhiSBdvWENiyP2P9qGWSy6DrtbPT2sxRkDdr4TsZf93OPe38W9TINLNgnYv61Ee9QujfkSTuX4a1zWvAIAtbxzoOcMBCAAAQgAAEIQAACEIAABPpIQEaZjW0bv4WdOJnZzjD4+0iu18FlNPu1xij9y2U/O8G87yWatYD3UiXM9929Pm0EgAAEIAABCEAAAhCAAAQgAIHhRCCXxa5p1G8RpMnDCRRlhQAEIAABCEAAAhCAAAQgAIHhSaCvn1nnMryHJ+rcpfbS9pprMFP8nbymRih+GpFx1CT5Z41OsP9SuXLf2+8mfda59rCJFXLlBqiMl95fFmRNn79BunVyWdIgxYQspfzb5PSVSqY4j2bg3+7E/maQlT+HqcTwBR3jfGTJLlK4HFlprJWuKSuw/M1vXBm9+WthiEzxeXYZyolWdMzMn8PtIVeOoRmUG8UyUXrNpdmtOF5NrRGbutUWPTUnY2jqj0zRfJjxYqa2mLbzkCU+N2ZQTioxcPhy11K5emQGrscaEJQprgOuC1lS6VqqV0DXxSzpybVkBuXE11I5qcSwUj1y/l2OLOnrtWT+btOypNK11JN69IqsyOXfk/aoXJvsqFfLlbuWRktvlyUO6ziyxPcD5yFL+srA8VaqR7vrmHLz3voc9uVacnvsupQlroO+N2e16W4LfW/OEp9n14Os8D1hWO5acrpOv1yb7Puq70tZ4vuy25QsaZTC9/cs6cm15DJkMXBb6vYgS8ywUnvkNjkrfsdb7r5kve8pvrdkie9JvjdlSU+uJdflrDz2Rz0qd19yufxsUe4Zb6z0I31ghvT1Wqp0X3Kb7Gsp695b6VpyPTID/3YnDu/2pNwzXl+vpe7SxW+IEdBNY7kq6VQ9CJezWcqWOssYKxsIZa8IHKej7y4TokU6X/DNZY7xjaecTJay3EPOw9K7UcqS6VLckaWU//+VO7+M/j+l+3QZ/Zulu7KM3nnfRy7rIcsPSOXKJ3X4xuGHjCxZKEW5B5TDpJ+TFVj+N8v5XGbJJ6X4ryyl/D8k960y+j9L5/izHrJ8Y6+0goDL5/qUJZUY+sZXrq79Sfq9siKX//+Ru6aMfoZ05pQlN0pxrlzWA8w06R7KCtzl7xt4VngfUomBjZlyD6oLpC/3gHKC9H+Qy5IfSfGWLKX8vy/30TL606QzpyzRoiJlH6TrpK9Uj2wMZT0AOd1KDKfqmKd9YIbcIv9jM3T2/ozcN8ro3yPdD8roH5fOdSVLJkpRiUHWA1waZ6Xw43Wgz0WWPCjFlCyl/N8m96sy+n+U7rNl9LdJd3oZ/cHSPVpGb1U5BtZVYuDni6z2zPE/I+e2PUteK8W9WUr5uw68vYze19oHy+hPlu43ZfR+cbFLGb3bgSVl9FaVY2h9X6+lGxTHaxxRhnxR/l/N0Nn7HXI/LKOfK90hZfS+Zywuo7eqHAO3NZXqUbl7u+P+o9zeclni9uLyLKX83d6YU5b8TopTs5Tyd1vzlzL6jdKVe9k6Svq+1CNfZ25v/RIlS5x/lyNL/Ozy11lK+V8m994y+lOku7WM3vV8chm9n28Wl9FbVa4e+dmn0rXk8+R7Q3fi54Zfyp3WnbLLz9dRuXpSJiiqoULgwuI9bVFfyuPK1mu5WTfLWZrZbUZ2L2yv4xzCATpUts4y5Wsqo0tVbrjLSbn4HW5TucDSlXs4ctDNFcJX0leKv7lC/FZXiqNSFJUYVGLYWiGBtgr6SvmvlL8K0fdIXakMlSIpZ9Q7bKUyVmJUKX89OUflbs6VytcTfaXzVCmPla6VSozcnpSTSvkrF7anukp5rBRPpfNcqR5V0leKv9I5qpT/l0NfKY+VyljpHFSqZ5UYVLrWe8Kgr2lUquuVGFTSV4q/0jnqCYO+HlOOodu6SnmsVI8q6SvFX6l8lerhy9FeV3o+qlTGSnmsxKDcOTKfvrbJleJ3GpWeIyvV9UrXeyVGfY2/Uhkr5c8MyuXR8VfKY6XzVKk9cR4QCFQk4DdlvRa1QuftprdD+7KOd0/YrdBBv5CrzjjYvbSVLmi/ict6Y+q3nJVuPDN1zBS57hoevymsNGTiLh3jlzTd3cB84yz3tlfqeFbOZci6yfpNZXd5k3ciTtcMa4u7L/lfJ59yja4DuMd9nFx3DbzZrpErJ7dK+bxcd/k0m3nlAks3V65cD9YT0neXtzRan2MzcFrdidl2d35Kj3V415fu0jGDSi9ArtMx+8h1x8BtSaU31u7l83noLn15l+3dsv5Fuax65PI7/1lxS5XIFfqfdS3WS9eTeuResO7Scf1cKVdO7pbS57C78A7n3pty8pyUWfXIDJaVCyyd60hWeAftyT3h5zouqx6ZwXpHVEZ8LbkcWQweLxPWqvlyWWUwg0rXoh/irpbr7npx+O785b2NuB5mnUczrPSw7jZ5T7nuGDgPz8iVE7e55RjcXy6wdG7vyjEoN+ojjTorvPVZ7VQa1r9mOE4ui4HvneXkXind9ncnZliJgdvzrDI4/LLuIi7x833b57G7c+3wPalHP9NxLkMWg3LnwWFukzOn7sLLOx7zvzLylHRXyXXXpvsc+lorJ25zr5frzmgxg0rPJk436xxIlZSrUpvsXv+HfXA3Yi4Lu/Ev9XpUO1n3JTN4oPTgbrZ9X/K9sTvj0AysLycuXxZDh6v0fGiGHmnma6k7MYNKddn3nazwZvCH7iIu8fO1lHUtOHylZwPXkxvlunsGMcPu/OW9RczoV3K+/3QnvhbLjYg0o7vkstJxHh6RQyAQs/WcdIrad1UK15teiytTr+XaiAs0ju6aJfom413lh6b2Ou5eBZgy69tRP+qSOOxAmXS5itKz5Bz30qV6VHxhXbQUJseK6eVuhj2Lk6MgAAEIQAACEIAABCAAgSFLQG8kxjXoBcye+pBtvF/vI70mYAt3nj7+2dAR3zkn4uO9juBlCnCF5gXZQy889Tbt0xeU/3wjM0W/ieq1uLvIZq67yBAIQAACEIAABCAAAQhAAAIQgMBQJaChEx5VcZRc1giRikXPZXjrzcNmJb5O4+m6G55UMVEOgAAEIAABCEAAAhCAAAQgAAEIDCYCMp5zDTN3Gf0tWq/lvOK3GGN7HZAAEIAABCAAAQhAAAIQgAAEIACBQURARnPBo75ldefquHZRcxneg4gRWYUABCAAAQhAAAIQgAAEIAABCOQmoB7nVZpF8WzNiOjJgnMJhncubASCAAQgAAEIQAACEIAABCAAgeFA4Mzi6gW/7ktZc3WVz1ZP+c0RY9TVvgOnEu9LsQgLAQhAAAIQgAAEIAABCEAAAhAYGARyGd5rtY73mIi1WoRTs6ojEIAABCAAAQhAAAIQgAAEIACBoUugr53OuQxvTWXeofHtoRXrlT4CAQhAAAIQgAAEIAABCEAAAhAYmgR+rGXE7oj48cyIV+UtYS7DO29ihIMABCAAAQhAAAIQgAAEIAABCAwmApoYrVH5fY96nffOm+9chrc+7O6Q25Q3UcJBAAIQgAAEIAABCEAAAhCAAASGC4FchrfW8b6hWd3t74p4YbiAopwQgAAEIAABCEAAAhCAAAQgMPwIeB3vumKxvZx3Lsm1nJh7vJWaljJDIAABCEAAAhCAAAQgAAEIQAACQ5eArO11GyP+sT7i4bylzGV4502McBCAAAQgAAEIQAACEIAABCAAgcFE4MKIDcrv1/qS51xDza+MqJ4d0aCPy1nHuy/0CQsBCEAAAhCAAAQgAAEIQAACQ55ALsNb3eRnyOJe8ouI3YY8IQoIAQhAAAIQgAAEIAABCEAAAhDoA4FchrfSq1Nv9y7tEXnD9yHLBIUABCAAAQhAAAIQgAAEIAABCPQPgcsjRv4u4lPXR+yfN0UM57zkCAcBCEAAAhCAAAQgAAEIQAACQ57AyIgxGvX9n5ph/Ii8hc1teCugOrwRCEAAAhCAAAQgAAEIQAACEIDA0CWgpbQT41ejvvWXT3IZ3ppO/fbWiFdOiViRL1lCQQACEIAABCAAAQhAAAIQgAAEBj4B9XYXtJSYpX/X8T43Yr0SfSJJmn8QgAAEIAABCEAAAhCAAAQgsA2BpoiOOvnk7iLdJrbhvSOGm3cmgU0RzVrH+wpZ3Qvz5kPGOwIBCEAAAhCAAAQgAAEIQAACLyeByTLW1Fu5pr0jxnkNZgzw3tPt6IImfs/1PvTLF+K9Oo+K7R19iTHXUHOVvzA7AqO9L+QJCwEIQAACEIAABCAAAQgMWQLTI9pkMD7Z2ibjSRtI7wls1mxmBRmf+nuw96EHVohchveNEa9T3bnzWi0pNrCKQ24gAAEIQAACEIAABCAAAQgMDAKyma7auFMHSQ8MDnly4ZcVzWK3vjM2afTAfXniGEhhchneemmzi946nKjvFvzZAgIBCEAAAhCAAAQgAAEIQAAC2xHQbNg/X9MRrWtaIqro9d6OTvldG6qr9XG15OfH7ORvvG+OqL8z4swrIyYlOcrxL5fhrUCyuxEIQAACEIAABCAAAQhAAAIQyCLweMRy2U63Lt6gmdawoLIwvcTfLylWyOhe1xZ6ZRHfeskB/eyxVh3PmtX813In5U06r+Fd5Q+8Pa163oQJBwEIQAACEIAABCAAAQhAYCgTmCF7uz3i3zTBWucyTYuN8dSzs+1vu5dqeLV43Sr7e27PQu24ozTiu1Onz2t56y+f5DK89bLmPr16eKsgrM6XLKEgAAEIQAACEIAABCAAAQgMfQLnRfxenyp/YbXGna/TRjXWd+ZJNxr3dj+r6eBlfC9bF3HxhX0wdjMT6qXCHc7+xlrGcy772cnlmplc63gvVdirHQECAQhAAAIQgAAEIAABCEAAAtkEzon42k2dccz8tXH+/mMjxtby7W53tDwaf67GdW9sDb2miDdcFLGsu+P6209DzFvU6Xy/OuJX5E07l+GdN7EdF86naAe+Ourkg4wdd+6IGQIQgAAEIAABCEAAAkOfwAStA63hwj9cvDbesb5Rs3SN0EzV6j/1t9/D2drw7OVeMmytRgMs1/DyjW2xTEO736XO3scGSq24IGKV8nJ8X/IzNAzvgmrsjlwcb0fG3ZezR1gIQAACEIAABCAAAQhAYFAQOFE2pTL6zpsi7lqxMf5bM3ZXTZQBPrEhora6WIThZIC729T9m02tEUtEpkW/sr3v1+bpGl6ufu+hJbkM7+sjjhqn8fbq9//sToVS0FD5DtXSZz3yfQdLs0Y7FKqro3PNDuxa38FlIHoIQAACEIAABCAAAQhAYKcSODvi0hsjZrd3xseeb45zV26MvUbKpLHxPVyWHLPB3aZx262aqmydlltTN+q9OimXvjnilzv15OzAxHMZ3uKzr1hdrAnWvqy87by3EZ0dz0Z782OxYm3u2eV6xbZQu0HjQfonrV5ljIMhAAEIQAACEIAABCAAgcFCQAbmfNlTH78j4lMbOuPY1rY4vbMtjlP+J8nlnsBrsJRfPZlNKv88GaOz9DvrLH07LT+Z4gNTZmtuNPXGH7YmYmG/djxfG3GBEu/8acQeAxMNuYIABCAAAQhAAAIQgAAEIAABCPSdgEZ8v+JB2b+yg9+WN7Zcb1M0CqJaM7uxjnde6oSDAAQgAAEIQAACEIAABCAAgUFBQMuadcpZ9CV6PslleGus9WP64vkrMsC70s+XOKEgAAEIQAACEIAABCAAAQhAAAIDmYAmoE/W4dbQ+NzzfeX6xlvTqT+htP9pIMMhbxCAAAQgAAEIQAACEIAABCAAgb4SUMdzm7q6n9Lv+r7GRXgIQAACEIAABCAAAQhAAAIQgAAEIAABCEAAAhCAAAQgAAEIQAACEIDAMCAwM2LqnREfuTxi5DAoLkWEAAQgAAEIQAACEIAABCAAAQjkJpBrcjV9UX6UJlb7nqzuMblTJiAEIAABCEAAAhCAAAQgAAEIQGCAE7hSq3r9OmLvGyM8z1ouyWV4a2XzDi0gHprZHIEABCAAAQhAAAIQgAAEIAABCAxlApMmRSySHXxO3kLmMry9jneDUuzLdOp5M0w4CEAAAhCAAAQgAAEIQAACEIBAfxFoUcez19HWrOb9u463LP1nmiKukvFNp3d/nW3SgQAEIAABCEAAAhCAAAQgAIF+J+Dx5e6xVgd0bsm1jvf5EQ8oxQtzp0pACEAAAhCAAAQgAAEIQAACEIDAICDgHm91Pq/ojNg0CLJLFiEAAQhAAAIQgAAEIAABCEAAAhCAAAQgAAEIQAACEIAABCAAAQhAAAIvIwGtDNZ7uT5i99ERR6qf/Y4zI9TzjkAAAhCAAAQgAAEIQAACEIAABCDQHYFcs5prfPvJWsP71rURu3QXKX4QgAAEIAABCEAAAhCAAAQgAIGhQGCG5lbTGt67XhlRl7c8uQxvfVTe5unM2yK0iUAAAhCAAAQgAAEIQAACEIAABIYmgYMiJu2qydU0M/m5eUuYy/BWYtU29VnHOy92wkEAAhCAAAQgAAEIQAACEIDAYCDgDueu6cy1lHc+yWV4y+BeroTvr+f77nzUCQUBCEAAAhCAAAQgAAEIQAACw4ZArnW8z4m4U4SOHzaUKCgEIAABCEAAAhCAAAQgAAEIDEsC6nDu1KzkG6qTr62HJQIKDQEIQAACEIAABCAAAQhAAAIQ2KEECp5YbYYmWduhqRA5BCAAAQhAAAIQgAAEIAABCEAAAv1IQNb+2Nu0jvf/RtT2Y7IkBQEIQAACEIAABCAAAQhAAAIQGHQEcnWV68PwMzSd+kPjI3YbdCUmwxCAAAQgAAEIQAACEIAABCAAgR4S0BrahdkRo+RyzZHmZHIZ3grXulb/WiI6HAkCAQhAAAIQgAAEIAABCEAAAhAYigQui9hdhvPi1RFn5i1fLsNbM7oVbOqPyJsq4SAAAQhAAAIQgAAEIAABCEAAAoOAgGzfgnqcx2lWc/3lk1yGt5JavzligVYP11riCAQgAAEIQAACEIAABCAAAQhAAAJZBHKNUT8/QnOrxQFZkeIPAQhAAAIQgAAEIAABCEAAAhAYKgTU1a2+5/ySy/DOnxwhIQABCEAAAhCAAAQgAAEIQAACg4dAfcRyTbA2rTXi+cGTa3IKAQhAAAIQgAAEIAABCEAAAhAYRgQ0T1rv5UbNq6aJ1SauilhyYYQ+9UYgAAEIQAACEIAABCAAAQhAAAIQ6I5ArsnVNKPbOeMiFinCSd1Fih8EIAABCEAAAhCAAAQgAAEIQGCIEChcGVE3I/9y3PnW8VYXd+s6EWQd7yFSjSgGBCAAAQhAAAIQgAAEIAABCHRL4IqIXXaPuOfwiFO6PaAHnrl6vL14Wa4x6j3IEIdAAAIQgAAEIAABCEAAAhCAAAQGCgF1PNdq1Pexyo8GfueTXIa3Fu9WZ3cslwGu9BEIQAACEIAABCAAAQhAAAIQgMDQJiDjWZOb55Ncy4m9JeLXSk697UW5JeJUvQVo8F5dRPXCiFkXRzR3qUOTsZ1SGzFSBnsowRoNU79Dk7KtTfXXR7xGgcdrYbROGfPVOu73b45YmepviniVwu9hvX4Lmsb9EemfTfWK/2Clu7/19tN070+fFvFEqr85YorSPVzhko56pbX81Ig/aSc5/udKe9eI4xU+eRGhPDTdH3HXjK4XCx7PPybi9cqXVElB27Uxa3qEi5SI0nij3kIoe8m/KhXuNyqjkiyKGSm9hpSB0rpdZWhO9dszUvx3qAxbGF0XcWJjxASXUZms0u8D50YsS8PPjDhSE95NsV7pFFTeOadH6FQURYz3l/4gvzGxKP7FZ4hjcS9CZZyk1zdHp4zk/+JZEfeljKQfNTbiJMWfMFL8LYr/d9InL18Esuo3YpAykt7n4TfTSxjpPCqIq0ByImqaIm4pZST9G6SsNyPFW6OIt2GkMp4iBkk9Uv6rN+kcnR+xxvFZrtE5HBWxa8pA8fxZjJYWtRGK/zDlae+UgdKYrzLOS/Wq1Hsr3sOcfpe8cLbi0HZST24VfxX++JSRtjeI4V2KJ9GrDtRr29eCfpJ/7X/UmvczSl5Q6ZgzVK6Eof5VbYi4WQwUpChmJAY1KYPtGakevEH1N5ORyvA6lWG0wzt+uXvfFLG6JP5XicEkM1AmC8rLNteS6slBqif7p4ykX3SO6lIaXvpX6BwcmTKQfpX0fyjRj5b+pFSvfLToHPw2ZTRDZXu16knKSOA6xfiWVO94Shlpt7pZ7U0pI5XxTT7/PWHUFf53Ci/URVH8r9GFOi5loN8HLlCbkOp1LR4hxlNSBqpPc1XPnkr1Okf76Rwd4vQtKstSlfGh4l5yLU0cE3Fcqpf/OpXx7hJ9o/RuT1Jpk/436c4MnbdjVE/SfZ8n1VMlu1XUnpyZMpRv9Z+kn1FSz6Q/XfrkWrP+acV/SfGFaRKJIpsu5QjnwdfuRtVjMVqbKPXvBtVztam7WO9I1Gb/RfrnSvTTVLf2SfcVx1Nqz+am+6qneyrc4em+GK4QwwfS/Znir3PwmnRf9WjjOWpP0n21N3UjVU9cP+wnfYf0KtYWKSiPZykPiV7/qpS+Tt1WUV09S/UklZfUI+XxdJ3n5FrztbJBbbrKKBRFUfwni8EoM/A5UFy/3/5aUhknpedRxzym8/RMGl6ZOUB+B6b7Oh+LVU8eSfdVxkkjdG9L96VfI/296f5spa08TVccKn5Sz1qlv71EXyP9GSX6kF6Xx1ZRHt6c6vX7knpUysgMVfht2iPpT1O5haHIQOWdrUa8KU1B+tdIPy7dVxn+pDwsS/elP1z6PdN9pTFP52l+uj9TdUj1YJr3Xc+U/gvnRzyY6q9VHVR7dYLCdVqva3K94r8r1f8+onG18qj9dutVzzYr/ttSvcJVC4hOS7GNdTzSqwnYKqWMBLqgeqbLY6uoHpzh+mEfM9xd19IxJeu4Sv96KdXsFUX5vUcZWpvuK/7jFG5iuq9jHz5TE9Om+9IfLP3UdF/1aeF5EY+n+9JPFqMj02tRjFeqQPenetWjsaPU7vsa6WLULEazU702GppV11X2NusVzzbtjcJXj4w4O9WL4TaM5F8QkLOVx6QeOl6lf7P2pSqK9KoWxfbGaYjBb6dH6BZdFOlP0tYY71mvNO7XeVjpfYvqyVGqJ6/wdlcen1Cb+LT3LTphU5X4wd5W3I54icI/7H3LFXoeHateKGWo03rVkxcVXtWjKIp/tOJXlor1RPenbdqbOarji3SeUwbdMVJbcbbOnU+DK0OHzuEt3raYkeqZvIqitDrXq55cuLXeWX+qtM6eLyg/y96lDG0ohoiCzvPxBT1jpHqV9yG1N8936V0pD9P23t53JIp//gUlzy+3R+ylch2eMlDE21xLs3QtSX+i4u1weNWJba4l3YD8bPWGlIEYt6geKlhRdA7qpXtTqtex29SjGTp1x4mh43eI7RlJX3V8yTOiyt+huvw7QdPpKjIUUNfjUd43ozV6thBDXeKJuB4era1J3nM9aVKb+5aSNlfhD1Kc+1vvMm6MbZ9fblMdU9072oyUfkH6FSrjlmtpttoylft1iiNpT8Rrg9qDOx2f5XIx2qWEkRi0qJ5tYfQdJXtA8d6rKBLZhpHi9/3m9KTAUut8t6v8t+k3YfZWXYsXq54qD86+DQr733V6V5urfBdUhhNUhvHWm5HK8KCu9y1trhgcrsT3tN6R6Dw/Kf0C71vEcD+ld2jKQGVcXHot6VrZXekep4Q7zEj6VdLfVwyd3IDGKv5TVI6kPdmekerxCIU7LdUrr5sU/rdpeNcjXR9vlH9SZh3bqvLdnurNSPG/QQx0WHKe29epnqgeKKmknlTN0jkSQzVbRUYq433nd9kCZqTEjlH43aw3I+XlEXFe4n2L8nCoEt/X211lXKA8zvW+5RpdZ6qEr1Qek3qiOJfqWvyzdcqE7SvfUJL82a+34vB9FmXqUkW0m35tFI5SjZiqSBeWRPxtneipymWH3Gi1vkdK93Cql+5rcsdI167whvlGuS0nSgX8tBq9cwWqTWnU6Zi/kf7HaXjp36Wwn5C+XfEUdIzqf/xjqhf06aqA39cxiUh/21URf6UdBU3uBgdI93OFT3joRDy1tyq3VDp3yR11jNK8XMcoG4m0qCLspy21fUVRupdJnzQYXcdNlmZFqldCP1S8E6Xzy4XRXeEXpnr9fltpJIwU12hVpKPl91Cql99XpX+1wrqMjdrWtbT1AUJ+H5fuwi4G1Urvc9J/Nw2vMr9FYb7g9O2n7Z/q56Nyyb4q57GK46fSSyWIeki+Q42sNoUvAfMK+f1c+oSRtldepsorVcJI23V7RPxMekWVhK96Wi9LtFnK6CfSj1SCric2DidKv9LHWxTnD/VjRkk9URn21f4iuUSU8H/pGJ8rMxip3+Ol+GOX2hn7kvxPtl5+dTpZ79Tv1ale6X1Qfu93/DrO9eTfpPtqqtcFdfroiP9IgMhTvzfOUN2SS7xaZGyN0D1e4VNG8+4o5kFRJyDGqvJeoc1Er0AtAuR6kDQYPkbi8PpLpFHwxmlL94+iKF8/1VajDvALlJcwUsQ/kv+u0utUx2hFvL9+nyqGTgr+TdWzg7v0jcrDdOnuSfXK6Od0gs7o0usnqQM/TvWK+yJtf0qKpMzavlTu06lev6+R+5H0OjT5d88MPZDIOT/23Esbv3TEFuV32Zd1M9RmEt8JanS18SvH7wh0bEF6NRnFeqZfi8NXSd8p/SjtC+tWg0jhfypdQ1ccNvS3r0eXSr+b9M7TSOmn6XeuXCKbdd5VV460XsfV6Vf33ri1S+1Al2j7Qsev/Bd0zJe0/60S/TnSfcUF8omW/mptv1+/9grVkSO07TI4vE/+HP2o6EVxfnXgldK7HrvgPv97dKnjZEWr6/8qhW2zXpW5Tsc3pvH7OIW5Sue5Q/5mNFr1TMluZaQ0f666Xi+dDolRU4oPK8sd1iL//1Z8k51H/TYormPlvaVNln6G0rdR5fDVqjPv0++v5BKR/v1qUz/o+J1HMf22fr5Y1CZMXq84vyu9Gflam6XN81O94j1A5+BK+bvN9819sXQqRlEmFOv2NdK1KP6C4leRiw8bXYfYEE71Vgqr76FbRWGvVBopIzPYph4p3svlRriMyscIRbC3Qj+XxiCd25v9rddvrdJ4o3R3p3qdl8+Iy5nWuwy6lv9euv9J9Sr7X+kcfKaLgZn/VLqPpHqdsOOUvyuUdofDKz7f2E9O9bpHTFb8br9arNdxq7XtPCYifaPCz5SuWfmzXj/Fe1DXIfaYqfxZ3xNGIyYW2yM9s2+R/yeo45R3RR91YnC4fudt0UZ8XfqjrFcaVdK/XTo9e22Rv5H+HSmDloh/leZrqVa6M+T+3eFdRuXVYS9K9apj0+R3lRLfbL3ScNqvSvW6uewq/2vlnzCQv/O+5VoS8IZdZNfpmPU6pqD86WcbRo5zpjg2u4ASJZm4ZMf/FPYX0ldL73pSN6fYpq9KD1D476sMU7oYVSsDr5PuwRL956U/1XonrnryUf1cXqJ/p+K/xOkrLefRdch1KRH5Oz63ucm1IoZ3a//Mojap+FMV7hrFvUnO7eaz0m25llbo/KkRvU7HJAwUn57Viw+ljuNFlTfVa9c8nJUx1nVJQWGvVvotVshVf1nGvjaV1UQUJH6iMoywXuKOh0P0u9g78rPR+R9icIgYJCdAP24LfiuX6G/S84v0F1ivdJxBtyVuU1I5T/oZZqj4qvR7hRQfSpW6iR7tPErX2qU3/5NTva6tKbqWZmq/SZk1o+e1fUCqf1KMdP1fp/1uGemcNYjRTIXbIOcX1opy6wsnJVaj9H8pnZIv/tuv2OaqKVcFVpoK/z/S79al7xSjE7T9eNd+4dbifcb318RLbeL7tHFNcTfh9j6l8QHvOw9y/6nNGd636Pg3Sm9mzptfugt78pyrn+QmM00MrhXfjcpktcI/Ju9XJ0r9k98e0l2nXzOo0vlcJu+pqV6/Y1K9tnVIct+alOpV4RrkmcTf5admO3T5FWVvXTva8jOmrzFLu7gepN/l3rlUDHXMNxVHcl7026EArue/t36G0lSe/k75O9v72naEn9LPj7xvUZgL5f8ZHZO0R/JStMkxVvs+9Vqlf7n0reJjBrPlncRnvU7WQdK7zXQ9sX6uvLe0N6N1TlUPrxNgNT1RpXi2YTRF14XivV66pB6pnvi4V8glono9Qvnz849USX5bLisayUIR8VYVSYpLpd/V+0q/Tde7z9F875vRPhH/LP2x3ldafnnxTm3qEkrE1+qHtWU/h9dufFnuG963KP036+dryrs7EKuV3i+0/wHrLNIfK/+kPVFgd4DdK+/TEqX+KT/7i/t1OsZlNKN58j4q1Wt/knRpPXKb/oJ0B6T6NbpudBFco3iTMutXt7IQuqIospFTS+qJ4tuka9Pt2UofcZkY7aV7s+Ldz/v6bdPPm+Qe8L6vtfF6zpV/kmf9uj35W/38zHqLyvVuuY+IQdrZ+015fzFR6t/IYtjvKuxmuRrVC7cd77B+D72IaNUE4w0ltof9EQhAAAIQgAAEIAABCEAAAhCAAAQgAAEIQAACEIAABCAAAQhAAAIQgAAEIAABCEAAAhCAAAQgAAEIQAACEIAABCAAAQhAAAIQgAAEIAABCEAAAhCAAAQgAAEIQAACEIAABCAAAQhAAAIQgAAEIAABCEAAAhCAAAQgAAEIQAACEIAABCAAAQhAAAIQgAAEIAABCEAAAhCAAAQgAAEIQAACEIAABCAAAQhAAAIQgAAEIAABCEAAAhCAAAQgAAEIQAACEIAABCAAAQhAAAIQgAAEIAABCEAAAhCAAAQgAAEIQAACEIAABCAAAQhAAAIQgAAEIAABCEAAAhCAAAQgAAEIQAACEIAABCAAAQhAAAIQgAAEhgCB/w87yJuHgUBuvgAAAABJRU5ErkJggg==;" vertex="1" parent="1">
          <mxGeometry x="-20" y="750" width="990" height="550" as="geometry" />
        </mxCell>
      </root>
    </mxGraphModel>
  </diagram>
</mxfile>
